<?xml version="1.0" standalone="no"?>
<!DOCTYPE svg PUBLIC "-//W3C//DTD SVG 1.1//EN" "http://www.w3.org/Graphics/SVG/1.1/DTD/svg11.dtd" >
<svg xmlns="http://www.w3.org/2000/svg" xmlns:xlink="http://www.w3.org/1999/xlink" version="1.1">
<metadata></metadata>
<defs>
<font id="komika_parchregular" horiz-adv-x="1271" >
<font-face units-per-em="2048" ascent="1638" descent="-410" />
<missing-glyph horiz-adv-x="921" />
<glyph horiz-adv-x="0" />
<glyph horiz-adv-x="682" />
<glyph horiz-adv-x="421" d="M53 1901v-39q0 -10 1 -22.5t1 -22.5v-9q0 -4 7.5 -17t11.5 -19q2 -16 18 -19q6 -4 19.5 -11t17.5 -7h92q10 2 30.5 8t24.5 10q6 4 24.5 23.5t33.5 33.5q14 10 22.5 24.5t12.5 29.5q0 2 1 26.5t1 36.5q0 14 -1 39t-1 27q0 12 -12.5 27.5t-18.5 21.5q-10 14 -25.5 28.5 t-17.5 14.5t-15.5 2t-19.5 2q-8 0 -22.5 -2t-16.5 -2q-4 -2 -19.5 -9.5t-32.5 -15.5t-33.5 -16t-24.5 -14q-16 -16 -36 -37t-20 -37v-10q0 -10 -1 -21.5t-1 -23.5z" />
<glyph horiz-adv-x="1024" d="M334 1923q0 -8 1 -23.5t1 -17.5q0 -6 3 -22.5t7 -22.5q0 -2 9.5 -16.5t15.5 -18.5q8 -10 17 -18t13 -10q12 -6 23.5 -11.5t15.5 -5.5l6 -1q7 -1 17 -1h33h28q12 0 19.5 1t9.5 1q4 4 17.5 11.5t17.5 11.5q2 0 12 2t22.5 4t23.5 3t13 1q4 2 16.5 10t18.5 12l80 82 q2 2 11.5 22.5t13.5 25.5q0 2 2 10t4 17t3 18.5t1 11.5q0 4 6 17.5t6 17.5v24v23q0 2 -6 16t-6 19l-10 45q-4 6 -13.5 23.5t-11.5 21.5q-4 4 -11 12t-11 12q-2 0 -9 6q-10 6 -17 11.5t-9 5.5h-47q-4 0 -23.5 11t-23.5 11l-11 1q-10 1 -18 1q-6 0 -16.5 -1t-12.5 -1t-24.5 -9 l-32.5 -13q-4 -4 -13.5 -7t-9.5 -5q-6 -4 -16 -13.5t-21.5 -21t-20.5 -21.5t-11 -14q-4 -4 -17.5 -25.5t-17.5 -29.5q-2 -4 -10.5 -26t-12.5 -32l-12 -35q-4 -12 -7 -33.5t-3 -25.5t-1 -17.5t-1 -23.5zM438 1974q0 4 1 15.5t1 13.5q14 33 31 45q18 16 42 34.5t34 24.5 q4 6 17.5 12.5t17.5 6.5t16 1t20 1q4 0 18.5 -1t16.5 -1q4 0 17.5 -6t17.5 -13q6 -4 18.5 -17t16.5 -17l1 -3q1 -4 1 -8l-1 -2q-1 -2 -1 -4l-88 -88q-6 -8 -27.5 -20.5t-25.5 -16.5q-8 -4 -27.5 -10t-24.5 -8h-30h-25q-6 4 -18.5 17.5t-16.5 17.5l-1 11q-1 11 -1 15z" />
<glyph horiz-adv-x="921" d="M463 1724q4 0 10 1t8 -1q4 0 9.5 8.5t9.5 12.5q0 2 12 21.5t14 23.5l25 35l57 63q4 4 11.5 13.5t9.5 11.5l12 29l8 10l39 24q2 4 12.5 14.5t10.5 14.5q12 12 30.5 36.5t16.5 26.5l4 105l-2 3t-6 3q-2 4 -5.5 8t-5.5 4h-12q0 -6 -6 0q-2 -4 -7 -5t-7 -5q0 -4 -10.5 -18.5 t-12.5 -16.5t-10 -2t-10 4q-10 -14 -36 -29.5t-32 -27.5l-5 -6q-5 -6 -11 -13.5t-13.5 -14.5t-9.5 -9q-6 -8 -18.5 -21.5t-14.5 -15.5t-10 -9t-17 -16.5t-17.5 -17.5t-12.5 -12q-4 -2 -7 -4l-3 -2l-17 8l-143 174q-2 2 -7 5t-7 3t-11.5 4t-13.5 6q-2 0 -9 10l-7 11 q-2 0 -7.5 1t-9.5 1t-10 -1l-6 -1l-4 -3q-4 -3 -6 -3q-4 -4 -4 -6l-4 -5v-6v-4q2 -2 7 -17.5t5 -19.5l-2 -47l10 -37l6 -10l19 -18l12 -10l22 -37q8 -12 25.5 -37t36 -52.5t35 -51t22.5 -31.5q8 -6 18.5 -20.5t12.5 -18.5t9 -7.5t11 -3.5l8 -1q7 -1 11 -1z" />
<glyph unicode="&#xd;" horiz-adv-x="1024" />
<glyph horiz-adv-x="1161" d="M598 1704q4 0 10 1t8 -1q4 0 9.5 8.5t9.5 12.5q0 2 12 21.5t14 23.5l25 35l57 63q4 4 11.5 13.5t9.5 11.5l12 29l8 10l39 24q2 4 12.5 14.5t10.5 14.5q12 12 30.5 36.5t16.5 26.5l4 105l-2 3t-6 3q-2 4 -5.5 8t-5.5 4h-12q0 -6 -6 0q-2 -4 -7 -5t-7 -5q0 -4 -10.5 -18.5 t-12.5 -16.5t-10 -2t-10 4q-10 -14 -36 -29.5t-32 -27.5l-5 -6q-5 -6 -11 -13.5t-13.5 -14.5t-9.5 -9q-6 -8 -18.5 -21.5t-14.5 -15.5t-10 -9t-17 -16.5t-17.5 -17.5t-12.5 -12q-4 -2 -7 -4l-3 -2l-17 8l-143 174q-2 2 -7 5t-7 3t-11.5 4t-13.5 6q-2 0 -9 10l-7 11 q-2 0 -7.5 1t-9.5 1t-10 -1l-6 -1l-4 -3q-4 -3 -6 -3q-4 -4 -4 -6l-4 -5v-6v-4q2 -2 7 -17.5t5 -19.5l-2 -47l10 -37l6 -10l19 -18l12 -10l22 -37q8 -12 25.5 -37t36 -52.5t35 -51t22.5 -31.5q8 -6 18.5 -20.5t12.5 -18.5t9 -7.5t11 -3.5l8 -1q7 -1 11 -1zM16 193 q0 14 1 37.5t1 27.5t7.5 30.5t11.5 43.5q16 59 46 114.5t64 106.5l19 18l55 111q6 6 28.5 42t52.5 80t58.5 87t45.5 67q6 10 20 30t28.5 41.5t27 37.5t16.5 20l55 56q2 2 11 17.5t21.5 32.5t25 34.5t16.5 25.5q4 4 10 18.5t8 18.5q0 4 -2 3t-2 3q-10 0 -29.5 3.5t-42 6.5 t-43 4t-28.5 -1q-6 -2 -31 -11.5t-52.5 -18.5t-52 -17.5t-30.5 -8.5q-4 0 -28.5 -2t-47.5 -2h-27h-18q-23 0 -48.5 2t-33.5 2q-14 4 -18 19q-4 6 -11.5 19.5t-7.5 17.5q0 2 -1 18t-1 27q0 10 1 27.5t1 19.5q2 10 8 36.5t11 37.5l18 18l18 37q4 14 19 18q4 4 18.5 10.5 t18.5 8.5q2 0 13 2t26.5 5l31 6t21.5 5l129 19q16 2 53 5t79 6t78 5t48 2h12q12 0 26.5 1t31.5 1h26h23q16 0 29.5 -1t23.5 -1h12q6 0 23.5 -2t38 -5t40 -6t27.5 -5q6 -2 27.5 -8.5t28.5 -10.5q14 -4 18 -18q4 -6 10 -17.5t12.5 -24t10.5 -21.5t4 -11t1 -27.5t1 -42.5v-20 q0 -12 -1 -24.5t-1 -22.5v-10q0 -4 -7 -18.5t-12 -18.5l-147 -148q-10 -10 -47 -52t-82 -92t-86 -97.5t-61 -71.5q-6 -6 -17.5 -19.5t-23 -29t-21.5 -28.5t-12 -15q-4 -4 -16.5 -23.5t-27 -43t-28.5 -46t-20 -35.5q-4 -4 -14.5 -21.5t-21.5 -38t-21.5 -41t-16.5 -28.5 q-4 -8 -11 -21.5t-7 -15.5q-2 -4 1 -16t3 -16q10 0 34.5 -3.5t34.5 -0.5q2 0 14.5 2t28 5t29.5 6t20 5q10 2 54.5 13.5t93.5 23.5t93 23.5t54.5 13.5t32 5t44 6t43 5t28.5 2q6 0 25.5 -4t33.5 -8q14 2 19.5 -12.5t13.5 -30.5l18 -92q0 -4 9.5 -28t9.5 -28 q-6 -12 -12.5 -26.5t-24.5 -30.5q-8 -6 -12 -10t-7 -6q-4 -4 -24.5 -10.5t-30.5 -8.5l-129 -18q-8 -2 -36.5 -9.5t-64.5 -15.5t-70 -16t-50 -15l-55 -18l-92 -37q-10 -4 -35 -12t-51.5 -17.5t-50 -16.5t-29.5 -9q-10 -4 -33 -10.5t-47.5 -12.5t-44 -10t-23.5 -4h-47h-45 q-12 4 -28.5 13.5t-20.5 15.5q-12 14 -25.5 26.5t-17.5 18.5t-10.5 26.5t-8.5 28.5q0 2 -1 27t-1 37z" />
<glyph d="M674 1722q4 0 10 1t8 -1q4 0 9.5 8.5t9.5 12.5q0 2 12 21.5t14 23.5l25 35l57 63q4 4 11.5 13.5t9.5 11.5l12 28l8 11l39 24q2 4 12.5 14.5t10.5 14.5q12 12 30.5 36.5t16.5 26.5l4 105l-2 3t-6 3q-2 4 -5.5 8t-5.5 4h-12q0 -6 -6 0q-2 -4 -7 -5t-7 -5q0 -4 -10.5 -18.5 t-12.5 -16.5t-10 -2t-10 4q-10 -14 -36 -29.5t-32 -27.5l-5 -6q-5 -6 -11.5 -13.5t-13.5 -14.5l-9 -9q-6 -8 -18.5 -21.5t-14.5 -15.5t-10 -9t-17.5 -16.5l-17.5 -17.5l-12 -12q-4 -2 -7 -4l-3 -2l-17 8l-143 174q-2 2 -7 5t-7 3t-11.5 4t-13.5 6q-2 0 -9 10l-7 11 q-2 0 -7.5 1t-9.5 1t-10 -1l-6 -1l-4 -3q-4 -3 -6 -3q-4 -4 -4 -6l-4 -5v-6v-4q2 -2 7 -17.5t5 -19.5l-2 -47l10 -37l6 -10l19 -18l12 -11l22 -36q8 -12 25.5 -37t36 -52.5t35 -51t22.5 -31.5q8 -6 18.5 -20.5t12.5 -18.5t9 -7.5t11 -3.5l7 -1q8 -1 12 -1zM14 195 q0 -12 2 -37t2 -29q0 -6 8.5 -23.5t18.5 -35.5q4 -8 18.5 -23.5t28.5 -28.5q4 -4 18.5 -10t18.5 -8h37q8 2 25.5 5l35 6t31.5 5t18 2q6 2 16.5 7.5t22 10.5t21.5 10t14 9q2 2 12.5 13.5t22.5 23.5l19.5 19.5l12.5 12.5t12 6t22 1q23 0 46 -1t46 -1h28q10 2 51.5 13.5 t87.5 23.5t87 23.5t51 13.5q16 2 58 8t89 12t89 11.5t59 5.5q4 2 18.5 8t18.5 10l37 37v16q0 10 1 24.5t1 24.5v37q0 16 -1 28.5t-1 23.5v12q0 4 -7.5 17.5t-11.5 19.5q-10 16 -24.5 23t-30.5 14h-29q-20 0 -40.5 1t-43.5 1h-63q-23 0 -44.5 -1t-37.5 -1h-19 q-4 0 -22.5 -5.5t-42 -11.5l-47 -12t-35.5 -8q-4 -2 -17.5 -8.5t-29 -12.5t-29.5 -11t-16 -5q-4 -2 -20.5 -5t-36 -6.5t-36 -5.5t-18.5 -2q-4 0 -17.5 -2t-28.5 -5t-28.5 -6t-17.5 -5v18l18 37q2 6 9.5 18.5t16.5 28t17.5 27.5t12.5 18l37 56q23 29 58.5 77t70 95t61.5 83 t31 40q4 6 27.5 30.5t52 52t54 52t32.5 30.5q8 8 27.5 37t27.5 37l55 111q2 14 19 18l36 19q4 4 18.5 20.5t18.5 16.5h56q4 2 17 15t20 21q4 6 11 19.5t7 17.5q0 2 1 18.5t1 26.5t-1 27.5t-1 19.5q0 8 -2 22.5t-5 29t-6 25.5t-5 16q-4 8 -27 27.5t-29 27.5q-8 4 -35.5 11 t-38.5 7q-6 0 -42.5 2t-75.5 2h-66q-23 0 -49 -2l-25 -2l-36 -92l-3 -1q-4 -1 -6 -1q-4 0 -7 1l-3 1q-4 2 -11 8t-7 11q0 10 -4 38.5t-4 40.5q-6 0 -20.5 -1t-31 -2t-31 -2t-20.5 -1q-4 0 -17.5 -3t-28.5 -6t-28.5 -6t-17.5 -3l-258 -37q-10 -2 -37 -8t-37 -10 q-29 -10 -53 -33q-14 -14 -33.5 -32.5t-23.5 -27.5q-4 -4 -10.5 -18t-8.5 -18q0 -2 -1 -8.5t-1 -10.5t1 -11l1 -7q0 -4 6 -14.5t12.5 -22.5t12.5 -23.5t6 -13.5v-74q4 -8 17.5 -21.5t19.5 -15.5q2 0 17.5 -1t25.5 -1t28.5 1t20.5 1t15.5 7.5t21.5 11.5q2 2 10 8t17.5 12 t17.5 11.5t10 5.5q4 2 25.5 5t47.5 6t47.5 5t27.5 2l184 37q2 0 9 1t11 1t10 -1l7 -1q14 -4 18 -18q-16 -18 -49 -57.5t-73 -87.5t-84 -102.5t-82.5 -103.5t-70.5 -89t-46 -58q-8 -10 -24.5 -33.5t-33 -50.5t-32 -50.5t-21.5 -31.5q-2 -2 -4 -13.5t-5 -23.5t-5 -23.5 t-4 -13.5q0 -4 -16.5 -18.5t-20.5 -18.5q-10 -14 -29.5 -42.5t-34.5 -51.5q-10 -16 -12 -25.5t-8 -37.5q-4 -29 -6 -37t-13 -29q-6 -12 -13 -26.5t-14 -27.5t-12.5 -23.5t-5.5 -12.5t-2 -26.5t-2 -36.5zM535 1622l18 -18h-18v18z" />
<glyph unicode=" "  horiz-adv-x="921" />
<glyph unicode="&#x09;" horiz-adv-x="921" />
<glyph unicode="&#xa0;" horiz-adv-x="921" />
<glyph unicode="!" horiz-adv-x="718" d="M18 74q0 10 -1 36.5t-1 36.5v19q0 12 1 23.5t1 21.5v10q0 4 7.5 18.5t11.5 18.5q2 4 12 15.5t22.5 22.5t23.5 21.5t15.5 14.5t18.5 11t18 7q2 0 18.5 1t27.5 1q10 0 27.5 -1t19.5 -1q6 -6 14 -12t8 -27q4 -23 7 -53.5t7 -36.5q0 -4 6.5 -14t12.5 -22.5t12 -23.5t6 -14 q0 -2 1 -13t1 -15q0 -6 -1 -15.5t-1 -11.5q-2 -4 -11 -14t-21.5 -22.5t-23.5 -22.5t-17 -15q-4 -4 -24.5 -10t-31.5 -8h-41h-32q-4 0 -24.5 14.5t-31.5 22.5zM109 653q0 10 1 27.5t1 19.5q0 8 7 37t11 37q0 2 5 10.5t11.5 17.5t12.5 17t8 10q4 6 11 20.5t7 16.5q0 4 -9 28 t-9 28q0 6 2 24.5t5 38t6 37.5t5 29q4 14 19 18h8h18h19h10q6 2 20.5 8t16.5 10l1 7q1 6 1 10t-1 11t-1 9t-7 8.5t-12 10.5q-4 2 -19 8t-17 10l-1 13q-1 14 -1 20q0 10 1 24.5t1 16.5q2 6 7 21.5t10 33t10 33.5t9 23q0 2 6.5 10t12.5 17t12 16.5t6 11.5v24v39v41v25 q0 4 4.5 22.5t8.5 34.5q4 8 9 25.5t15 27.5q8 8 19.5 20.5t22.5 25t20.5 20.5t11.5 8h203q2 0 23.5 -13t31.5 -24q14 -4 18 -18q0 -8 1 -32.5t1 -33.5q0 -12 -1 -35.5t-1 -27.5t-5 -20.5t-11 -35t-12 -35t-8 -20.5q-6 -10 -31 -51t-52.5 -87t-52 -87t-30.5 -51 q-18 -33 -31.5 -63.5t-24.5 -65.5l-18 -92l-37 -129q0 -4 -2 -19.5t-5 -36l-6 -41t-5 -32.5v-19q-2 -6 -7.5 -17.5t-11.5 -23.5t-11 -21.5t-7 -11.5q-6 -8 -17.5 -19t-22.5 -22.5t-21.5 -20.5t-12.5 -11q-2 0 -16.5 -1t-24.5 -1t-29.5 1t-21.5 1t-8 7t-11 11 q-23 33 -30.5 65.5t-7.5 71.5z" />
<glyph unicode="&#x22;" horiz-adv-x="829" d="M438 1296q4 -10 11.5 -24.5t9.5 -16.5q0 -4 11 -13t19 -13l48 -21q8 -2 22 -4t19 0l153 64q4 8 16.5 34.5t14.5 36.5q4 4 5 19.5t-1 19.5q0 2 -4 15.5t-6 21.5q-4 6 -10.5 18.5t-6.5 14.5q-4 4 -15 13t-15 14l-7 18v23q0 16 2.5 36.5t3.5 38t3 25.5q4 6 7 29.5t7 35.5 l23 91q4 6 5 20t-1 18q0 2 -4.5 15.5l-6.5 19.5q-4 6 -10 19.5t-6 15.5q-4 4 -16.5 13.5t-14.5 13.5l-41 102q-4 4 -12 9t-12 1q-2 -2 -21.5 -8t-30 -10t-30 -13.5t-21.5 -9.5t-5 -8t-7 -16q2 -4 1 -19.5t-3 -21.5l-2 -1t-4 -3q-4 -4 -7 -3l-3 1h-21q-14 0 -20 4 q-2 -6 -7.5 -24.5t-9.5 -40t-8 -40t-4 -24.5q-2 -12 -6 -52t-8 -86.5t-7.5 -89.5t-1.5 -61q-4 -6 -2 -27.5t5 -31.5q0 -6 3 -20.5t6 -30t5 -26.5t4 -14q0 -2 5 -19.5t9 -27.5zM127 1231q4 -12 15.5 -33.5t11.5 -23.5l47 -19l153 59q8 4 20.5 32t12.5 40q0 4 -5 25.5 t-12.5 46t-13.5 46t-8 28.5q0 4 -3 26.5t1 32.5q2 12 3 36.5t2 50.5t3 47.5t4 27.5q0 4 5.5 20.5t11.5 36t11 35.5t7 20l4 43q0 10 -1 32t-5 26q0 2 -2 11t-4 13q-4 6 -8 15.5t-4 11.5q-2 4 -13.5 13t-19.5 14q-16 12 -31.5 14t-32.5 0q-12 0 -34.5 -1t-24.5 -1 q-2 -2 -15.5 -6t-19.5 -8q-6 -2 -18 -7.5t-14 -9.5q-10 -4 -25.5 -16.5t-18.5 -18.5q-2 -2 -5 -7t-5 -11q-8 -18 -18 -43t-15 -35q-2 -6 -3 -21.5t1 -19.5l54 -137q4 -4 2 -19.5t-4 -21.5q-4 -6 -19.5 -27.5t-17.5 -25.5q-4 -8 -5 -22.5t-1 -20.5l6 -19q10 -23 23.5 -29 t23.5 -22v-8q-2 -6 -15.5 -16.5t-11.5 -16.5q-4 -4 -3 -25.5t5 -31.5q0 -8 15 -37q4 -10 8 -24.5t6 -18.5z" />
<glyph unicode="#" horiz-adv-x="1142" d="M612 426q-10 0 -24.5 -1t-16.5 -1q-4 0 -20 -2t-34.5 -5t-35 -6t-20.5 -5q0 -10 1 -31t1 -43q0 -23 -1 -45.5t-1 -28.5q0 -4 -7.5 -18.5t-11.5 -18.5t-18 -9t-18 -9v-8q0 -23 10 -43.5t10 -42.5q0 -4 -1 -11l-1 -6q-2 -4 -16.5 -10t-20.5 -8q-2 0 -16.5 -1t-22.5 -1 q-6 0 -19.5 1t-15.5 1q-4 0 -13 4t-21.5 10t-23.5 12t-15 11q-10 6 -28.5 20t-18.5 16v166q0 2 -10.5 8.5t-16.5 10.5l-74 37q-4 2 -11 9t-7 9l-1 6t-1 10t1 11.5t1 9.5l18 55q0 4 -1 18.5t1 18.5q2 6 9.5 21.5t16.5 34t17 34t12 21.5q0 2 6.5 7t12.5 11t12 11.5t6 7.5t1 15 t1 19q0 8 -1 22.5t-1 16.5q-6 6 -12 14.5t-27 8.5q-23 4 -53.5 7t-36.5 7t-19 17.5t-18 19.5v16q0 10 -1 24.5t-1 25.5v16v20q0 16 1 28.5t1 23.5v12q0 6 7.5 27.5t11.5 27.5q4 4 17.5 18.5t19.5 18.5l73 37l56 18q14 4 18 19q2 4 8.5 24.5t10.5 30.5l18 74q0 4 1 17.5 t3 30.5t4 36.5t4 34.5q2 23 6 28q2 6 8.5 19.5t10.5 17.5q2 2 15.5 8t21.5 11l55 18h19h18q10 -2 30.5 -8t24.5 -10q6 -4 15.5 -12.5t18.5 -17.5t15.5 -16.5t6.5 -9.5v-217q4 0 18 -3t18 -1q12 4 41 9t33 10q4 2 8 6t13 10q16 16 17 21.5t3 23.5q4 27 9 61.5t5 42.5 q2 6 5.5 21.5t6.5 31t5 27t2 13.5t7 8t11 10q6 4 19.5 11t17.5 7h8h19h18h10q4 0 18.5 8.5t18.5 10.5l8 1q7 1 11 1t10 -1t8 -1q6 -2 27.5 -8t27.5 -11q4 -2 11.5 -8t7.5 -10q0 -6 1 -21.5t3 -34t3 -33.5t1 -22h-55q0 -4 -6 -18t-2 -18q2 -4 17 -19.5t19 -17.5l19 -37 q4 -4 10 -11.5t8 -7.5q4 -2 17.5 -4t29 -5t28.5 -5t17 -4q6 -4 19.5 -17.5t17.5 -19.5v-16q0 -10 1 -24.5t1 -24.5v-19v-20q0 -12 -1 -25.5t-1 -26.5v-10q0 -4 -7 -18.5t-11 -18.5t-18.5 -10t-18.5 -8q-4 -4 -18.5 -19.5t-18.5 -17.5q-4 -4 -27.5 -11t-27.5 -7 q-10 -4 -23.5 -10.5t-13.5 -8.5l-18 -129q0 -4 7 -10t11 -8q6 -4 31.5 -7.5t42.5 -7.5q16 -2 18 -4t12 -8q16 -4 35 -13t27 -16q4 -4 11 -10t7 -8t1 -13.5t1 -15.5q0 -6 -1 -16l-1 -10q-2 -4 -17 -10.5t-20 -8.5q-14 -4 -18 -18q6 -6 19.5 -27.5t17.5 -27.5l1 -5q1 -4 1 -6 l-2 -8q-2 -2 -8 -9t-11 -9l-36 -19q-4 -2 -20.5 -5t-35 -6t-35 -5t-20.5 -2l-18 -37q2 -10 7 -37t11 -56.5t11 -55t7 -35.5v-13q0 -10 1.5 -23.5t1.5 -25.5v-20v-21q0 -14 -1.5 -27.5t-1.5 -25.5v-10q0 -4 -7 -17.5t-11 -19.5l-37 -37h-65h-64q-12 4 -28.5 13.5t-20.5 15.5 q-12 14 -25.5 26.5t-17.5 18.5t-11 27.5t-7 27.5v277q0 4 -7.5 10t-11.5 8l-13 1q-14 1 -20 1zM645 866q-4 0 -17.5 -2t-28.5 -5t-28.5 -6t-17.5 -5q-10 -4 -30.5 -9t-24.5 -10q-2 -2 -9.5 -8t-9.5 -10q-4 -6 -11 -19.5t-7 -17.5t-1 -15t-2 -23.5t-2 -24t-1 -17.5 q6 0 22.5 1t35.5 2t35.5 2t22.5 1q10 2 37 8.5t37 10.5q4 2 11.5 8t7.5 10q0 2 1 23.5t1 32.5q0 10 -1 31.5t-1 23.5q0 4 -7.5 11t-11.5 7z" />
<glyph unicode="$" horiz-adv-x="995" d="M53 406q0 4 1 10t1 8q2 4 10.5 18.5t8.5 18.5v16q0 16 -1 30.5t-1 27.5q0 16 2 18q4 6 24.5 19.5t30.5 17.5q2 0 16.5 2t22.5 2q6 0 19.5 -2t15.5 -2q4 -2 17 -13.5t28.5 -23.5t29 -23.5t17.5 -13.5l9 -1t15 -1q4 0 16.5 1t14.5 1q8 0 25.5 2t35 5t32 6t18.5 6l10 4 q10 4 22.5 10t24.5 12t17 10l55 37l92 92q4 4 4 19q0 4 -1 11t-3 7q-2 2 -23.5 8.5t-31.5 10.5l-74 18q-8 4 -21.5 9t-15.5 10q-2 2 -7 10t-11 17t-11.5 17.5t-7.5 10.5q-4 14 -18 18q-10 -4 -37 -17t-37 -20l-37 -36q-6 -4 -19.5 -11.5t-17.5 -7.5h-12q-12 0 -25.5 -1 t-29.5 -1h-25h-24q-16 0 -30.5 1t-25.5 1h-12q-4 0 -17.5 7t-19.5 11.5t-19.5 18.5t-17.5 18.5t-10 15.5t-12 23.5t-10.5 21.5t-4.5 13t-2 26.5t-2 43.5v26v23q0 23 2 42t2 23q0 2 7.5 14.5t16.5 27t18.5 28.5t13.5 23q2 2 11 13t21.5 26.5t23.5 30t17 22.5q4 14 19 18 q6 6 19.5 16.5t28.5 21.5t27.5 21.5t16.5 14.5l55 37l19 18q20 37 23 82t14 84q2 6 8 26.5t10 28.5q2 4 7 15.5t11.5 23t11.5 21.5l7 14q4 4 10 11.5t8 7.5h129q2 0 15.5 -13.5t21.5 -23.5q4 -4 10.5 -18.5t8.5 -18.5q2 -8 5 -29.5t6 -45t5 -44t2 -29.5q6 0 30.5 -5t43.5 -9 q6 -2 10 -2t8 -2q6 -2 26.5 -8t29.5 -10q20 -8 35.5 -18.5t19.5 -18.5l1 -8q1 -7 1 -11t-1 -10t-1 -8q-2 -4 -10.5 -18.5t-8.5 -18.5t9.5 -27.5t9.5 -27.5v-19v-18l-19 -37q-4 -14 -18 -18q-14 2 -51 1t-78 -4.5t-78 -8.5t-51 -7q-2 0 -20.5 -9t-43 -21.5t-48 -25 t-35.5 -18.5q-14 -4 -19 -18l-1 -4q-1 -4 -1 -6l1 -3q1 -3 1 -6q14 0 48 -2t73 -5t72.5 -6t46.5 -5l110 -18q6 -2 17.5 -5.5t24 -6.5t21.5 -5t11 -2q6 -2 17.5 -7t23.5 -11t21.5 -11.5t11.5 -7.5t11 -13t21.5 -26.5t23.5 -30t17 -22.5q4 -4 10.5 -18.5t8.5 -18.5v-10v-8 q-2 -2 -8 -7t-12.5 -11.5l-11.5 -11.5t-5 -7l-2 -17q-2 -16 -5 -36.5t-6 -42t-5 -33.5v-10v-8q2 -2 10 -9.5t8 -9.5t1 -12t1 -17q0 -4 -1 -14t-1 -12t-7 -16.5t-11 -20.5q-8 -10 -20.5 -30.5t-16.5 -24.5q-6 -10 -22.5 -26.5l-34 -34t-33 -32t-21.5 -18.5q-4 -4 -17.5 -13 t-31.5 -21.5t-35.5 -23t-25.5 -16.5l-74 -37q-4 -4 -11.5 -10t-7.5 -8q-2 -4 -5 -19.5t-6 -33t-5 -33.5t-2 -25v-18v-29v-28v-17q0 -4 -7 -17t-11 -20q-4 -14 -19 -18q-8 0 -32.5 -1t-32.5 -1q-12 0 -37 1t-27 1q-8 2 -28.5 15.5t-26.5 21.5q-2 2 -7.5 12t-11.5 22.5 t-11 23.5t-7 16q-4 6 -7 31.5t-7 41.5q-2 16 -7.5 24.5t-15.5 12.5l-92 37q-8 4 -21.5 10t-15.5 8q-6 4 -19.5 18.5t-17.5 18.5q-6 10 -19.5 37t-17.5 37l-1 7q-1 8 -1 12z" />
<glyph unicode="%" horiz-adv-x="1492" d="M238 219q0 10 1 31.5t1 25.5q0 6 2 20.5t5 29t6 27t5 16.5q8 16 28.5 58t44 89t44 89t31.5 59q6 10 32.5 51t58 87t59.5 87t34 51t19.5 37t17.5 37q-6 -4 -18.5 -12.5t-28 -17.5t-27.5 -16t-18 -10l-74 -36q-2 0 -14.5 -1t-22.5 -1q-8 0 -21.5 1t-15.5 1q-4 0 -10 7 t-8 11t2 15.5t4 15.5q-2 0 -12.5 4t-12.5 2q-4 -4 -18.5 -17.5t-18.5 -19.5l-18 -37q-10 -16 -24.5 -23.5t-30.5 -13.5q-6 0 -25.5 4t-40 10.5t-39 12.5t-24.5 10q-4 2 -13.5 10.5t-22 20.5t-22.5 23.5t-16 19.5q-4 4 -11.5 18.5t-7.5 18.5q0 2 -1 18.5t-1 26.5t1 27.5 t1 19.5q0 4 9.5 27.5t9.5 27.5v8v11q-2 4 -10.5 18t-8.5 19q0 2 -1 25.5t-1 37.5q0 12 1 36.5t1 29.5q2 10 8.5 36.5t10.5 36.5q6 10 16 33t21.5 46.5t21.5 43t15 25.5l73 73q4 4 25.5 18.5t30.5 18.5l73 37q2 0 17.5 1t25.5 1t27.5 -1t22.5 -1q4 0 17 -2t28.5 -5t29 -6 t17.5 -5l37 -19l55 -37q4 -4 18.5 -17t18.5 -19q6 -6 20.5 -24.5t24.5 -35.5q10 -10 15 -22.5t13 -28.5q4 -10 11.5 -31.5t7.5 -23.5v-15q0 -10 1 -25.5t1 -31.5v-25v-24q0 -14 -1 -27.5t-1 -25.5v-11q0 -8 -5 -29.5t-11.5 -45t-12.5 -45t-8 -27.5q14 4 18 18l111 148 q6 6 21.5 24.5t34 40t35 40t20.5 24.5l92 92q2 2 7 13.5t11 23.5t11.5 23.5t7.5 13.5q8 10 24.5 27.5t33.5 34t32.5 30.5t19.5 18q2 0 15.5 2t31 5.5t36 6.5t28.5 5h20h17q4 -2 17 -16.5t20 -20.5l18 -37q4 -10 11 -30.5t7 -24.5q0 -2 1 -12.5t1 -16.5q0 -31 -11 -60.5 t-27 -58.5q-8 -10 -20.5 -30.5t-16.5 -24.5l-148 -147q-127 -133 -236.5 -274.5t-205.5 -297.5q-4 -8 -15.5 -27.5t-22.5 -40t-21.5 -38t-14.5 -23.5q-8 -12 -19.5 -37.5t-22.5 -52.5t-20.5 -48.5t-11.5 -27.5q-2 -4 -5 -23.5t-6 -41t-5 -41t-2 -23.5q-2 -10 -8 -36.5 t-10 -37.5h-11h-8q-4 2 -18.5 8.5t-18.5 10.5q0 -2 -1 -8t-1 -11q0 -4 1 -11l1 -7q2 -4 17.5 -19.5t19.5 -17.5l1 -4t1 -6l-2 -8q-6 -6 -19.5 -20.5t-25.5 -26.5q-4 -4 -6 -5.5t-4 -3.5q-4 -2 -24.5 -8t-30.5 -10h-11h-8q-4 2 -12 4t-19 4q-23 8 -24.5 10t-18.5 15 q-8 8 -11 13t-7 9q-6 6 -19.5 27.5t-17.5 28t-11 28t-7 27.5q0 2 -1 22.5t-1 30.5zM698 303q0 14 1 38t1 28q0 8 7.5 41.5t11.5 50.5l18 55q2 8 8.5 22.5t11.5 29t10 26.5t7 14q2 6 10.5 20.5t16.5 29t16 26.5t12 16q4 6 18.5 21.5t32 33l34 34t26.5 22.5q2 2 15.5 8 t21.5 10q8 2 23.5 8.5t29.5 12.5t25.5 11t13.5 5t18.5 1t26.5 1t27.5 -1t19.5 -1t13.5 -6t23.5 -12t22.5 -12.5t14.5 -6.5h12h25h22h15q2 0 16 -9t25 -19q4 -2 7 -4t7 -4q6 -4 19.5 -18.5t17.5 -18.5q2 -4 7 -14.5t11 -21.5t11.5 -22.5t7.5 -15.5l18 -74q0 -4 9.5 -27.5 t9.5 -27.5q0 -2 1 -16.5t1 -20.5q0 -8 -1 -21.5t-1 -15.5q0 -4 -9.5 -27.5t-9.5 -27.5t-2 -17.5t-5 -29t-6 -29.5t-5 -16q-2 -4 -7.5 -15.5t-11.5 -23.5t-11 -22.5t-7 -12.5l-129 -129q-8 -8 -28.5 -21.5t-26.5 -15.5q-4 -2 -20.5 -4t-36 -5t-36 -5t-18.5 -4 q-8 -4 -28.5 -17.5t-26.5 -19.5q-6 0 -18.5 -1t-28.5 -1q-14 0 -26.5 -1t-19.5 -1q-10 0 -23 1t-30 1q-16 0 -26.5 1t-12.5 1q-4 0 -13 4t-21.5 10t-23.5 12.5t-15.5 10.5t-18.5 17t-18 20q-8 6 -22.5 28.5t-14.5 26.5q-4 10 -10.5 36.5t-8.5 37.5q0 2 -1 26.5t-1 36.5z M938 395q0 -6 1 -16l1 -10q4 -6 17.5 -19.5t19.5 -17.5l10 -1q10 -1 17 -1q4 0 15 1t13 1q6 2 26.5 8t28.5 10q6 4 28 17.5t28 19.5l92 92q0 2 1 5l1 3q0 2 -1 7l-1 4q-4 4 -17.5 18t-19.5 19q-4 4 -18.5 11t-18.5 7q-2 0 -16.5 1t-20.5 1q-8 0 -21 -1t-16 -1q-4 0 -17 -7 t-19 -11q-10 -8 -35 -27t-43 -35q-20 -16 -33 -49q0 -2 -1 -13.5t-1 -15.5zM350 442l19 -18v18h-19zM219 1251q0 -6 1 -19t1 -15q2 -6 16.5 -19.5t20.5 -17.5q2 0 13.5 -1t21.5 -1q8 0 22.5 1t16.5 1t15 7t22 11q8 6 23.5 15.5t29.5 18.5t25.5 15t13.5 6q4 4 10 17.5t8 19.5 q0 2 1 17.5t1 23.5q0 6 -1 18.5t-1 14.5l-10 10l-17.5 17.5l-17.5 17.5l-10 10q-2 0 -15.5 1t-19.5 1q-8 0 -22.5 -1t-16.5 -1l-10 -5q-10 -5 -22.5 -11t-24.5 -12.5t-17 -8.5q-14 -4 -18 -18q-4 -4 -10 -16.5t-12.5 -24.5t-10.5 -23l-4 -10q0 -2 -1 -16.5t-1 -22.5z" />
<glyph unicode="&#x26;" horiz-adv-x="1492" d="M16 442v33q0 23 1 43.5t1 36.5v16q0 2 7.5 23.5t11.5 32.5q4 8 16.5 35.5t20.5 37.5q4 6 11 19.5t16.5 29t16.5 27.5t11 17q2 2 10 12t17.5 22.5t17.5 23.5t10 15q0 2 1 11.5t1 15.5q0 4 -1 15.5t-1 13.5q0 4 -6 20t-12 34.5t-12.5 35t-6.5 20.5q0 2 -1 27.5t-1 42.5v20 q0 12 1 24.5t1 22.5v11q0 4 7.5 24.5t11.5 30.5q2 6 7 16.5t11 21.5t11.5 21.5t7.5 14.5t9 14t16.5 22.5t17.5 22.5t12 14l74 74l5 5t5 3q0 -8 3 -32.5t5 -30.5q2 -4 8.5 -11.5t10.5 -7.5q10 -2 34.5 3.5t34.5 5.5q0 4 3 14t1 14t-10 18.5t-8 18.5q0 2 -1 13.5t-1 15.5 q0 6 1 16l1 10q4 8 24.5 28t30.5 28q2 2 17.5 8t39 15t35.5 14q10 4 32 11t24 7q18 2 48 3t49 2t21 1v-96l9 -5q8 -5 18 -10.5t21.5 -7.5t17.5 2q4 4 9 28t9 28q4 6 18.5 19t18.5 18l6 1q7 1 11 1t11 -1t9 -1q4 -2 18.5 -8.5t18.5 -10.5l55 -55l19 -37q4 -10 11 -31.5 t7 -23.5v-15q0 -12 1 -30.5t1 -36.5v-29v-22q0 -16 -1 -34t-1 -34v-20q-2 -6 -11 -17.5t-21.5 -24t-23.5 -21.5t-18 -11q-2 0 -23.5 -1t-33.5 -1t-39.5 1t-32.5 1q-4 0 -17 7t-19 11q-14 4 -19 19l-18 37q-2 4 -5 20t-6.5 34.5t-5.5 35t-2 20.5h-10h-8q-23 -6 -47.5 -15 t-44.5 -22q-10 -8 -31 -20.5t-25 -16.5q-6 -6 -19 -18t-28.5 -27.5t-29 -28t-15.5 -18.5q-4 -4 -10 -17.5t-8 -19.5l-1 -7q-1 -7 -1 -11t1 -12l1 -7q2 -6 8 -19t10 -17h8h11l55 18q6 2 17.5 5t23.5 6t21.5 5t11.5 2t16 1.5t23 1.5q6 0 19 -1.5t15 -1.5q4 0 18.5 -7t18.5 -11 q6 -6 18.5 -17.5t25 -23.5t21.5 -22l9 -11q2 -2 3 -25.5t1 -35.5t-1 -38t-3 -30q-2 -6 -16.5 -27.5t-20.5 -27.5q-4 -4 -24.5 -17.5t-30.5 -19.5q-8 -4 -21.5 -11t-15.5 -7h-25h-41h-38h-25q-2 0 -16.5 -7.5t-20.5 -11.5t-14 -9t-19 -13q-23 -12 -23.5 -14.5t-4.5 -10.5 q-4 -10 -8.5 -26.5t-4.5 -18.5q-4 -6 -17 -27.5t-19 -27.5l-37 -37q-8 -8 -19.5 -22.5l-23 -29t-20.5 -26.5t-11 -14q-4 -6 -10 -27.5t-9 -27.5q0 -2 -1 -16.5t-1 -22.5q0 -6 1 -19.5t1 -15.5t7.5 -8.5t11.5 -10.5l37 -18h18h19q82 16 154.5 50t140.5 79q10 8 30.5 22.5 t41 28.5t36.5 25.5t21 15.5q2 2 8 15.5t10 21.5l18 55q2 6 13.5 27.5t24 46.5t23.5 46.5t13 27.5l1 10q1 10 1 16q0 31 -10 59.5t-10 61.5v19q2 10 8 30.5t10 24.5q4 6 17.5 19.5t19.5 17.5q4 4 24.5 10t30.5 8l166 19q4 0 20.5 3t35 6t35 6t20.5 3h10q12 0 25.5 1t25.5 1 h21h18q10 0 24.5 -1t24.5 -1h17q4 -4 10 -18.5t8 -18.5l19 -55v-16v-21q-2 -14 -5.5 -41t-6.5 -53.5t-5 -48t-2 -23.5q-2 -6 -8 -19.5t-10 -17.5q-6 -6 -24.5 -14t-35.5 -16q-10 -4 -15 -6.5t-24 -6.5q-27 -4 -62.5 -6t-41.5 -6q-4 0 -10 -7t-8 -11l-74 -148q0 -2 -5 -9 t-11.5 -16.5t-12.5 -18.5t-8 -11l-55 -74q-4 -4 -14.5 -20.5t-23 -35t-22.5 -34.5t-14 -20.5t-16.5 -16.5t-26.5 -27.5t-27.5 -29t-21.5 -19.5q-2 -2 -11.5 -9t-20.5 -15t-22.5 -16.5t-19.5 -14.5q-8 -8 -29.5 -22.5t-25.5 -14.5l-35 -17.5t-46.5 -23.5t-43 -21.5 t-23.5 -11.5t-16 -5t-27.5 -6t-29 -5t-19.5 -2h-59h-51q-4 0 -17.5 6t-29 12.5t-29 12.5t-17.5 6q-6 2 -27.5 4t-46 5t-46 5t-27.5 4l-10 9q-11 10 -23 22t-23.5 24.5t-17.5 18.5t-19.5 26.5t-17.5 28.5q-2 4 -8 24.5t-10 31.5q-4 16 -11.5 42.5t-7.5 30.5v17q0 16 -1 36.5 t-1 43.5v32z" />
<glyph unicode="'" horiz-adv-x="552" d="M119 1159q2 -4 8 -16.5t13 -24.5t12.5 -23.5t9.5 -15.5q6 -6 19.5 -23.5t17.5 -21.5q8 -4 25.5 -9t23.5 -9l151 69q4 2 14.5 13.5t12.5 17.5l18 49q2 8 4.5 22.5t-2.5 18.5l-43 101q0 2 -3 23.5t-3 35.5q4 10 3 27.5t1 33.5q4 23 5.5 49.5t5.5 34.5l22 134q2 8 3 22 t-1 19q0 12 -2 33.5t-4 25.5q-2 0 -8 16.5t-10 26.5t-11.5 24.5t-7.5 16.5q-4 4 -25.5 17.5t-31.5 17.5q-12 2 -42 3t-42 -1q-4 2 -24.5 -6.5t-30.5 -12.5q-10 -6 -25.5 -14t-17.5 -10q-4 -4 -11.5 -19.5t-15.5 -36t-13 -39t-8 -28.5q-4 -18 -6 -56t-4 -78t-2 -73t2 -41 q2 -14 21.5 -48t44 -72t45 -71.5t26.5 -48.5z" />
<glyph unicode="(" horiz-adv-x="792" d="M426 94q-6 0 -20.5 -1t-18.5 -1t-17.5 -7t-19.5 -11q-2 -2 -9 -10.5t-9 -8.5t-12.5 -1t-16.5 -1q-4 0 -14 1t-13 1q-12 6 -27.5 13.5t-23.5 17.5l-34.5 34.5t-24.5 26.5q-4 4 -18.5 26t-18.5 30q-4 6 -12 22.5t-17.5 33.5t-16.5 32.5t-9 21.5v9q0 23 10 34t10 33 q0 4 -1 11l-1 6q-2 4 -17.5 10t-19.5 8l-18 18q-4 10 -11.5 37t-7.5 37v10q0 10 -1 22.5t-1 22.5v21q0 16 1 43t1 29q0 4 7.5 17t11.5 19l55 74q4 4 10.5 18.5t8.5 18.5v8v10q-4 -2 -15.5 -1t-24 4.5t-22.5 7.5t-12 8l-1 9t-1 13t1 16.5t1 16.5q2 12 5 35t6 45.5t5 41.5 t2 26q0 2 5.5 18t11.5 35.5t12 36t8 20.5l19 74q4 10 10 30.5t8 24.5q6 16 20.5 45t29 58.5t26.5 52t16 29.5q4 8 25.5 27.5t29.5 27.5q4 4 28 11t28 7q4 2 11 8.5t7 10.5v12q0 12 -1 24.5t-1 24.5q0 10 2 12q2 6 14.5 18.5t27 28t28.5 27.5t22.5 18.5t29 16.5t44 21.5 t44 21.5t30.5 14q14 -4 18 -18q2 -2 7.5 -10.5t11.5 -17.5t11 -17t7 -10q4 -4 19.5 -9.5t17.5 -9.5q2 -6 5 -18.5t6 -27.5t5 -27.5t2 -18.5q2 0 8.5 -1t10.5 -1t11 1l7 1q6 4 19.5 17.5t17.5 19.5v-19v-18q-2 -8 -8 -28.5t-10 -26.5q-2 -4 -8.5 -9.5t-10.5 -9.5 q-6 -4 -19 -11t-18 -7q-6 0 -18 -1t-29 -1q-14 0 -26.5 1t-18.5 1q-2 -4 -8 -18.5t-10 -18.5l-129 -147q-4 -6 -18.5 -28t-18.5 -28l-111 -221q-8 -2 -28.5 -8t-26.5 -10q-10 -4 -23.5 -10.5t-13.5 -8.5q-2 -4 -8 -30.5t-10 -43.5v-10v-8q2 -4 8 -9t10 -9t18.5 -10.5 t18.5 -8.5q0 -10 -1 -39.5t-1 -62.5q0 -31 1 -60.5t1 -40.5q0 -10 2 -30.5t5 -41t6 -38t5 -19.5q2 -6 11.5 -24.5t22 -39t23.5 -38.5t17 -27q2 -4 14.5 -16t27 -27.5t28.5 -29t22 -19.5q2 -2 15.5 -8t21.5 -10q6 -4 27.5 -10.5t28.5 -8.5l92 -18q6 -2 19 -8t18 -11v-8v-10 l-19 -55v-10v-9l37 -37q4 -6 11 -19t7 -17t-7 -17.5t-11 -19.5q-6 -6 -17.5 -18.5t-23.5 -25t-23 -21.5l-10 -9q-23 -4 -61.5 -10t-65 -9.5t-30.5 -3.5v115l-11 1q-10 1 -14 1zM166 811v-18h18v18h-18z" />
<glyph unicode=")" horiz-adv-x="774" d="M111 37q0 4 -7.5 9t-11.5 9l-55 19q-4 2 -11.5 8t-7.5 10l-1 10q-1 11 -1 17q0 4 1 15t1 13q2 6 8.5 28t10.5 28t18.5 28.5t18.5 26.5t17 10t20 8q2 0 12 1.5t14 1.5q6 0 16.5 -1.5t12.5 -1.5q4 0 18.5 -9t18.5 -9q2 0 12 -1t14 -1t14.5 1t14.5 1q-6 2 -19.5 8t-17.5 10 l-2 9q0 2 1 6l1 4l55 55q4 4 15.5 20.5t23 35t21.5 34t14 21.5q6 12 19.5 37.5t29 55.5t27.5 55.5t16 35.5q2 2 9.5 23.5t16.5 48t17.5 53.5t12.5 41q2 6 5 17.5t6 23.5t5 21.5t2 11.5v14q0 12 1 30.5t1 37.5v28v27q0 18 -1 36.5t-1 31.5v16q0 6 -2 19.5t-5 28.5t-6 27.5 t-5 16.5q-4 10 -16.5 37t-28 56.5t-28.5 55t-19 35.5q6 6 19 27t17 29q2 4 -1 13t-3 11q-16 0 -51 -3t-65 -3h-27q-2 0 -13.5 2t-25.5 5t-28.5 6.5t-24.5 5.5q-16 4 -43 10t-31 8l-18 18q-4 6 -11.5 19.5t-7.5 17.5t9.5 27.5t9.5 28.5q0 2 1 12t1 14q0 6 -1 16.5t-1 12.5 l-19 55q0 2 -1 9.5t-1 11.5t1 10l1 6q0 2 7 8t12 10q6 4 19 11.5t17 7.5q2 0 29 1t43 1h19q12 0 24 -1t23 -1h10q10 0 36.5 -7t37.5 -12l110 -55q6 -4 28.5 -18.5t27.5 -18.5l92 -92q4 -4 18 -26.5t19 -28.5q37 -66 65.5 -137.5t28.5 -149.5q0 -10 -1 -26.5t-1 -18.5 q0 -4 -9.5 -18.5t-9.5 -18.5q0 -2 -1 -23.5t-1 -31.5t1 -31.5t1 -23.5q0 -4 7.5 -11.5t11.5 -7.5v-18q0 -12 1 -27.5t1 -28.5v-18v-25q0 -16 -1 -30.5t-1 -24.5v-12q0 -2 -3 -17.5t-8.5 -39t-7.5 -35.5q-4 -14 -9 -41t-10 -53.5t-10.5 -48t-7.5 -23.5q-2 -4 -4 -10.5 t-6 -18.5q-4 -20 -8 -27.5t-10 -25.5q-12 -27 -25.5 -59.5t-19.5 -43t-14.5 -29t-16.5 -35.5t-15.5 -30.5t-9.5 -15.5q-8 -8 -27.5 -29.5t-27.5 -25.5q-4 -4 -18 -4t-19 4q0 -10 -7 -38t-11 -36q-4 -6 -16.5 -18.5t-27 -28t-28.5 -27.5t-20 -18q-2 -2 -13.5 -7.5t-24 -11.5 t-23.5 -11t-13 -7t-10.5 -8t-17.5 -12.5t-17 -11.5t-10 -5q-4 0 -31 -1t-43 -1q-10 0 -37 1t-37 1q4 4 11.5 17.5t7.5 19.5z" />
<glyph unicode="*" horiz-adv-x="847" d="M258 963q-4 0 -27.5 -9.5t-27.5 -9.5t-21.5 -1t-27.5 -1t-25.5 1t-17.5 1q-4 2 -17.5 15.5t-19.5 21.5q-4 6 -11.5 19.5t-7.5 17.5q0 2 -1 18.5t-1 26.5t1 27.5t1 19.5q0 4 7.5 17.5t11.5 19.5q2 2 13 16.5t23.5 29.5t23.5 28.5t13 17.5q0 2 2.5 8t2.5 10t-2 11l-3 8 q-2 2 -13 10t-23.5 17.5t-23.5 17.5t-13 10q-23 20 -36 51t-20 60v8v10q2 4 8.5 9.5t10.5 9.5l92 55q2 2 10 8t17.5 12.5t17.5 11.5t10 5q2 2 13.5 4t23.5 5t23.5 5t13.5 4t5 15.5t5 29t4 29.5t4 18q2 6 10.5 14.5l17.5 17.5t16.5 15.5t11.5 8.5q2 0 24.5 1t32.5 1 q16 0 42 -1t30 -1t17.5 -7.5t19.5 -11.5q16 -10 24 -24.5t13 -30.5q4 -10 10 -37t8 -37h18h19q2 0 13 3t23.5 6.5t22.5 6.5t15 3q2 0 19 1t28 1q10 0 26.5 -1t18.5 -1q4 0 17 -7.5t20 -11.5q14 -4 18 -18l18 -37v-18v-19q-2 -10 -8 -38.5t-10 -35.5q0 -4 -15.5 -24.5 t-21.5 -30.5l-18 -18q-6 -4 -24.5 -14.5t-39 -23t-39 -23.5t-26.5 -13q6 -6 22.5 -21.5t33.5 -33t32.5 -34t21.5 -22.5q4 -4 11.5 -18t7.5 -19v-10q0 -10 1 -21.5t1 -23.5v-18q0 -10 -1 -37t-1 -37q-4 -14 -19 -18h-10h-8l-74 18q-2 0 -16.5 1t-22.5 1q-6 0 -19.5 -1 t-15.5 -1t-8 -7t-10 -11l-55 -111q-4 -14 -19 -18q-8 -4 -21.5 -11.5t-15.5 -7.5q-6 0 -21 2t-32.5 5t-34 6t-22.5 6q-4 0 -10.5 7t-8.5 11l-37 92q-2 4 -9 11.5t-9 7.5z" />
<glyph unicode="+" horiz-adv-x="847" d="M332 350v10q2 2 8 7.5t12 11.5t11.5 11t5.5 7t1 15.5t1 21.5q0 6 -1 20.5t-1 16.5t-5.5 10t-11.5 17.5t-12 17.5t-8 10t-7.5 13.5t-11.5 23.5t-11 23.5t-7 13.5t-21 2h-34q-18 0 -35 -1t-21 -1q-6 0 -25.5 2t-40 5t-39 6t-24.5 5q-4 4 -10 18.5t-8 18.5q-4 10 -11.5 38 t-7.5 36q0 2 -1 12.5t-1 14.5q0 6 1 16t1 12q0 4 7.5 24.5t11.5 31.5q4 6 10 20t8 17q4 4 17.5 10t19.5 8l111 18q12 2 35.5 7.5t39 8.5t17.5 3q0 2 15.5 30.5t21.5 43.5q4 6 10 26.5t8 28.5v8v10q0 2 -3 13.5t-6 23.5t-6 22.5t-3 14.5q0 6 4 23.5t10 38t12.5 40t10.5 27.5 q4 6 17 20.5t20 16.5q2 0 17 1t26 1q10 0 28.5 -1t20.5 -1q6 -2 19 -8t18 -11q6 -6 15 -22t18.5 -34.5t15.5 -34t6 -19.5q2 -12 0 -45t-6 -70t-8.5 -69.5t-4.5 -47.5h222q6 0 19 -17t17 -28q0 -2 1 -16t1 -25q0 -10 -1 -28.5t-1 -22.5q0 -6 -2 -19.5t-5 -28.5t-6 -28.5 t-5 -15.5q0 -2 -7 -8t-11 -10q-6 -4 -19.5 -11.5t-17.5 -7.5h-15h-22h-25h-12q-10 0 -37 -2t-56.5 -5t-55 -6t-35.5 -5l55 -56q2 -2 8 -23.5t10 -31.5q4 -16 11.5 -42.5t7.5 -31.5v-12q0 -12 1 -26.5t1 -30.5v-25v-24q0 -16 -1 -29.5t-1 -24.5v-12q0 -6 -7.5 -19.5 t-11.5 -17.5h-73h-74q-6 0 -27.5 7.5t-27.5 11.5q-2 2 -9.5 8t-9.5 10q-4 4 -10 18.5t-8 18.5v8z" />
<glyph unicode="," horiz-adv-x="479" d="M16 -246q0 10 1 27.5t1 19.5t7.5 15.5t11.5 21.5q4 6 17.5 26.5t19.5 29.5q2 2 10 12t17.5 22.5t17.5 23.5t10 15t7 23.5t11.5 43t11.5 46t7 35.5q0 4 2 25.5t5 47t6 47t5 27.5q0 4 7.5 17.5t11.5 19.5q4 14 18 18q6 4 19.5 11.5t17.5 7.5q2 0 23.5 1t31.5 1t32 -1t24 -1 q4 0 17 -7t20 -12q14 -4 18 -18q4 -4 10 -18.5t8 -18.5q0 -4 2 -15t5.5 -25.5t6.5 -29t5 -22.5v-10v-8q0 -6 -3 -22.5t-6 -34t-6.5 -33t-3.5 -21.5q-4 -16 -10 -43t-8 -31q-8 -14 -26.5 -51t-38 -78t-38 -77.5t-26.5 -51.5q-4 -14 -19 -18q-2 0 -8 -1t-10 -1t-11 1l-7 1 q-4 2 -18.5 18.5t-18.5 18.5q-2 0 -13.5 2t-15.5 2t-14 -2t-13 -2q-4 -2 -15 -12.5t-23.5 -24t-22.5 -24.5t-12 -13h-11h-8q-2 2 -9 8t-9 10q-4 6 -11.5 19.5t-7.5 17.5q0 2 -1 18.5t-1 26.5z" />
<glyph unicode="-" horiz-adv-x="792" d="M16 713q0 6 1 16t1 12q2 10 8.5 31t10.5 25q2 2 9 11t16.5 18.5t17.5 16.5t12 9q2 0 8 1t11 1q4 0 10 -1t8 -1l55 -55q4 -4 17.5 -10.5t19.5 -8.5h8h11q14 4 18 19q2 4 1 18t-1 19q12 43 55 55q12 2 41 8t58.5 12t54.5 11.5t31 5.5h14q12 0 28.5 1t32.5 1h25h20 q16 0 31 -1t31 -1h20q4 -2 18.5 -8.5t18.5 -10.5t11.5 -10t7.5 -8q2 -4 5 -18.5t6 -33t5 -35t2 -24.5q0 -2 1 -13t1 -15q0 -6 -1 -16l-1 -11q0 -2 -7 -8t-11 -10.5t-18.5 -10.5t-18.5 -8q-20 -6 -72.5 -16.5t-112 -22.5t-111.5 -22.5t-73 -12.5q-2 0 -12 -1t-16 -1 q-4 0 -14.5 1t-12.5 1l-55 19h-11h-8q-10 -4 -30.5 -9.5t-24.5 -9.5l-55 -37h-11h-8q-4 2 -12 9.5t-17.5 16.5t-16.5 17.5t-9 12.5q-4 4 -10.5 24.5t-8.5 30.5q0 2 -1 12.5t-1 14.5z" />
<glyph unicode="." horiz-adv-x="350" d="M16 147v19q0 12 1 23.5t1 21.5v10q0 4 7.5 17.5t11.5 19.5t18.5 19.5t18.5 17.5q8 6 24.5 14t34 17.5t32.5 15.5t19 8q2 0 16.5 2t22.5 2q6 0 19.5 -2t15.5 -2t9 -7l16.5 -16.5t17.5 -18.5t12 -13t11.5 -18.5t7.5 -18.5q0 -2 1 -26.5t1 -38.5q0 -12 -1 -37t-1 -27 q0 -4 -7.5 -18.5t-11.5 -18.5l-15 -15t-22.5 -23.5t-21.5 -23t-14 -12.5q-4 -4 -24.5 -10t-31.5 -8h-47h-45q-4 0 -17.5 7t-19.5 11q-14 4 -18 19q-4 6 -11.5 19.5t-7.5 17.5v8q0 10 -1 22.5t-1 22.5v20z" />
<glyph unicode="/" horiz-adv-x="995" d="M18 111q0 4 9.5 27.5t9.5 27.5v8v10q0 2 -3 13.5t-6 23.5t-6.5 22.5t-3.5 14.5q0 2 -1 18.5t-1 26.5t1 27.5t1 19.5t2.5 12.5t5.5 22.5t6 23.5t5 15.5q2 6 9 20.5t9 16.5q4 4 18.5 11t18.5 7q-14 4 -18 19l-1 7t-1 11t1 10t1 9q2 2 9 19t15 37.5t17.5 41t13.5 31.5 q8 14 19.5 38.5t22.5 47t20.5 41t11.5 20.5q6 6 20.5 22.5t31.5 34t33.5 32.5t24.5 22q-4 12 -4 36q0 25 4 37q0 2 9.5 17.5t21.5 37t24.5 42t18.5 32.5q6 6 18.5 26.5t28 44.5t27.5 45.5t18 31.5l111 166l55 73l37 56q6 8 19.5 27.5t25.5 31.5q8 12 15.5 19.5l13.5 13.5 q6 2 18 7t27.5 11t28 11.5t18.5 7.5q2 0 8 1t10 1t10.5 -1t8.5 -1q4 -2 18.5 -8.5t18.5 -10.5l36 -37q4 -6 11.5 -19t7.5 -17t1 -31t1 -39t-1 -34.5t-1 -24.5t-9.5 -17.5t-21.5 -37t-24.5 -42t-18.5 -32.5q-16 -23 -36.5 -29t-37.5 -27l-18 -37l-184 -276q-4 -6 -17.5 -18.5 t-27.5 -26.5q-6 -6 -18.5 -14.5t-28.5 -14.5q-2 0 -13.5 -2t-25 -5t-23.5 -6t-12 -5q-4 -2 -11.5 -8.5t-7.5 -10.5v-221q0 -4 -7 -17.5t-11 -19.5q-4 -14 -18 -18q-4 -2 -19.5 -8.5t-17.5 -10.5v-14v-22v-25v-12q-2 -8 -8.5 -28.5t-10.5 -27.5q0 -2 -6 -7t-12 -11t-12.5 -11 t-6.5 -7q-2 -4 -4 -20.5t-5 -36t-5 -36t-4 -18.5q0 -4 -6 -14.5t-12.5 -22.5t-12.5 -23.5t-6 -13.5q-2 -10 -3 -36.5t-1 -55.5t1 -55.5t3 -36.5q-4 -14 -18 -19q-6 -4 -19.5 -11t-17.5 -7h-51h-41l-11 9q-10 9 -22 21.5t-23.5 25t-17.5 18.5q-4 6 -11.5 19.5t-7.5 17.5z" />
<glyph unicode="0" horiz-adv-x="1492" d="M166 166q-4 -4 -19 -4q-14 0 -18 4t-9 27.5t-9 27.5q-2 4 -17.5 18.5t-19.5 18.5q-6 10 -19.5 37t-17.5 37q-2 6 -5 18t-6 27.5t-5.5 28t-2.5 18.5v18q0 16 -1 38t-1 44v37v35q0 23 1 45.5t1 38.5v20q0 4 2.5 20.5t5.5 37l6 41t5 30.5q10 57 30.5 113.5t43.5 108.5 q6 12 20 42.5t25 49.5q4 6 6 11t4 7q2 4 17.5 18.5t19.5 18.5l37 74q4 6 11 16t16 21.5t16.5 21.5t11.5 14.5t18.5 16.5t31.5 27.5t33.5 29t27.5 19.5q6 4 19 11t17 7t16.5 -1t26 -3t26.5 -3t19 -1q0 4 3.5 13t1.5 14l-19 18l-2 8q0 2 1 5t1 5q6 2 21.5 11.5t33 18.5 t34 16.5t22.5 9.5q2 2 17 5t32.5 6t35 5t25.5 2h37h37q6 0 40 -7t52 -11q29 -8 65 -17.5t64 -19.5q4 -2 18.5 -8t18.5 -11q14 -10 41 -27.5t53.5 -35.5t47 -31.5t24.5 -15.5q6 -4 18.5 -16.5t27.5 -28t27.5 -28.5t18.5 -19q2 -4 12.5 -19.5t20.5 -32.5q23 -31 33 -46t26 -50 q14 -29 18.5 -38t8.5 -27q10 -23 19.5 -50.5t9.5 -31.5v-17q0 -12 1 -31.5t1 -39.5v-33v-35q0 -23 -1 -44t-1 -40v-18q0 -4 -2.5 -15.5t-5.5 -26t-6 -28.5t-5 -22l-18 -56l-37 -92q-4 -6 -12.5 -22.5t-17.5 -34t-16 -32.5t-9 -21q-4 -8 -18.5 -30t-18.5 -26l-21.5 -21.5 t-33 -34t-34 -34.5t-22.5 -20q-4 -4 -14 -11.5t-21.5 -16.5t-22 -16.5t-16.5 -11.5l-92 -55q-4 -4 -18.5 -10t-18.5 -8l-55 -19l-37 -18q-6 -4 -21.5 -10.5t-30.5 -12.5t-26.5 -10t-13.5 -4q-10 -4 -33.5 -10.5t-47 -12.5t-43 -10t-23.5 -4h-15h-61h-27h-33h-69h-17 q-6 0 -21 2t-32.5 5t-33 6t-23.5 5q-6 2 -19.5 8.5t-17.5 10.5zM322 406h10l55 -37q10 -4 30.5 -11.5t24.5 -7.5h17q16 0 35.5 -1t42.5 -1h34h33q23 0 42.5 1t35.5 1h18q10 0 37 7.5t37 11.5q16 6 45 20t58.5 28.5t52 27t28.5 16.5q6 2 27 23.5t46.5 47t51 52t41.5 43.5 q4 4 16.5 24.5t20.5 30.5l37 74q4 10 11.5 30.5t7.5 24.5q0 2 2 26.5t5 57.5t6 65.5t5 53.5v10v8q-4 4 -18.5 10.5t-18.5 8.5l-147 147q-2 2 -11.5 7t-21.5 11.5t-23.5 11.5t-17.5 7q-10 4 -37 10t-37 8q-2 0 -13 1t-16 1q-6 0 -15 -1t-11 -1q-10 -2 -33.5 -10t-50.5 -17 t-50.5 -17.5t-31.5 -10.5q-4 2 -16.5 8t-27.5 12.5t-28.5 11.5t-19.5 5q-4 0 -24.5 -13.5t-30.5 -23.5q-4 -4 -17.5 -18.5t-29 -29.5t-29 -28.5t-17.5 -15.5q-4 -4 -27.5 -11.5t-27.5 -7.5q-18 -8 -20 -26.5t-13 -52.5q-2 -10 -4 -12.5t-10 -6.5q-10 -4 -26.5 -8t-18.5 -4 q-14 -4 -19 -19v-10v-8l19 -37v-10v-8l-37 -111q-2 -6 -5 -17.5t-6 -23.5t-5 -21.5t-2 -11.5t-1 -23.5t-1 -31.5t1 -31.5t1 -23.5q0 -4 3 -14.5t6 -22.5t6 -23.5t3 -13.5v-20v-35v-35v-20q0 -4 7 -11.5t11 -7.5t18.5 8t18.5 11h9z" />
<glyph unicode="1" horiz-adv-x="460" d="M90 406v26q0 18 1 36.5t1 31.5v16q0 12 2 37t5 52.5t6.5 49t5.5 27.5q4 10 16 38t20 36v387q-10 2 -36.5 8t-36.5 10q-4 2 -18.5 8.5t-18.5 10.5t-11.5 10t-7.5 8t-1 24.5t-1 32.5t1 31t1 23t4.5 12t10.5 22.5t12 23.5t10 15q6 8 23.5 30t38 44.5t40 44t27.5 29.5 q6 6 19.5 17.5t29 23.5t27.5 21.5t16 11.5l10 1q11 1 15 1t16.5 -1t14.5 -1q6 0 26.5 -5.5t32.5 -9.5q23 -2 33 -22q4 -10 10 -37t8 -37q0 -2 1 -19.5t1 -27.5t-1 -26.5t-1 -18.5q0 -4 -9 -27.5t-9 -27.5q-2 -8 -5 -24.5t-6 -34t-5 -33t-2 -19.5v-21v-34v-35v-21 q0 -8 -5.5 -40.5t-11.5 -70.5t-12 -70t-8 -40q0 -4 -2 -23.5t-5.5 -41t-6.5 -41t-5 -23.5q0 -4 -9 -18.5t-9 -18.5v-24q0 -104 9 -207t9 -207v-23q0 -2 -5 -7l-11 -11t-12.5 -11t-8.5 -7l-1 -4q-1 -5 -1 -7l2 -8l74 -147v-11v-8q-4 -16 -12 -30.5t-25 -24.5h-16h-49h-19h-20 h-51h-11q-4 0 -18 7t-19 11q-4 2 -9 15.5t-9 21.5q-4 10 -10 37t-8 37t-5.5 34.5t-6.5 51.5t-5 49.5t-2 30.5v14q0 16 -1 33.5t-1 34.5v29z" />
<glyph unicode="2" d="M18 240q0 2 2.5 16t5.5 31.5l6 35t5 27.5q16 66 53 119t76 102q8 10 22.5 27.5t28.5 35t25.5 31t15.5 17.5l295 295q2 2 14.5 12t26.5 21.5t28.5 22.5t22.5 18l55 36l203 203q4 4 10.5 18.5t8.5 18.5v8v11q-4 6 -17.5 19t-19.5 17h-17q-10 0 -24.5 1t-24.5 1h-18h-21 q-12 0 -25.5 -1t-25.5 -1h-10q-4 0 -23.5 -3t-41 -6t-41 -6t-23.5 -3h-21h-16l-111 37l-3 1t-7 1q-2 0 -5 -1l-3 -1q-4 -4 -18.5 -26.5t-18.5 -28.5q0 -4 -7 -28t-11 -28q-2 -4 -10.5 -14t-17.5 -22.5t-17.5 -22.5t-10.5 -14.5t-5 -17.5t-6 -28.5t-5 -30t-2 -16.5 q-2 -6 -8 -19t-11 -18q-2 -4 -16 -9t-20 -9h-11h-8q-4 2 -14 8t-22.5 12.5t-23.5 11.5t-14 5q-2 2 -18 2t-18 -2q-4 6 -12.5 21.5t-17.5 33t-16.5 33.5t-9.5 23q0 2 -1 12t-1 14q0 6 1 16.5t1 12.5t5.5 10t11.5 17.5t12 17.5t8 10q2 6 16.5 34t30 58.5t28.5 58t17 33.5 l74 74l37 19q8 2 24.5 7t34 11t32.5 11t19.5 7t17.5 5.5t28.5 6.5t29 5t17.5 2h37l73 18q6 2 25.5 4t43 5.5t46 5.5t33.5 4h22h15q4 0 18 -17.5t18 -19.5l3 -1q2 -1 6 -1q2 0 6 1l4 1l92 37h8h10q8 -2 25.5 -5t36 -6.5t32 -5.5t17.5 -2q4 -2 18.5 -8t18.5 -10t18.5 -17.5 t18.5 -19.5l37 -55l37 -37l18 -37q4 -10 11 -31.5t7 -23.5t1 -27t1 -39q0 -12 -1 -35.5t-1 -27.5q0 -8 -7 -35t-11 -39q-2 -4 -8 -18.5t-10 -18.5l-74 -92l-56 -74q-2 -4 -8 -9t-10 -9l-92 -74l-166 -147l-37 -19l-37 -37l-258 -276v-15q4 0 18.5 -3t18.5 -1l166 37 q10 2 24.5 5t29 6.5t25.5 5.5t13 2q8 0 49 2t91.5 5t99.5 6t73 5h41h33q10 -2 30.5 -8t25 -10t10.5 -17.5t8 -19.5q0 -2 1 -23.5t1 -31.5t-1 -32t-1 -24q-2 -4 -4 -12t-6 -19q-4 -23 -7.5 -25.5t-13.5 -12.5q-14 -14 -33.5 -33t-27.5 -27q-4 -4 -18.5 -10t-18.5 -8 q-16 0 -58 -2t-89.5 -5t-89.5 -6.5t-58 -5.5q-6 0 -25.5 -2t-40 -5t-39 -6t-24.5 -5l-55 -19q-78 -23 -157 -37t-157 -36q-8 -2 -22.5 -7.5t-28.5 -11.5t-26.5 -11t-14.5 -7q-2 0 -7 -6t-11 -12.5t-11.5 -12.5t-7.5 -6h-16h-21q-10 2 -30.5 8t-24.5 10.5t-18.5 17.5 t-18.5 19q-4 4 -10 18.5t-8 18.5q-2 10 -5 31.5t-6 45.5t-5.5 44.5t-2.5 26.5z" />
<glyph unicode="3" d="M18 174v10q4 16 12.5 30.5t24.5 25.5q4 2 18.5 8t18.5 10l2 8q0 2 -1 6l-1 4l-37 37q-4 6 -11 20.5t-7 16.5q2 6 15.5 19.5t21.5 17.5q2 0 11 1t15 1q4 0 15.5 -1t13.5 -1t16.5 -5t29.5 -11t28.5 -12.5t17.5 -8.5q10 -4 28.5 -10t36 -12t31 -10.5t15.5 -4.5t22.5 -1 t30.5 -1t31.5 1t25.5 1l148 37q35 10 65.5 21.5t63.5 34.5q8 6 25.5 16t36 22.5t31.5 21.5t17 13l129 129v8v11q-2 6 -4 17t-6 26q-6 29 -8 32t-10 9q-10 12 -24.5 25.5t-20.5 19.5l-7 1q-6 1 -10 1t-11 -1t-9 -1q-4 -2 -18.5 -8.5t-18.5 -10.5h-405q-4 0 -18.5 7.5 t-18.5 11.5t-11.5 18t-7.5 19v202q0 4 7.5 16.5t11.5 20.5q4 14 18 19l184 92q35 18 88.5 46t103.5 54.5t86 46.5l36 19v18l-9 2l-20 5t-24.5 6t-20.5 6q-10 2 -32.5 5t-49.5 6t-50.5 5t-33.5 2h-14h-23h-24h-13q-4 0 -18 8t-18 10h-11h-8q-2 -2 -10 -8t-17.5 -12t-17.5 -11 t-10 -5q-4 -2 -20.5 -7.5t-36 -11.5t-36 -11t-18.5 -7t-9 -9.5t-16.5 -15.5t-18.5 -17.5t-11 -13.5l-19 -36q-4 -14 -18 -19q-6 -4 -19.5 -11t-17.5 -7q-2 0 -12 -1t-16 -1q-4 0 -14.5 1t-12.5 1q-4 2 -18.5 8t-18.5 10l-37 37q-2 10 -5 39t-6 61.5t-5 61t-2 41.5 q0 4 -1 22.5t-1 28.5t1 25l1 16q0 2 7 8t11 10q10 6 30.5 21.5t24.5 15.5q6 2 21.5 7t34 11.5t35 11.5t20.5 7q6 2 26.5 5t44 6t45 5t32.5 2h20q16 0 36.5 1t43.5 1h33h22q16 0 29.5 -1t25.5 -1h11l37 -36q2 0 25.5 -2.5t35.5 -2.5q6 0 20.5 1.5t26.5 1.5q16 0 26.5 1 t12.5 1q4 0 18.5 8t18.5 10h18q2 0 13.5 3t23.5 6t22.5 6t14.5 3q6 0 28.5 -2t48 -5t51.5 -6t38 -5q10 -2 30.5 -8t24.5 -10.5t18.5 -17.5t18.5 -19q4 -4 10 -18.5t9 -18.5q2 -6 5 -22.5t6 -34t5 -33t2 -21.5v-14q0 -10 1 -25.5t1 -31.5v-25v-25q0 -14 -1 -27.5t-1 -25.5 v-10q0 -4 -7 -18.5t-11.5 -18.5t-15.5 -15.5t-22.5 -23.5t-21.5 -22.5t-14 -12.5l-148 -92q-14 -4 -18 -18q8 -4 26.5 -14.5t39 -22.5t39 -23.5t24.5 -13.5q10 -8 31.5 -21.5t23.5 -15.5q2 -4 7.5 -16.5t11.5 -26.5t11 -27.5t7 -21.5q2 -6 4 -27.5t5 -46t5 -46t5 -27.5 q0 -4 6 -14.5t12 -23t12 -23.5t6 -13q0 -4 -9 -27.5t-9 -27.5v-15v-22v-25v-12q-2 -6 -8 -19.5t-10 -17.5q-2 -2 -10.5 -5t-17.5 -5t-17.5 -4t-10.5 -4q-4 -4 -9 -28t-9 -28q-6 -8 -27.5 -28.5t-28.5 -26.5l19 -19q-4 -4 -14.5 -15t-21.5 -23.5t-22.5 -22.5t-15.5 -12 q-6 -4 -27.5 -16.5t-48 -27t-52 -27.5t-38.5 -21q-2 -2 -13 -7.5t-26.5 -11.5t-31 -11t-21.5 -7q-8 -4 -28.5 -10.5t-26.5 -8.5q-10 -4 -32.5 -10t-47.5 -12t-44.5 -10.5t-23.5 -4.5q-10 -2 -29.5 -5l-39 -6t-36.5 -5t-24 -2h-16h-68h-28h-29h-65h-15q-4 0 -16 2t-27.5 5 t-29 6t-19.5 5q-4 2 -18.5 8.5t-18.5 10.5q-14 4 -18 18q-4 4 -12.5 20.5t-17.5 35t-16.5 34t-9.5 21.5v8z" />
<glyph unicode="4" horiz-adv-x="1253" d="M848 698q-4 0 -9 1t-10 1q-6 -2 -21 -5t-30.5 -6t-27 -5t-13.5 -2q-10 -4 -51 -18.5t-87 -30t-87 -28.5t-51 -15q-6 -4 -37 -7t-53 -8q-20 -4 -21 -4q-4 -2 -18.5 -18t-18.5 -18q-2 0 -17 -1.5t-26 -1.5q-10 0 -28.5 1.5t-20.5 1.5t-16.5 7t-20.5 11l-55 37q-6 4 -29 26 q-23 20 -27.5 27.5t-19.5 28.5q-6 10 -10 17t-6 11q-4 6 -11.5 28t-7.5 28v8q0 10 -1 22.5t-1 22.5v20q0 16 1 43t1 31q2 10 8.5 39t10.5 35q2 4 13 17.5t24.5 28.5t24 28.5t12.5 17.5q4 4 11 27.5t7 27.5t14.5 24.5t22.5 31.5q2 2 10 13t17.5 23.5t17.5 23.5t10 13 q4 6 14.5 31t22.5 53.5t22.5 52t14.5 29.5q6 14 21.5 43t15.5 31q2 2 13 4t23.5 5t23.5 5t13.5 4t10.5 15.5t17 29t17.5 29.5t10.5 19q6 10 19.5 23t17.5 13q2 0 23.5 -7t31.5 -11q6 -4 20.5 -10t16.5 -8q4 -4 10 -17.5t8 -19.5q0 -2 1 -8.5t1 -10.5t-1 -11l-1 -7 q-4 -6 -12 -21.5t-16.5 -34t-16.5 -34t-10 -21.5q4 -4 10 -18.5t8 -18.5q0 -2 1 -12t1 -16q0 -4 -1 -13.5t-1 -13.5q-10 -16 -33.5 -55t-50 -83t-50 -83t-31.5 -55q-16 -29 -31 -62t-25 -67q6 0 23.5 -1t21.5 -1q10 0 27.5 1t19.5 1q4 0 23.5 5t41 11t41 12t23.5 8l74 19 q12 2 41 9t61.5 16.5t61.5 17.5t39 12q6 4 19.5 17.5t17.5 19.5q2 2 5 13.5t6 23.5t5 22.5t2 14.5t1 25.5t1 31.5t-1 30.5t-1 22.5q0 4 -6 25.5t-12 46.5t-12.5 47.5t-6.5 28.5q0 4 -1 30.5t-1 38.5t1 35t1 25q2 6 23.5 26.5t32.5 28.5q4 4 24.5 10.5t30.5 8.5q2 0 12 1 t15 1q6 0 16 -1t12 -1q10 -2 30.5 -8.5t25 -10.5t10.5 -17.5t8 -19.5v-14v-23v-24v-12q0 -4 9 -18.5t9 -18.5q0 -2 1 -18.5t1 -26.5t-1 -27.5t-1 -19.5l-18 -93v-18v-18l18 -56q0 -4 2 -17.5t5.5 -29.5t6.5 -29.5t5 -15.5q2 -4 13 -14.5t23.5 -22.5t23.5 -23.5t13.5 -13.5 t3.5 -13t1 -15t-1 -14.5t-3 -12.5q-4 -4 -28 -9t-28 -9q-8 -8 3 -18l10 -11h65l-1 -11q-1 -10 -3 -16q-8 -16 -13 -28.5t-20 -22.5q-10 -10 -23.5 -22.5t-23.5 -22.5t-12 -14t-8 -17q-8 -18 -16.5 -43.5t-12.5 -31.5q-2 -4 -10.5 -12.5l-17.5 -17.5t-17 -16.5t-10 -9.5 q6 -6 13 -21.5t17 -33.5q16 -31 21.5 -44t5.5 -46q0 -27 -1 -57.5t-1 -59.5v-33q0 -4 9 -27.5t9 -27.5l19 -92q0 -2 1 -16.5t1 -22.5q0 -6 -1 -19.5t-1 -15.5q-2 -8 -8.5 -28.5t-10.5 -26.5t-17 -19.5t-20 -17.5h-73h-21h-45h-8q-4 0 -17.5 7t-19.5 11l-37 37q-4 6 -11 19.5 t-7 17.5v606zM1087 848v-19h19zM498 1438l18 -19v19h-18z" />
<glyph unicode="5" horiz-adv-x="1234" d="M313 76q-4 0 -10 -1t-8 -1l-92 -56q-2 0 -12.5 -1t-16.5 -1q-4 0 -14 1t-13 1q-8 0 -35.5 15.5t-37.5 21.5q-8 4 -21.5 18.5t-15.5 18.5l-1 6t-1 11q0 35 20.5 65.5t20.5 67.5q0 4 -1 10l-1 6q-2 2 -10.5 10t-17.5 17.5t-17.5 16.5t-10.5 11l-1 11q-1 10 -1 16 q0 4 1 15.5t1 13.5q2 4 8.5 11t10.5 7q2 0 25.5 1t33.5 1t29.5 -1t21.5 -1q4 0 18.5 -17.5t18.5 -19.5l56 -37q6 -4 20 -11t16 -7t21.5 -1t30.5 -1q10 0 32.5 1t26.5 1q6 0 23.5 2t38 5t39 6t28.5 5q2 0 13.5 3t23.5 6.5t22.5 6.5t14.5 3h16h29h29h18q4 0 17.5 7t19.5 11 l18 19l56 73l73 74q6 6 18.5 21.5l25 31t21.5 26.5t9 13t1 14.5t1 18.5q0 10 -1 24.5t-1 16.5q-6 4 -12 13.5t-25 13.5q-8 4 -11 6t-7 4q-6 4 -27.5 9t-28.5 9q-10 4 -36.5 10.5t-36.5 8.5l-185 37q-6 2 -19 8t-17.5 10t-9.5 18.5t-9 18.5l-3 1q-3 1 -7 1l-8 -2 q-4 -2 -14.5 -8t-22.5 -12.5t-23.5 -11.5t-13.5 -5q-4 -2 -17.5 -5t-29 -6t-28.5 -5t-17 -2h-13q-12 0 -25 -1t-30 -1h-24h-19q-12 0 -27.5 1t-27.5 1h-19q-14 4 -18 18q-2 4 -8 19.5t-10 17.5h-11h-18h-19h-8q-6 4 -19 17.5t-18 19.5q0 6 -1 31.5t-1 31.5q0 14 1 38t1 28 q0 2 3.5 13t6.5 23.5t6 22.5t3 14l18 93q2 6 8.5 26.5t10.5 28.5l18 37l2 8q0 4 -1 7l-1 3l-37 37q-4 6 -11 19.5t-7 17.5q4 10 12 26.5t19 24.5l34.5 34.5t26.5 25.5q2 2 15.5 8t21.5 10l55 18q6 2 21.5 5.5t33 6.5t34 5t22.5 2h20h17l55 -19h8h10q8 2 25.5 5.5t35 6.5 t32 5t18.5 2l55 18q2 0 12.5 1t14.5 1q6 0 16.5 -1t12.5 -1l55 -18h8h10q4 2 18.5 8t18.5 10h25q16 0 38.5 1t39.5 1h26h33q23 0 42 -1t36 -1h18q6 0 27.5 -7t27.5 -11l18.5 -18.5t24.5 -26.5q10 -4 18.5 -19.5t12.5 -27.5q0 -2 1 -15.5t1 -19.5q0 -8 -1 -22.5t-1 -16.5 q-2 -10 -8 -37t-10 -37l-9.5 -19t-10.5 -22.5t-10 -20.5t-7 -11q-4 -4 -26.5 -11.5t-28.5 -7.5q-10 0 -34 4t-50.5 10.5t-50 12.5t-31.5 10h-461q-4 0 -24.5 -7t-30.5 -11q-14 -4 -19 -19q-2 -4 -9 -24.5t-9 -30.5v-10v-9q4 -14 18 -18q23 0 78 -2t116.5 -5t116 -6t76.5 -6 q10 0 39 -5t60.5 -11t61.5 -12t42 -8q2 0 13.5 -5.5t25.5 -11.5t29.5 -12t23.5 -8l37 -19l18 -18q2 -4 5.5 -14.5t6.5 -22.5t5 -23.5t2 -13.5l18 -37q0 -4 7.5 -27.5t11.5 -27.5q2 -4 17.5 -10t19.5 -8l37 -37v-27q0 -16 1 -37.5t1 -38.5v-26v-33q0 -23 -1 -43.5t-1 -36.5 v-16q0 -8 -7.5 -35t-11.5 -39l-18 -37l-37 -55q-6 -8 -27.5 -28.5t-28.5 -27.5l-55 -36q-4 -4 -20.5 -18.5t-35 -30t-34.5 -28.5t-20 -16q-6 -4 -25.5 -14t-43.5 -22.5t-46.5 -23.5t-32.5 -13q-10 -4 -32.5 -12.5t-49 -17.5t-50.5 -16.5t-34 -9.5q-4 -2 -19.5 -5t-32.5 -6 t-33.5 -5t-24.5 -2h-41h-33q-4 0 -24.5 14.5t-30.5 22.5q-4 2 -18.5 19.5t-18.5 17.5l-8 1q-7 1 -11 1z" />
<glyph unicode="6" horiz-adv-x="1290" d="M276 37q-4 2 -18 -7.5t-18 -11.5h-11h-8q-10 4 -36.5 17.5t-37.5 19.5l-18 19q-6 6 -19.5 27.5t-17.5 27.5q-10 14 -23.5 42t-13.5 32v26v45v48v28q0 4 -9 27.5t-9 28.5q-4 16 -11.5 49.5t-7.5 42.5q0 4 -1 27.5t-1 35.5q0 8 1 32.5t1 33.5q0 4 7.5 11t11.5 7t18.5 -8 t18.5 -10l55 -19q4 -2 15.5 1t15.5 3q0 2 4 6.5t2 8.5l-55 73l-37 37q-4 4 -10.5 18.5t-8.5 18.5q0 2 -1 12.5t-1 14.5t1 15t1 13q2 2 8 27q6 23 9.5 29t13.5 26q16 29 34.5 68t26.5 53q4 6 11.5 19.5t16.5 29t16.5 27.5t11.5 16q8 12 24.5 35t35 45.5t32.5 42t18 25.5 l166 166q4 4 14.5 12t22.5 17.5t22.5 16.5t14.5 9q8 6 34.5 18.5t56.5 27.5t56.5 27.5t36.5 18.5q6 2 23.5 8t36 12.5t33 11.5t18.5 5q2 0 15.5 -7t21.5 -11q14 -4 18 -19q6 0 24.5 1t39.5 1q23 0 40 -1t25 -1q4 0 18.5 -7t18.5 -11q12 -12 33.5 -31.5t21.5 -24.5v-221 l-37 -37q-16 2 -52 4.5t-77 2.5t-76.5 -2.5t-52.5 -4.5q-8 -2 -28.5 -11t-44 -20.5t-44 -22.5t-30.5 -19.5t-31.5 -29t-44 -43t-43 -44t-28.5 -31.5q23 0 78 -2t116.5 -5t115.5 -6t77 -5q4 0 26.5 -4t42.5 -9q10 -2 23 -6q6 -2 27.5 -8t27.5 -10q10 -6 28.5 -14.5t36 -17.5 t31 -15t15.5 -8t4 -13.5t5 -24t5 -23.5t4 -13q6 -6 26.5 -13.5t28.5 -5.5q2 -8 5.5 -31.5t6.5 -50t5 -51t2 -32.5v-39v-35q0 -6 -2 -21.5t-5 -31t-6.5 -26.5t-5.5 -13q-2 -4 -10 -15.5t-17 -24t-17.5 -22.5t-10.5 -12q-4 -4 -11 -27.5t-7 -27.5q-4 -6 -17.5 -28t-19.5 -28 l-37 -37q-8 -8 -29.5 -22t-25.5 -14q-4 -2 -14.5 -5.5t-23 -6.5t-23.5 -5t-13 -2l-55 -18q-8 -4 -19.5 -9.5t-23 -10.5t-20.5 -10t-11 -7t-7 -10.5t-11.5 -17.5t-11.5 -17t-7 -10q-4 -4 -17.5 -10.5t-19.5 -8.5q-4 0 -17.5 -2t-28.5 -5t-29.5 -6t-16.5 -5q-4 0 -24.5 -15.5 t-30.5 -21.5l-19 -19q-8 -4 -21.5 -11t-15.5 -7h-258q-2 6 -16.5 20.5t-20.5 16.5zM258 498q0 -2 7 -23.5t11 -32.5l19 -36q4 -6 18.5 -19.5t18.5 -17.5q8 -6 24.5 -14.5t34 -17.5t32.5 -15.5t19 -8.5q2 0 15.5 -1t21.5 -1q6 0 20.5 1t16.5 1t13.5 5.5t23.5 11.5t22.5 12 t14.5 8l110 37q10 2 30 10.5t41.5 17.5t37.5 17l20 10q6 2 21.5 12.5t34 22.5t35 23.5t20.5 15.5q6 6 17.5 16.5t23.5 22.5l21.5 21.5t11.5 13.5q0 2 2 12t2 14t-2 15.5t-2 13.5q-2 4 -16.5 17.5t-20.5 19.5q-4 4 -18.5 10t-18.5 8q-8 2 -24.5 5.5t-34 6.5t-31.5 5t-21 2 h-26q-23 0 -52.5 1t-58.5 1h-47h-37q-27 0 -55.5 -1t-54.5 -1h-37q-4 -4 -18.5 -10.5t-18.5 -8.5l-55 -18q-16 -6 -30.5 -13t-25.5 -24q-8 -10 -20 -37.5t-17 -36.5q-2 -6 -5 -16t-6 -22.5t-5 -22.5t-2 -12z" />
<glyph unicode="7" horiz-adv-x="1290" d="M481 39q-4 0 -11 -1t-9 -1q-4 0 -27.5 -9.5t-27.5 -9.5t-18.5 7.5t-18.5 11.5t-11.5 18.5t-7.5 18.5v8q0 12 -1 25.5t-1 25.5v23v18q0 16 1 29.5t1 23.5v13q0 4 2 17t5 28.5t6.5 29t5.5 17.5q2 10 12 35.5t22.5 55.5t22.5 56.5t16 36.5q6 16 31 66.5t53.5 109t57 113.5 t43.5 80q0 2 6 13t15 25.5t18.5 29t15.5 24.5q6 8 18.5 29.5t27.5 45t27.5 44t18.5 28.5l37 56l18 37q0 4 -2 9t-2 9h-254q-4 4 -18 10t-18 8l-5 1q-4 1 -6 1q-4 0 -6 -1l-2 -1l-37 -36q-2 -2 -16 -8.5t-21 -10.5l-92 -37q-4 -2 -17.5 -10t-28.5 -18.5t-28.5 -18.5t-17.5 -8 q-4 -2 -28.5 -3t-36.5 -1q-14 0 -38 1t-26 3q-2 0 -9 7t-15.5 16.5t-17.5 18.5l-13 13l-37 56q-4 6 -11.5 20t-7.5 16t-1 13.5t-1 23.5q0 16 -1 29.5t-1 19.5q0 12 2 36t2 26l37 37l23 3q24 3 57 6t67 5t56 4h21h16l111 -18h8h10q10 4 30.5 10t24.5 8l56 55q4 4 18 11.5 t18 7.5q2 0 27 2t57.5 5t65.5 6t53 5h8h11q2 0 13 -3t23.5 -6t22.5 -6t14 -3q2 0 19.5 -1t27.5 -1t26.5 1t18.5 1q4 0 18.5 8t18.5 10q12 4 19 4v-90q6 0 26.5 -4t28.5 -2q4 2 18.5 8t18.5 11l10 10t17.5 17t16.5 17.5t11 10.5t16.5 -5t20.5 -14l55 -55q4 -4 11.5 -18.5 t7.5 -18.5q0 -2 1 -26.5t1 -38.5q0 -12 -1 -37t-1 -27t-7.5 -16t-11.5 -21q-4 -8 -18 -28.5t-18 -26.5l-74 -92l-19 -37l-55 -55q-6 -4 -25.5 -13.5t-35.5 -15.5q-12 -2 -16.5 -15.5t-14.5 -29.5l-19 -55q-2 -4 -8 -18.5t-10 -18.5l-111 -184q-4 -6 -20 -37t-34.5 -66 t-35 -64.5t-20.5 -35.5q0 -2 -6 -7t-12.5 -11.5t-12.5 -11.5t-6 -7t-1 -16.5t-1 -20.5q0 -8 1 -21.5t1 -15.5t5 -10t11.5 -17.5t12.5 -17.5t8 -10q12 -23 21.5 -46.5t15.5 -45.5v-10v-9q-4 -6 -14.5 -19t-22.5 -28.5t-22.5 -28t-14.5 -16.5q-6 -6 -21.5 -18.5t-33 -27.5 t-33.5 -27.5t-23 -18.5h-18q-14 0 -22.5 6t-14.5 13.5t-13.5 13.5t-21.5 6zM406 92l18 -18l18 18h-36zM608 92v-18h19v18h-19z" />
<glyph unicode="8" horiz-adv-x="1363" d="M18 369v37q0 6 2.5 22t5.5 33.5t6 33t5 21.5q2 8 7 25.5t11 35t11.5 32t7.5 18.5q2 2 11 16t20.5 32.5t23.5 35t18 26.5l74 92l2 9q0 2 -1 6l-1 4l-129 129q0 6 1 24.5t1 38.5q0 23 -1 40.5t-1 25.5q0 4 -9 18.5t-9 18.5q0 2 -1 23.5t-1 31.5t1 31.5t1 23.5q0 4 7 24.5 t11 31.5l37 73q4 6 18.5 29t18.5 27q2 2 10 11t16.5 18.5t16.5 16.5t12 9q4 4 20.5 15.5t35 22.5t34 21.5t21.5 14.5q4 2 24.5 8t30.5 10q16 4 43 11.5t31 7.5h24h39h41h25q4 0 17.5 3t28.5 6t28.5 6t17.5 3h18q16 0 38 1t44 1h37h37q23 0 45.5 -1t38.5 -1h18q6 0 18.5 -2 t28 -5t27.5 -6t19 -5q6 -4 22.5 -11.5t33.5 -16.5t32.5 -16.5t21.5 -11.5q10 -6 27 -28q23 -20 28 -27.5t15 -24.5q12 -23 26.5 -51t14.5 -35q2 -4 3 -30.5t1 -42.5t-1 -43t-3 -31q0 -2 -6 -16.5t-15.5 -32t-18.5 -34.5t-15 -28q-4 -8 -18.5 -29.5t-18.5 -25.5l-74 -74 q4 -14 18 -18q6 -4 26.5 -18.5t29.5 -18.5l37 -18l55 -56q6 -6 15 -17t18.5 -23.5t15.5 -22.5l6 -10l1 -11q1 -10 1 -16q0 -4 -1 -15.5t-1 -13.5q0 -4 -9 -18t-9 -19q0 -2 -1 -20t-1 -29q0 -10 1 -25.5t1 -17.5q2 -4 18 -18.5t19 -18.5q0 -2 1 -15t1 -19q0 -8 -1 -22.5 t-1 -16.5q0 -10 -11.5 -15.5t-25.5 -3.5q-16 4 -24.5 -2t-12.5 -16v-10v-9l18 -36v-11v-8l-18 -37q-4 -6 -9.5 -14t-13.5 -19q-12 -23 -14 -23.5t-12 -6.5q-16 -8 -37 -16.5t-25 -12.5q-4 -2 -10 -17.5t-8 -19.5q-2 -2 -8.5 -9t-10.5 -9q-8 -6 -28.5 -19.5t-26.5 -17.5 q-10 -6 -32.5 -17.5t-46 -22.5t-43 -21.5t-25.5 -12.5l-111 -37l-37 -18q-37 -16 -72.5 -23.5t-74.5 -13.5h-21h-16q-4 2 -20.5 8t-36 12.5t-36 11.5t-18.5 5q-4 0 -11 -6t-16.5 -12.5t-17.5 -12.5t-10 -6h-16h-21q-4 0 -27.5 9t-27.5 9h-15h-22h-25h-12q-4 0 -24.5 7.5 t-30.5 11.5q-4 2 -18.5 8t-18.5 10q-8 4 -28.5 18.5t-26.5 18.5l-19 19q-4 8 -13 25.5t-17.5 34.5t-15.5 31.5t-9 18.5q-2 2 -5 17.5t-6 33t-5.5 35t-2.5 25.5v37zM293 422q0 -6 1 -19.5t1 -15.5q2 -6 15.5 -19.5t21.5 -17.5q6 -2 25.5 -7t43 -11t46 -11.5t32.5 -7.5 q2 0 15.5 -1t21.5 -1q6 0 20.5 1t16.5 1q12 2 44 9.5t66.5 16.5t66.5 17.5t44 12.5l10 4q11 4 23 10t24.5 12t16.5 11q59 33 113.5 68.5t107.5 78.5l18 18q4 4 10.5 18.5t8.5 18.5v8v11q-4 4 -17.5 18t-19.5 19l-37 18l-55 18q-2 2 -10.5 8.5t-17.5 12.5t-17 11t-10 5l-6 1 q-7 1 -11 1t-11 -1t-9 -1q-4 -2 -18.5 -10t-18.5 -8h-10h-19h-18h-8q-8 0 -29 -2t-44.5 -5t-45 -6.5t-29.5 -5.5q-6 -2 -21.5 -5t-30.5 -6t-26.5 -5t-13.5 -2q-6 0 -23.5 -9t-33.5 -20q-6 -2 -9.5 -4t-7.5 -4q-6 -4 -27.5 -17.5t-27.5 -19.5q-10 -8 -24.5 -19t-29 -22.5 t-25.5 -20.5t-13 -11q-8 -8 -20.5 -36t-16.5 -38q0 -2 -1 -16.5t-1 -22.5zM608 1069q4 -6 17.5 -19.5t19.5 -17.5h8h11q6 4 19 9.5t17 9.5q2 2 7.5 10t11.5 17t11 17.5t7 10.5t12.5 7t22.5 11t23.5 11.5t15.5 7.5q6 6 22.5 16t34 21.5t32.5 21.5t22 15q6 6 27.5 26.5 t27.5 28.5l2 8q0 2 -1 6l-1 4q-4 6 -18.5 19.5t-18.5 17.5q-8 4 -35.5 11.5t-38.5 7.5h-20q-18 0 -42 1t-46 1h-39h-29q-23 0 -46 -1t-46 -1h-27q-8 -4 -28.5 -18.5t-26.5 -18.5q-6 -6 -20.5 -16.5t-29.5 -23t-27.5 -22.5t-14.5 -12q-8 -6 -19.5 -17.5l-23.5 -23.5 t-20.5 -21.5t-10.5 -11.5q0 -2 -1 -8t-1 -10t1 -11l1 -8q2 -2 15.5 -8t21.5 -10q10 -4 37 -10t37 -9q8 -2 28.5 -5t45 -6t45 -5t28.5 -2z" />
<glyph unicode="9" horiz-adv-x="1216" d="M791 88q0 8 1 23.5t1 17.5t7 23.5t11 31.5q2 4 11 18.5t7 18.5q-2 2 -10 10.5t-18 17.5t-18.5 17t-8.5 10t-1 21.5t-1 30.5v14q0 10 1 19.5t1 15.5v10q2 8 7 26.5t10.5 39t10.5 39t9 24.5l-18 37l-13 1q-14 1 -24 1t-30.5 -1t-25.5 -1q-4 0 -17 -3t-28.5 -6t-29 -6 t-17.5 -3h-14q-12 0 -30.5 -1.5t-37.5 -1.5h-28h-29q-18 0 -36.5 1.5t-31.5 1.5h-14q-6 0 -19.5 2t-28.5 5t-28.5 6t-15.5 5q-10 4 -31.5 14.5t-45 21.5t-44 21.5t-27.5 16.5q-4 2 -14 12t-22.5 21.5t-23.5 22.5t-13 17q-4 2 -9.5 12.5t-11.5 23t-10 23.5t-6 15t-5 17.5 t-6 29t-5.5 28.5t-2.5 17v11q0 12 -1 25t-1 26v20v21q0 16 1 28.5t1 22.5v12q0 2 2.5 12.5t5.5 22.5t6 22.5t5 16.5q4 16 12 30.5t25 24.5l37 19q4 4 11 10t7 8q2 2 5 16.5t6 30t5 28.5t2 17q2 6 8.5 19.5t10.5 17.5q6 8 22.5 25.5t35 35t33.5 32t19 18.5q2 2 16.5 9 t33 16.5t35 17.5t26.5 12q2 2 12.5 4t23.5 5t24.5 5t13.5 4q2 0 10 5.5t17.5 11.5t17.5 12t10 8l37 19q6 2 17.5 5t23.5 6t21.5 5t11.5 2q16 0 61 1t94 1q51 0 96.5 -1t61.5 -1q4 6 25.5 21.5t29.5 15.5q2 0 21.5 1t30.5 1q10 0 32.5 -1t26.5 -1t17.5 -7t19.5 -11 q14 -4 18 -19q4 -6 10.5 -17.5t12.5 -23.5t10 -21.5t4 -11.5v-10q0 -12 1 -26.5t1 -30.5v-25v-28q0 -16 -1 -34t-1 -34v-14q0 -4 -2 -20.5t-5 -36t-6 -40t-5 -32.5q-2 -6 -4 -19.5t-5.5 -29t-5.5 -28.5t-4 -16q-4 -10 -9 -30.5t-9 -24.5l-37 -55l-19 -37v-10v-8 q2 -2 10.5 -9.5t8.5 -9.5t1 -21.5t1 -29.5t-1 -32.5t-1 -26.5q0 -8 -2 -25.5t-5 -35t-6 -33t-6 -17.5q0 -2 -5 -9t-11 -16.5t-12 -18.5t-8 -11t-8.5 -7.5t-12.5 -11.5l-11 -11t-5 -7l-1 -8q-1 -7 -1 -11t1 -10t1 -8t6 -10t12 -17.5t12.5 -17.5t6.5 -10l1 -10q1 -11 1 -17 q0 -39 -11.5 -62.5t-27.5 -58.5l-19 -55q-4 -14 -18 -19q6 2 27 3q23 0 28 -3q4 0 10.5 -7t8.5 -11q4 -8 11 -28.5t7 -26.5q0 -2 1 -15.5t1 -29.5t1 -30.5t1 -25.5q0 -12 -2 -37.5t-2 -27.5l-37 -37q-2 0 -26.5 -1t-40.5 -1h-25q-23 0 -46.5 1t-27.5 1t-17 7t-20 11 q-8 6 -21 19.5t-15 17.5l-1 13q-1 14 -1 20zM258 1106v-184l14 -8q13 -7 30 -16t35.5 -17.5t31.5 -14.5l55 -18q16 -4 43 -11.5t31 -7.5t28.5 -1t36.5 -1t37 1t27 1t15 7.5t22 11.5q6 4 26.5 17.5t28.5 19.5q6 4 17.5 12t23.5 17.5t21.5 16.5t11.5 9q4 2 13 11.5t18.5 18.5 t16.5 16t7 9q2 4 8 31t10 43l19 111q0 2 1 16t1 25q0 6 -1 19l-1 13q0 2 -7.5 8.5t-11.5 10.5q-6 4 -19 11t-18 7h-12q-10 0 -22.5 1t-28.5 1h-21h-20q-12 0 -25.5 -1t-25.5 -1h-10q-2 0 -24 -7t-32 -11q-8 -4 -22.5 -9.5t-29.5 -10.5t-26.5 -10t-13.5 -7q-4 -2 -16.5 -10 t-27.5 -17.5t-28.5 -17.5t-19.5 -10q-4 -2 -14.5 -10.5t-22.5 -17.5t-23.5 -17.5t-13.5 -10.5q-6 -2 -18.5 -5t-27.5 -6t-27.5 -5t-18.5 -2z" />
<glyph unicode=":" horiz-adv-x="405" d="M14 117q0 6 1 20.5t1 26.5q0 16 1 26.5t1 12.5t7.5 23.5t11.5 31.5l18 37q4 6 18.5 19.5t18.5 17.5q6 4 26.5 10t28.5 8q2 0 24 1t32 1t31.5 -1t23.5 -1q4 0 17.5 -7t19.5 -11q4 -4 11 -10.5t7 -8.5v-14v-23v-24v-12q0 -4 9.5 -28t9.5 -28q0 -2 1 -16t1 -25q0 -4 -1 -17 t-1 -15q0 -4 -9.5 -16.5t-19.5 -26.5q-2 -4 -4 -6.5t-4 -6.5q-4 -6 -18.5 -19t-18.5 -18q-6 -4 -19.5 -11t-17.5 -7h-39q-12 0 -26.5 -1t-20.5 -1q-12 0 -35.5 1t-25.5 1l-56 55q0 2 -2 26t-2 36zM109 737q0 4 1 10.5t1 8.5q2 4 10 18t8 19q0 2 -7 15t-11 21q-2 2 -8.5 10.5 t-12.5 17.5t-11 17.5t-5 10.5t-1 8t-1 10t1 11l1 8q4 6 17 20t20 16q2 2 18 5.5t35.5 5.5t36 4t20.5 4t14.5 13t22.5 24.5t22.5 24t14.5 12.5l2 1t6 1q2 0 6 -1l4 -1q6 -2 19.5 -8.5t17.5 -10.5l37 -37q0 -10 1 -36.5t1 -36.5q0 -16 -1 -43t-1 -31q-2 -10 -8 -39t-10 -35 q-2 -2 -9.5 -9t-15.5 -16.5t-17.5 -18.5t-13.5 -11q-4 -4 -18 -11.5t-19 -7.5h-10q-10 0 -21.5 -1t-23.5 -1h-18q-10 0 -37 1t-37 1q-14 4 -18 19l-1 7q-1 7 -1 11z" />
<glyph unicode=";" horiz-adv-x="497" d="M16 -152q0 37 10.5 69t28.5 65l37 55l55 110q2 2 5.5 12.5t6.5 24t5 24.5t2 13q2 2 8 16.5t12.5 30t11.5 28.5t5 17v17v28v29v19q2 6 15 20t22 16q2 0 18 1t27 1q10 0 27.5 -1t19.5 -1t9 -8t9 -10l92 -74q4 -4 11.5 -10t7.5 -8t1 -18.5t1 -26.5q0 -106 -41 -204.5 t-90 -193.5q-6 -14 -20.5 -37.5t-26.5 -41.5q-4 -12 -15.5 -16.5t-29.5 -14.5q-4 -2 -15.5 -5t-24 -6.5t-22.5 -5.5t-12 -2h-51h-41q-4 2 -12.5 9.5t-17.5 15.5t-16.5 16.5t-9.5 14.5l-1 13t-1 19zM340 1034q10 0 27.5 -1t19.5 -1q6 -2 26.5 -8t28.5 -10q2 -2 9.5 -8.5 t9.5 -10.5q4 -6 11 -19t7 -18v-10q0 -10 1 -22.5t1 -24.5v-20q0 -16 -1 -42t-1 -28q0 -4 -5 -13.5t-11 -21.5t-12.5 -23.5t-8.5 -15.5q-4 -4 -17 -18t-19.5 -18.5t-19.5 -11.5t-17 -7h-11q-10 0 -21 -1t-24 -1h-18h-21q-10 0 -22 1t-23 1h-8q-4 0 -17.5 7t-19.5 11 q-4 4 -11 10.5t-7 8.5v203q0 4 7 17t11 19q2 2 10.5 11.5t16.5 18.5t16.5 16.5t12.5 9.5q4 4 24.5 10t30.5 8q2 0 18.5 1t26.5 1z" />
<glyph unicode="&#x3c;" horiz-adv-x="976" d="M16 844q0 10 1 32.5t1 26.5q2 6 8.5 27.5t10.5 27.5q2 2 12 14.5t21.5 27t22.5 28.5t18 23q16 18 62 69t98.5 110.5t100.5 113t70 75.5l74 74l19 37q4 6 18 27.5t18 27.5l19 19l16 8t24.5 12t23.5 11l10 5h16h29h28h19q2 0 13 5.5t23.5 11.5t22.5 12t14 8l9 2q2 0 6 -1 l4 -1q4 -2 9 -8t9 -10q4 -6 11.5 -19.5t7.5 -17.5q0 -2 1 -20.5t1 -28.5t-1 -25.5t-1 -17.5t-6.5 -10.5t-12.5 -17.5t-12 -17t-6 -10q-2 -4 -5 -14.5t-6 -23t-5.5 -23.5t-2.5 -13q-2 -6 -8 -19.5t-10 -17.5l-405 -442q-4 -4 -11.5 -18.5t-7.5 -18.5q0 -2 7 -16.5t12 -20.5 q8 -10 24 -35t33.5 -51.5t33 -50t19.5 -29.5q2 -2 11.5 -14.5t20.5 -26.5t22.5 -28.5t19.5 -22.5q6 -10 20.5 -27.5t29.5 -36t26.5 -32t15.5 -15.5q10 -10 36.5 -39.5t55.5 -61.5t55.5 -61.5t36.5 -40.5q-4 -8 -4 -28q0 -18 4 -27q2 -4 12.5 -15t22.5 -23.5t23.5 -22.5 t15.5 -13q4 -4 10 -18t8 -18q0 -2 1.5 -12.5t1.5 -16.5q0 -4 -1.5 -14.5t-1.5 -12.5q0 -4 -7 -17t-11 -20q-4 -4 -10 -11t-8 -7h-203q-2 0 -17.5 14.5t-36 35t-42 43t-33.5 36.5q-4 2 -12.5 13.5t-17.5 23.5t-16 22.5t-9 14.5l-56 110l-18 19l-55 37q-8 6 -29 26.5t-27 28.5 l-129 166l-74 74q-4 2 -17 12t-29.5 23.5t-30 24.5t-15.5 13q-8 6 -21.5 27.5t-15.5 28.5q0 2 -1 21.5t-1 29.5z" />
<glyph unicode="=" horiz-adv-x="774" d="M14 520q0 10 1 32.5t3 25.5q2 6 23.5 26.5t32.5 28.5q4 4 24.5 10t30.5 8l129 19q8 2 25.5 5l35 6t32 5t18.5 2l73 19q4 2 23.5 8t41 12t41 11t23.5 5q2 0 26 1t38 1q12 0 36.5 -1t28.5 -1t17.5 -7t19.5 -11q4 -4 11.5 -10t7.5 -8l1 -11q1 -10 1 -16q0 -4 -1 -15.5 t-1 -13.5q0 -4 -9.5 -27.5t-9.5 -27.5v-21v-34v-35v-21q0 -2 -7 -8t-11 -10q-6 -4 -19.5 -11t-17.5 -7q-6 -2 -30.5 -5.5t-52.5 -6.5t-52.5 -5t-30.5 -2l-129 -18h-18h-19l-147 18h-10h-9q-2 -2 -7 -8t-11 -12.5t-11 -11.5t-8 -5q-2 0 -13 -1t-15 -1t-14.5 1t-12.5 1 q-6 4 -17.5 14.5t-23.5 21.5t-21.5 22.5t-11.5 15.5q-2 2 -3 22.5t-1 30.5zM571 1096h21q16 0 33.5 -1t33.5 -1h23q6 -2 17.5 -11.5t23.5 -21.5t21.5 -23.5t11.5 -17.5q2 -2 3 -22.5t1 -30.5t-1 -33t-3 -25q-4 -10 -24.5 -30.5t-31.5 -24.5q-12 -2 -40.5 -7t-61.5 -11.5 t-61.5 -11.5t-38.5 -7l-92 -18l-74 -19q-4 -2 -20.5 -8t-36 -12t-36 -11.5t-18.5 -5.5t-27.5 -1t-41.5 -1h-21q-12 0 -24.5 1t-22.5 1h-10q-4 0 -17.5 7.5t-19.5 11.5q-4 4 -11.5 10t-7.5 8v203q0 4 13.5 16.5t23.5 20.5q4 4 18.5 11t18.5 7q8 2 47 7.5t82 11.5t81 11t48 7 q4 0 20.5 3t35 6t35 6.5t20.5 3.5h14q16 0 33.5 1t34.5 1h28z" />
<glyph unicode="&#x3e;" horiz-adv-x="847" d="M18 37l19 -19l17 -3q18 -3 40.5 -6t48 -6t41.5 -3h37q2 2 9.5 9t16.5 15.5t17 16.5t12 14q2 2 8.5 15.5t10.5 21.5q2 4 9 23.5t16.5 42t17.5 41t12 22.5q10 12 45 61.5t75 105.5t75 104.5t45 60.5l37 55l202 203q2 10 3.5 36.5t1.5 37.5q0 16 -1.5 42.5t-3.5 30.5 q-2 6 -8 21.5t-15 34t-17.5 34t-14.5 21.5q-2 2 -13 10t-23.5 17.5t-24 17.5t-13.5 10l-18 19l-18 37l-37 55q-6 6 -26.5 28.5t-44.5 49t-45.5 52.5t-31.5 36l-73 74l-4 1q-5 1 -7 1l-8 -2q-2 -2 -9 -10.5t-9 -8.5t-9.5 -1t-11.5 -1t-10 1l-6 1q-2 2 -8.5 15.5t-10.5 21.5 l-2 8q0 4 1 7l1 3l37 37v19l-5 12q-5 12 -11 27.5t-12.5 31t-8.5 21.5q-8 16 -14 30.5t-23 24.5q-6 4 -20 11.5t-16 7.5q-6 0 -19.5 -7.5t-17.5 -11.5q-2 -4 0 -18.5t0 -18.5t-8.5 -11t-10.5 -7t-21.5 -1t-37 -3t-36.5 -3t-23 -1q0 -10 6 -36t12 -46q0 -20 18.5 -27.5 t49.5 -23.5q23 -8 32 -25q4 -6 11.5 -19.5t7.5 -17.5v-110q0 -10 2 -24.5t5 -29t6 -26t5 -13.5l240 -276q4 -4 11 -18.5t7 -18.5t-8 -18q-6 -12 -10 -18.5t-27 -37.5q-14 -18 -33.5 -44.5t-40 -53.5t-39 -50.5t-26.5 -35.5l-74 -92q-10 -10 -27.5 -35t-35 -51.5t-31.5 -50 t-16 -29.5q-8 -10 -19.5 -32.5t-24 -46t-20.5 -43t-10 -26.5v-92q0 -4 -7 -11t-12 -7v-129z" />
<glyph unicode="?" horiz-adv-x="1382" d="M422 55q0 33 20.5 56.5t20.5 56.5q0 4 -1 10l-1 6q-2 2 -10.5 4t-17.5 4.5t-17 5.5t-10 5v8v10q2 4 4 11.5t4 17.5q4 12 6 17t3 8.5t4 6.5l7 7q16 16 35.5 34.5t28.5 26.5q4 4 18 11.5t19 7.5q4 0 29.5 1t37.5 1t36 -1t26 -1t23.5 -13.5t31.5 -23.5q4 -2 10 -9.5t8 -9.5 q4 -6 11.5 -19t7.5 -18q0 -2 1 -23.5t1 -31.5t-1 -31.5t-1 -23.5q0 -4 -7.5 -24.5t-11.5 -30.5l-18 -37q-4 -4 -17.5 -18.5t-19.5 -18.5q-10 -10 -30.5 -23.5t-24.5 -13.5h-68h-20h-50h-10q-4 0 -17 7t-20 11q-4 4 -11 10.5t-7 8.5l-1 7t-1 11zM332 662v20q0 12 2 41t5 61.5 t6 61t5 39.5l37 37q4 4 17.5 9t19.5 9q8 2 24.5 7t34 11.5t32.5 11.5t20 7q14 2 50 10t73.5 17.5t71.5 17.5t44 10q2 0 14.5 1t16.5 1t14 -1l10 -1q2 -2 10.5 -10t17.5 -17.5t16.5 -17.5t11.5 -10l6 -1q6 -1 10 -1t11.5 1t9.5 1l36 18q4 4 11.5 10.5t7.5 8.5q0 4 -9.5 27.5 t-9.5 27.5v8v10l93 93q4 4 10 17t8 20v8v10q-4 6 -18.5 19.5t-18.5 17.5q-4 2 -17.5 7t-28.5 11t-29.5 11.5t-16.5 7.5q-8 4 -21.5 10t-15.5 8l-37 37q-6 4 -19 11t-18 7q-4 0 -27.5 -9t-27.5 -9l-110 -18l-56 -19q-25 -6 -63.5 -18.5t-76.5 -23.5t-67.5 -20.5t-31.5 -11.5 q-4 0 -17.5 -2t-29 -5t-29.5 -6t-17 -5q-2 0 -10 -5t-17 -11.5t-17.5 -12.5t-10.5 -8q-8 -4 -21.5 -11t-15.5 -7t-26.5 -1t-38.5 -1q-6 0 -32 1t-32 1q-14 4 -18 18q-4 6 -11.5 19.5t-7.5 17.5q0 2 -1 25.5t-1 37.5t1 38t1 28q0 2 7.5 23.5t11.5 31.5l18 37q6 6 19.5 20.5 t17.5 16.5q2 2 12.5 4t23.5 5t24.5 5t13.5 4q2 0 10 5.5t17.5 11.5t17.5 12t10 8l37 19q8 2 29.5 7t45 11t44 11.5t29.5 7.5q10 2 31.5 5t44 6t43 5t28.5 2h22q23 0 48.5 1t52.5 1h45h43q29 0 54.5 -1t43.5 -1h23q2 0 13 -2t25.5 -5l29 -6t24.5 -5q10 -4 37.5 -9.5 t36.5 -9.5l55 -18q10 -4 30.5 -14.5t44 -22.5t44 -22.5t28.5 -14.5l19 -18q2 -4 10 -15.5t17.5 -24t17.5 -22.5t10 -12q4 -4 10 -18.5t8.5 -18.5t5.5 -15.5t6 -23.5t5 -22.5t2 -12.5t1 -17.5t1 -23.5q0 -6 -1 -19l-1 -13q-4 -8 -24.5 -38t-36.5 -53q-14 -18 -15.5 -28.5 t-1.5 -38.5q0 -29 4 -45l-129 -129l-55 -37l-74 -37q-12 -6 -39.5 -17.5t-57.5 -22.5t-54.5 -21.5t-32.5 -12.5l-129 -37q-10 -4 -15.5 -11t-9.5 -27q-4 -23 -8 -53.5t-4 -37.5q-2 -4 -8 -18t-10 -18l-37 -37q-6 -4 -19.5 -11.5t-17.5 -7.5q-2 0 -26.5 -1t-39.5 -1 q-12 0 -36.5 1t-26.5 1q-4 0 -18.5 7.5t-18.5 11.5q-8 6 -28.5 26.5t-26.5 28.5q-2 2 -8.5 15.5t-10.5 21.5l-18 55v17z" />
<glyph unicode="@" horiz-adv-x="1474" d="M18 406v36q0 27 -1 55.5t-1 55.5v37v47q0 29 1 58.5t1 52.5v26q0 2 2.5 13.5t5.5 25.5t6 28.5t5 24.5l18 74q2 8 7.5 25.5t11.5 35t11 32t7 18.5q4 8 14.5 28.5t21.5 44t22.5 45t15.5 29.5q6 8 16.5 24.5t21.5 35t21.5 33t14.5 18.5l129 129q4 4 24.5 16t30.5 21l37 18 q12 6 33.5 15.5t42 18.5t36 15t17.5 6h20h35h35h20q2 0 10.5 6.5t17.5 12.5t16.5 12t11.5 6q2 0 26.5 2t36.5 2q8 0 33 -2t33 -2q4 -2 11 -8t7 -10q2 -10 -3 -32t-5 -32q4 0 22.5 -7t22.5 -3l10 10l17.5 17.5t16.5 17.5t11 10q2 2 12.5 3t14.5 1t14.5 -1t14.5 -3 q6 -6 21 -18t32.5 -27.5t34 -28t22.5 -18.5q2 -2 10.5 -5t17.5 -5t17 -4t11 -4q4 -4 18 -17.5t18 -19.5l19 -37q4 -4 17.5 -20.5t28.5 -36t28.5 -36t17.5 -18.5l9 -18t16.5 -30.5t17.5 -34t12 -27.5q4 -8 10.5 -28.5t8.5 -27t5 -26t6 -40t5 -38.5t2 -25v-10q0 -6 1 -15 t1 -20v-14q0 -10 -1 -29.5t-1 -21.5q0 -4 -5 -23.5t-11 -41t-12.5 -41t-8.5 -23.5q-2 -6 -7 -27.5t-11 -46t-11.5 -46t-7.5 -28.5q-4 -6 -11 -22.5t-16 -33.5t-16.5 -32.5t-11.5 -21.5q-6 -10 -21.5 -28.5t-34 -39t-33.5 -38t-21 -23.5q-10 -8 -37 -21.5t-37 -15.5 q-2 0 -12.5 -1t-22.5 -1t-26.5 -1t-22.5 -1q-10 0 -22.5 1t-24.5 1t-22.5 1t-12.5 1q-8 0 -36 15.5t-38 21.5l-55 55l-6 1t-11 1q-4 0 -11 -1t-9 -1l-55 -18q-16 -4 -43 -11.5t-31 -7.5h-14q-12 0 -29.5 -1t-34.5 -1h-24h-21q-12 0 -26.5 1t-26.5 1h-8q-6 0 -21.5 7.5 t-33 16.5t-34 18t-22.5 14q-2 2 -16.5 23.5t-20.5 31.5l-37 74q-4 10 -10 36.5t-8 36.5q0 2 -1 18.5t-1 26.5t1 27.5t1 19.5q0 6 7 40t11 53q0 10 9.5 37.5t9.5 35.5q4 10 10 31t8 25q2 6 10.5 20t16.5 28.5t16 27t13 16.5q2 4 12 14t22.5 21.5t23.5 22.5l15 15 q4 2 14.5 9.5t21.5 16.5t22.5 17.5t15.5 12.5t18.5 10t18.5 8q8 4 24.5 9.5t35 10.5t32.5 10t18 7q2 0 18.5 2t36 5t36 6t20.5 6q6 4 19.5 17t17.5 19h129q4 0 16.5 -13t20.5 -23q4 -6 11 -19.5t7 -17.5v-461q0 -2 2 -11.5t5 -21.5t6.5 -23.5t5.5 -17.5q4 -8 9 -20.5 t9 -16.5l8 -2q2 0 6 1l4 1q6 4 19.5 18.5t17.5 18.5l56 111q4 10 11 30.5t7 24.5v10q0 12 1 25.5t1 27.5v23v21q0 12 -1 25t-1 24v10q0 2 -5 17.5t-11 32.5t-12.5 34.5t-8.5 25.5q-2 4 -7 15.5t-11 23t-11.5 21.5t-7.5 14q-4 6 -12 16.5t-17.5 21.5t-16.5 21.5t-9 14.5 q-2 2 -11 9t-21.5 16.5t-24 17.5t-17.5 12q-33 23 -65.5 31t-73.5 8q-10 0 -26.5 -1t-18.5 -1q-4 0 -30.5 -7t-43.5 -11l-55 -19q-12 -4 -36.5 -16t-48.5 -24.5t-42 -21.5t-20 -11l-148 -148q-4 -4 -12 -14.5t-17.5 -22.5t-16.5 -22.5t-9 -14.5q-4 -6 -14.5 -25.5t-21.5 -43 t-21.5 -46t-16.5 -32.5l-18 -55q-4 -16 -11.5 -43t-7.5 -31v-12q0 -12 -1 -25.5t-1 -30.5v-24v-25q0 -16 1 -30.5t1 -24.5v-12q0 -8 7.5 -35t11.5 -39q2 -4 8 -18.5t10 -18.5q4 -6 12.5 -17.5t17.5 -23.5t16 -21.5t9 -11.5q4 -4 25.5 -18.5t30.5 -18.5q6 -4 20 -10t29.5 -12 t28 -10.5t14.5 -4.5h8q10 0 23.5 -1t25.5 -1h21h22q14 0 27.5 1t25.5 1h13q2 0 23.5 7.5t31.5 11.5q2 2 16.5 8t29.5 12.5t28.5 11.5t17.5 5q2 0 16.5 1t22.5 1q6 0 19.5 -1t15.5 -1q12 -6 33.5 -27.5t21.5 -28.5v-184q0 -4 -13 -17.5t-23.5 -19.5t-37 -19t-36.5 -18 q-6 -2 -18.5 -5t-28 -6t-27.5 -5t-19 -2h-18h-84h-37h-37h-82h-18q-6 0 -18.5 2t-28 5t-27.5 6t-18 5q-4 4 -32 17.5t-52 23.5q-10 4 -16.5 7.5t-10.5 7.5q-10 6 -31.5 19t-23.5 18q-2 2 -16.5 23.5t-20.5 31.5l-55 92q-4 4 -10.5 15.5t-12.5 23.5t-10 21.5t-4 13.5 q-4 10 -10.5 37t-8.5 37zM514 672q0 -4 1 -14.5t1 -12.5q4 -14 19 -18q6 0 31.5 -1t31.5 -1q14 0 39 1t27 1t23.5 7t31.5 11l37 19q10 6 23.5 19t13.5 17v228q-10 0 -37 -2t-37 -4q-2 0 -16.5 -7.5t-20.5 -11.5q-8 -4 -28.5 -18.5t-26.5 -18.5q-4 -2 -9.5 -8t-9.5 -10 q-6 -6 -14 -17.5t-17.5 -23.5t-15.5 -21.5t-8 -11.5q-4 -4 -10 -15t-12.5 -23.5t-10.5 -23t-4 -12.5t-1 -12t-1 -16zM532 911l3 -8q4 -6 17 -19.5t19 -17.5q4 4 11.5 17.5t7.5 19.5q0 4 -7.5 18.5t-11.5 18.5l-3 1q-3 1 -7 1l-8 -2q-14 -4 -18 -18l-1 -4q-2 -5 -2 -7z" />
<glyph unicode="A" horiz-adv-x="1087" d="M682 461q-4 14 -18 18q-10 10 -31 23.5t-25 13.5q-2 0 -19.5 1t-27.5 1q-4 0 -21.5 -1t-23.5 -1q-6 -6 -21.5 -22.5t-33 -34t-33.5 -32.5t-22 -21q-4 -4 -20.5 -11.5t-35 -16.5t-36 -17.5t-19.5 -10.5q-4 -4 -11.5 -10t-7.5 -8v-240q0 -4 -7 -17.5t-11 -19.5 q-6 -10 -19.5 -23.5t-17.5 -13.5q-2 0 -21.5 -1t-29.5 -1t-32.5 1t-26.5 1t-17.5 7.5t-19.5 11.5q-16 10 -23.5 24.5t-13.5 30.5q-4 10 -11.5 30.5t-7.5 24.5v15q0 12 -1 29.5t-1 33.5v29v31q0 16 1 35.5t1 31.5v17q0 2 2.5 18t5.5 36.5l6 41t5 33.5q2 8 5 22.5t6 28.5 t5 25.5t2 15.5q8 25 26.5 83t39 122.5t38 122t25.5 77.5q2 4 10.5 23.5t17.5 41t17.5 41t10.5 23.5q2 2 5 16.5t6 30t5 28.5t2 18q6 16 16.5 49.5t21.5 68.5t21.5 63.5t14.5 39.5q2 10 13 32.5t23.5 46t22.5 43t14.5 25.5t14.5 17.5t22.5 22.5t22.5 20.5t14 13.5l9 1 q10 1 16 1q4 0 16 -1t15 -1q12 -2 32.5 -5t42 -6t37 -5.5t17.5 -2.5t9 -7l16 -16t17.5 -18.5t12.5 -13.5t10 -17.5t8 -19.5q2 -12 13.5 -48t23.5 -78t22.5 -78.5t14.5 -53.5l18 -92q2 -14 8.5 -41t11.5 -53.5t10 -48t7 -23.5q18 -70 56 -129q4 -14 18 -18l37 -19l37 -37 q4 -6 11 -19t7 -17q0 -2 1 -20.5t1 -29.5q0 -10 -1 -25.5t-1 -17.5t-5 -10t-11 -17t-12.5 -17.5t-8.5 -10.5q-4 -4 -10 -15.5t-12 -23.5t-10.5 -22.5t-4.5 -12.5l-1 -7q-1 -7 -1 -11t1 -10t1 -8l19 -37l18 -74l56 -148q4 -10 11 -31.5t7 -23.5t1 -19.5t1 -27.5t-1 -26.5 t-1 -18.5t-8 -9t-10 -9l-74 -93q-4 -4 -10 -11t-9 -7h-34h-39q-6 2 -27.5 8t-28.5 10q-4 2 -9 8.5t-9 10.5t-10 18.5t-8 18.5q-4 6 -9.5 22.5t-10.5 33.5t-10 32.5t-7 21.5q-4 14 -14.5 54.5t-22.5 84.5t-23.5 83t-13.5 55zM535 1143q-16 -10 -23.5 -24.5t-13.5 -31.5 q-2 -6 -12.5 -31.5t-21.5 -58t-22.5 -64.5t-17.5 -48q-4 -10 -11 -32t-7 -24t-1.5 -12t-1.5 -16q0 -4 1.5 -13.5t1.5 -13.5l184 55q4 2 11 15.5t7 21.5q0 2 -2 13.5t-5 26t-6 28.5t-5 24q-4 12 -9.5 35t-10.5 45.5t-10 42t-7 25.5q-2 4 -8 18.5t-10 18.5z" />
<glyph unicode="B" horiz-adv-x="1234" d="M53 801v59q0 45 1 93t1 91v62q4 4 10.5 18.5t8.5 18.5q0 2 1 12t1 14q0 6 -1 16.5t-1 12.5q0 4 -8.5 18.5t-10.5 18.5l-18 111q0 4 -9.5 27.5t-9.5 27.5q0 2 -1 23.5t-1 31.5t1 31.5t1 23.5q0 4 7.5 18.5t11.5 18.5q4 6 12 14.5t17.5 16.5t16.5 15.5t9 9.5t16.5 5t30 6 t28.5 5t17 2q2 2 18.5 8t36 12.5t36 11.5t20.5 5q2 0 11 1t16 1q4 0 15 -1t13 -1q4 0 17.5 -3t29 -6t28.5 -6.5t17 -3.5q2 0 31 7.5t43 11.5q4 0 27.5 9t27.5 9h13q10 0 24.5 1t30.5 1h25h18q12 0 27.5 -1t27.5 -1h19q4 -8 25.5 -29.5t29.5 -25.5q2 -2 13.5 -5t26.5 -5 t29.5 -4t22.5 -4q6 -2 27 -2q23 0 28 2l93 -93q2 -2 8 -16t10 -20q4 -10 11 -32t7 -24v-14q0 -12 1.5 -28.5t1.5 -33.5v-26v-21q0 -12 -1.5 -26.5t-1.5 -26.5v-8q0 -2 -6 -13.5t-15 -26.5t-18.5 -30.5t-15.5 -21.5q-4 -6 -14 -18.5t-22.5 -28t-22.5 -27.5l-15 -18 q4 -14 19 -19q2 -2 13 -7t23.5 -11t24 -11.5t13.5 -7.5q2 -4 15 -16t28.5 -26.5t29 -28t19.5 -21.5q4 -4 10 -17.5t8 -19.5v-10v-8q0 -4 -9 -27.5t-9 -27.5q0 -2 7 -8.5t11 -10.5q6 -4 26.5 -18.5t29.5 -18.5q0 -10 1 -36.5t1 -36.5q0 -16 -1 -43t-1 -31q0 -10 -7.5 -37 t-11.5 -37q-4 -6 -12 -21.5t-16.5 -34t-16.5 -33.5t-10 -21q-2 -2 -8.5 -11.5t-15.5 -22t-17 -23.5t-15 -17q-2 -2 -8 -9.5t-10 -9.5q-6 -6 -19.5 -17t-28.5 -22.5t-28.5 -21.5t-15.5 -12q-8 -6 -28.5 -19.5t-26.5 -17.5l-74 -37l-55 -37q-4 -4 -19.5 -12t-34 -17.5 t-35 -16.5t-22.5 -9l-92 -37q-10 -4 -31.5 -11.5t-23.5 -7.5h-35h-58h-59h-33q-4 0 -18.5 -9t-18.5 -9h-37h-36q-10 2 -31 8t-25 10q-6 2 -17 13.5t-22.5 24t-21.5 22.5t-12 14q-2 2 -5.5 11.5t-6.5 21.5t-5 23.5t-2 17.5q-4 27 -10 79t-12.5 104t-10.5 95t-4 54v43 q0 37 -1 85t-1 97v78zM293 571v-28q0 -18 1 -37t1 -31v-14q2 -10 8 -39t10 -35q2 -4 13.5 -14.5t23.5 -22.5l23.5 -23.5l13.5 -13.5t4 -10t4 -17.5t5 -17.5t6 -10l8 -2q2 0 6 1l4 1q2 2 7 10t11.5 17.5t11.5 17.5t7 10q6 6 19.5 20.5t17.5 16.5t23.5 10.5t41 17.5t41 17 t23.5 11q2 2 19.5 12t38 21.5t40.5 22.5t31 17q4 2 10 6t16 11q23 16 30 20t17 14q16 12 34 26.5t22 14.5q2 2 15 23.5t22 32.5q4 6 11 19t7 18q0 2 1 12t1 14q0 6 -1 16.5t-1 12.5t-7 8t-11 10q-8 6 -29 19.5t-27 17.5q-10 6 -28.5 15.5t-36 18.5t-30.5 15t-15 6 q-4 0 -31 -7t-43 -11q-23 -8 -78 -26.5t-116.5 -39l-117 -39t-75.5 -24.5v-23q0 -16 -1 -33.5t-1 -33.5v-21zM903 498v-37h23q0 2 -1 9t-3 9q-5 15 -19 19zM238 1169q0 -4 1 -14t1 -12q0 -4 14 -24.5t22 -31.5q4 -4 10.5 -11t8.5 -7t19.5 -1t27.5 -1t26.5 1t18.5 1 q2 2 21.5 9t44 15.5t48 16.5t34.5 14q6 2 21 9.5t32.5 16.5t34 17.5t22.5 12.5t28.5 18t26.5 19l93 92v8v10l-19 37q0 6 -5 31.5t-9 42.5q-2 16 -7 24t-16 13h-10h-8l-37 -19q-8 -4 -25.5 -10t-35 -12.5t-33 -10.5t-17.5 -4q-4 -2 -23.5 -5t-41 -6t-41 -5t-23.5 -2 q-29 -6 -56.5 -13.5t-53.5 -23.5l-19 -18q-4 -6 -13 -37t-15 -54q-6 -18 -9 -20q-2 -4 -18 -18.5t-18 -18.5q0 -2 -1 -12.5t-1 -16.5z" />
<glyph unicode="C" horiz-adv-x="1216" d="M16 303q0 4 1 15.5t1 13.5l19 55q0 4 4 25.5t8 33.5q10 25 25 33q6 4 27.5 11.5t27.5 7.5q2 0 18.5 1t26.5 1t27.5 -1t19.5 -1q4 0 17.5 -7.5t19.5 -11.5l18 -18q2 -6 7.5 -24.5t11.5 -40t11 -40t7 -24.5q4 -6 17.5 -19.5t19.5 -17.5l10 -1q11 -1 15 -1t16 1t15 1l73 18 l111 19q6 2 27.5 8t27.5 10l184 92q6 4 27 17.5t29 19.5l110 92q4 4 18.5 10.5t18.5 8.5q2 0 12.5 1t14.5 1t15 -1t13 -1q10 -2 39 -8.5t35 -10.5t19.5 -17t17.5 -19q0 -8 1 -33t1 -33q0 -12 -1 -36.5t-1 -26.5q0 -4 -7 -17.5t-11 -19.5q-4 -4 -19.5 -24.5t-27.5 -37.5 q-10 -14 -14.5 -24.5t-8.5 -34.5q-2 -8 -7 -13.5t-22 -21.5q-10 -10 -17 -17.5t-13.5 -11.5t-28 -18t-27.5 -19q-4 -4 -19 -12t-33.5 -17t-35 -16.5t-22.5 -9.5l-92 -37q-8 -4 -29 -10t-27 -8q-14 -4 -38.5 -10.5t-48 -12.5t-41 -10t-19.5 -4h-17h-73h-31h-23h-71h-25 q-2 4 -8 18.5t-10 18.5q-2 4 -9.5 10t-9.5 8q-8 4 -28.5 11.5t-26.5 7.5h-25q-16 0 -39.5 -1t-39.5 -1q-20 0 -24.5 2t-12.5 9t-17.5 15t-16.5 16.5t-9 14.5q-2 2 -2 12t1 23.5t1 23.5v15q0 4 -17.5 18.5t-19.5 18.5q-4 4 -10.5 18t-8.5 18q0 2 -1 12.5t-1 14.5zM240 590h18 v-37h-18v37zM55 819v10l19 56q2 8 7 22.5t11 28.5t11.5 25.5t7.5 15.5l73 147q4 6 11.5 19.5t16.5 29t16.5 27.5t11.5 17q8 10 24.5 32.5t33.5 47t32.5 44t19.5 23.5q6 8 25.5 28.5t43 44t46 44t33.5 30.5q2 2 10 8.5t17.5 12.5t17.5 11t10 5h29h53h53h31q2 0 10 6.5 t17.5 12.5t17.5 12t10 6q4 2 18.5 1t18.5 -1t27.5 9.5t27.5 9.5q2 0 15.5 1t21.5 1q6 0 20.5 -1t16.5 -1q4 -2 18.5 -8.5t18.5 -10.5t15.5 -14t22.5 -21.5t21.5 -22.5t14.5 -16q6 -6 13 -19t5 -17.5t-10 -11.5t-19 -17q-23 -23 -26.5 -28t-3.5 -27q0 -6 1 -16.5t3 -10.5 q4 -8 24.5 -15.5t30.5 -2.5v-17q0 -10 1 -24.5t1 -24.5v-18v-21q0 -12 -1 -25.5t-1 -25.5v-10q0 -4 -7 -17.5t-11 -19.5q-4 -14 -19 -19q-6 -4 -19.5 -11t-17.5 -7q-2 0 -26.5 -1t-38.5 -1q-12 0 -37 1t-27 1q-4 0 -17 7t-20 11q-14 4 -18 19q-4 6 -11 19.5t-7 17.5v20v35 v35v20q0 4 -7.5 10.5t-11.5 8.5h-10h-8l-37 -19q-10 -8 -30.5 -20.5t-24.5 -16.5l-111 -110q-4 -4 -27.5 -18.5t-27.5 -18.5t-11.5 -20.5t-16.5 -35t-17.5 -36t-10.5 -19.5t-10 -13t-17 -24.5t-17.5 -23.5t-10.5 -12q-2 -4 -10 -20.5t-17.5 -38t-17.5 -41t-10 -29.5 l-37 -111q-2 -4 -8 -11t-11 -7q-4 0 -18 8t-18 10l-4 1q-5 1 -7 1q-4 0 -6 -1l-2 -1q-4 -4 -18.5 -20.5t-28.5 -26.5q-4 -10 -16 -10q-10 0 -29 -2q-4 0 -18.5 1t-18.5 3q0 6 -2 25.5t-5 40t-6 39t-5 24.5l-19 55v8z" />
<glyph unicode="D" horiz-adv-x="1179" d="M16 231q0 10 1 26.5t1 18.5t5.5 10.5t11.5 17.5t12 17.5t8 10.5l19 37v8v10q-4 6 -12.5 21.5t-16.5 34t-16.5 34t-10.5 21.5v1050q0 4 7.5 17.5t11.5 19.5l37 37q4 4 17 10t20 8q10 4 36.5 10.5t36.5 8.5h19h18q4 0 27.5 -9.5t27.5 -9.5q12 0 46 -1t73 -1t72 1t49 1 q6 -2 19.5 -8t17.5 -10t9 -18.5t9 -18.5l3 -1q4 -1 6 -1q4 0 7 1l3 1q4 2 18.5 10.5t18.5 8.5q2 0 12 1t14 1t15.5 -1t13.5 -1q8 0 37 -7.5t37 -11.5l110 -55q4 -2 10.5 -7t16.5 -12q23 -16 29 -18t18 -18q16 -16 19.5 -18.5t7.5 -18.5q8 -16 10 -18.5t2 -18.5t-2 -19 l92 -92l37 -55l18 -18q4 -4 10.5 -18.5t8.5 -18.5q2 -6 5 -16.5t6 -23t5 -22.5t2 -12v-12q0 -10 1 -23.5t1 -26.5v-20v-20q0 -14 -1 -27.5t-1 -26.5v-10q0 -4 -2 -18.5t-5 -32t-6 -34.5t-5 -26q-2 -6 -8.5 -27.5t-10.5 -27.5q-2 -4 -7 -15t-11 -23.5t-11 -23t-8 -12.5 q-6 -10 -16 -26.5t-21.5 -33.5t-21.5 -31.5t-14 -18.5q-8 -10 -29.5 -35t-44 -50.5t-44.5 -49t-30 -31.5t-34.5 -32.5t-58.5 -54.5t-62.5 -57.5t-46.5 -39.5q-8 -8 -36 -29t-38 -27q-6 -4 -18.5 -12t-28 -17.5t-27.5 -16.5t-18 -9l-148 -74q-4 -2 -15 -7t-25.5 -11 t-29 -11.5t-22.5 -7.5q-10 -4 -31.5 -11t-23.5 -7h-37h-37q-6 2 -19.5 8t-17.5 10q-2 2 -7 11.5t-10 20.5t-11.5 22.5t-8.5 19.5q-4 6 -10 21.5l-12 31t-10.5 26.5t-4.5 13t-1 19.5t-1 27.5zM203 774q0 -4 6 -14t12 -22.5t12.5 -24t6.5 -13.5q2 -6 5 -36.5t6 -64.5t5 -64.5 t2 -36.5q2 -10 8 -37t10 -37h9h10q6 2 21.5 9t34 16.5t34.5 17.5t21 12q8 2 28.5 15.5t43 29t44 28.5t31.5 19q2 2 11 8.5t21.5 15.5t24 17.5t17.5 14.5q2 2 16 13t29.5 23.5t29 23.5t17.5 13q2 2 24.5 5.5t34.5 7.5q14 -2 19.5 12t13.5 31q0 2 2 16t5 29.5t6 29t5 17.5 t10.5 23.5t17.5 41t17.5 41t10.5 23.5l18 55l37 74q-4 14 -18 18l-37 19l-111 74q-8 2 -24.5 11t-34 18t-32.5 16.5l-19 9.5l-185 55q-4 2 -20.5 8t-36 12.5t-35.5 11.5t-18 5q-10 0 -37 -13.5t-37 -23.5q-2 -2 -8 -23.5t-11 -31.5q0 -4 -2 -20.5t-5 -36t-6 -36t-5 -18.5 q0 -4 -6 -14t-12.5 -22.5t-12.5 -23.5t-6 -14q0 -2 -1 -21t-1 -30q0 -10 1 -33.5t1 -25.5q0 -4 9.5 -18.5t9.5 -18.5q0 -2 1 -26.5t1 -39.5q0 -6 -1 -31.5t-1 -31.5q-10 0 -23.5 -13.5t-13.5 -23.5zM700 1327l19 -18l18 18h-37z" />
<glyph unicode="E" d="M211 57l-8 -2q-2 -2 -7.5 -8t-11.5 -12t-11 -11.5t-7 -5.5l-7 -1t-12 -1q-4 0 -11 1l-7 1q-4 2 -18.5 15.5t-18.5 21.5l-37 74q-27 59 -33 117.5t-6 124.5v24q0 14 1 27.5t1 26.5v12q0 6 7.5 19.5t11.5 17.5t27.5 9t27.5 9q2 0 3 10.5t1 16.5q0 4 -1 15t-3 13l-18 19 q-16 16 -18.5 18t-6.5 13q-4 16 -8 34.5t-4 26.5q0 2 -1 25.5t-1 37.5q0 12 1 37t1 29q0 10 2 29.5t5 41t6 38t5 20.5q2 6 13.5 27.5t23.5 46t23.5 46t13.5 27.5q0 2 1 15.5t1 19.5q0 8 -1 22.5t-1 16.5t-5 13.5t-11.5 23.5t-12.5 22.5t-8 14.5v8v10q0 2 2 12.5t5 22.5 t6.5 23.5t5.5 15.5q0 4 9 27.5t9 27.5v17q0 16 -1 30.5t-1 26.5q0 16 2 19q2 6 9 15t16.5 18.5t17.5 15.5t12 6h203q6 6 26.5 19.5t28.5 17.5q2 0 12.5 1t14.5 1t15.5 -1t13.5 -1t9 -9.5t9 -9.5l6 -1q6 -1 10 -1t11.5 1t9.5 1q10 2 30.5 8.5t24.5 10.5l56 55q6 4 19 11t17 7 h240q4 0 17.5 -7t19.5 -11t19.5 -18.5t17.5 -18.5q2 -4 8 -24.5t10 -30.5v-10v-9q-4 -10 -9 -30.5t-9 -24.5q-2 -4 -8.5 -9t-10.5 -9t-18 -10.5t-19 -8.5l-221 -55q-6 -2 -27.5 -8t-27.5 -10q-14 -6 -43 -17.5t-57.5 -23t-53 -21.5t-30.5 -12q-4 -2 -15.5 -7t-24 -11.5 t-22.5 -11.5t-12 -7l-18 -18q-8 -8 -22.5 -30t-14.5 -26q-4 -6 -10.5 -27.5t-8.5 -27.5q-2 -4 1 -16.5t3 -16.5q4 0 23.5 -3t28.5 -1q2 0 23.5 7t31.5 11l92 37l221 74q4 2 17.5 5t29 6t28.5 5.5t17 2.5q2 0 14.5 1t16.5 1t15 -1l10 -1q4 -2 17 -16.5t19 -20.5 q4 -4 10.5 -17.5t8.5 -19.5v-10v-9q-2 -6 -5 -21.5t-6 -30.5t-5.5 -26.5t-2.5 -13.5q-2 -4 -8 -18.5t-10 -18.5q-4 -14 -18 -18l-185 -92q-12 4 -28 4q-14 0 -27 -4q-6 -4 -13 -17.5t-5 -19.5q-84 -39 -163 -82t-151 -102q-4 -4 -11 -10.5t-7 -8.5v-221q0 -8 7 -21.5 t11 -15.5l10 -1q11 -1 17 -1q4 0 15 1t14 1q2 0 16 4t31.5 10.5t35 12.5t27.5 10l92 37q10 2 36 15t54.5 27.5t55 29t39.5 20.5l165 92q6 4 20.5 11.5t16.5 7.5t9.5 1t11.5 1t10 -1l6 -1q6 -4 27.5 -17.5t27.5 -19.5q-4 16 -4 45q0 31 4 47q2 6 15.5 19.5t21.5 17.5 q2 0 15.5 2t21.5 2q6 0 20.5 -2t16.5 -2q4 -2 17.5 -16.5t19.5 -20.5q4 -4 11 -18.5t7 -18.5q0 -2 1 -16.5t1 -20.5q0 -10 -1 -22.5t-1 -14.5t-7 -8t-11 -10l-37 -19q-8 -4 -28.5 -18t-26.5 -18l-19 -19l-1 -4q-1 -4 -1 -6l2 -8q2 -2 8.5 -10.5t12.5 -17.5t11 -17.5t5 -10.5 t-13 -16t-24 -20q-84 -66 -171 -120.5t-179 -101.5q-14 -10 -51 -28.5t-79 -39t-79 -38t-49 -23.5q-6 -2 -18.5 -7l-27.5 -11t-27.5 -11.5t-18.5 -7.5q-4 -2 -15.5 -5t-23.5 -6t-22.5 -5t-12.5 -2h-28h-27q-4 2 -18.5 8t-18.5 10l-37 37l-4 1q-4 1 -6 1zM162 154 q0 -12 5 -24.5t17 -18.5l8 -1q7 -1 11 -1t10 1t8 1q-4 6 -17.5 19t-19.5 17q-2 2 -11 4.5t-11 2.5zM461 1511l-19 -18h19v18z" />
<glyph unicode="F" horiz-adv-x="1013" d="M70 133q0 6 1 19.5t3 13.5q8 8 35.5 15t37.5 3v129q0 4 -7 10.5t-11 8.5h-14h-23h-24h-13q-4 2 -11 8t-7 10q0 2 -1 18.5t-1 26.5t1 26.5t1 20.5t2 17.5t5 29t6 28.5t5 17.5t10.5 18.5t8.5 18t-7.5 17.5t-11.5 19.5l-37 37v64q0 123 9.5 242.5t9.5 242.5v59q0 2 -3 13.5 t-6 24t-6.5 22.5t-3.5 14q0 2 -1 9t-1 12q0 4 1 10l1 6q4 10 17.5 36.5t19.5 37.5q4 4 17.5 18t19.5 19q4 4 17.5 10t19.5 8q8 2 31.5 9t49.5 16.5t50.5 17.5t34.5 12l74 19q2 0 13 1t15 1t14.5 -1t12.5 -1q4 0 18.5 -8.5t18.5 -10.5q6 -2 16 -5t21.5 -6t21.5 -5t15 -2 q2 0 19 -1t28 -1q10 0 26.5 1t18.5 1q8 2 24.5 7t33.5 10t31.5 10.5t20.5 9.5q4 4 11.5 17t7.5 20q10 0 36.5 1t36.5 1q16 0 43 -1t31 -1q10 -2 30.5 -8.5t24.5 -10.5q6 -6 20.5 -27.5t16.5 -27.5q0 -2 1 -25.5t1 -36.5q0 -12 -1 -37.5t-1 -29.5q0 -6 -7 -19.5t-11 -17.5 q-12 0 -44 -2t-67 -5t-66.5 -6t-43.5 -5l-129 -19h-15h-22h-25h-12q-4 0 -18.5 -8t-18.5 -10q-4 0 -17.5 -2t-28.5 -5.5t-29.5 -6.5t-16.5 -5q-4 -2 -16.5 -11t-27.5 -21.5t-28.5 -23.5t-19.5 -17q-2 -2 -8.5 -16.5t-10.5 -20.5q-4 -10 -11 -32t-7 -24q0 -4 -2 -26.5t-5 -52 t-6 -58.5t-6 -47v-10v-8q4 -14 19 -19l8 -2q2 0 5 1t5 1q14 8 54.5 21.5t84.5 28t82.5 26.5t55.5 16q4 2 28 2q27 0 54.5 -1t52.5 -1h31q2 0 13 6.5t23.5 12.5t22.5 12t14 6q2 0 25 2t33 2t30.5 -2t22.5 -2q6 -2 20.5 -16.5t16.5 -20.5q0 -2 1 -18t1 -27q0 -10 -1 -27.5 t-1 -19.5l-5 -10t-11.5 -22.5t-12.5 -24.5t-8 -17q-4 -4 -10 -11t-8 -7h-15h-22h-25h-12q-4 -2 -15.5 -10t-23.5 -17.5t-22.5 -17.5t-12.5 -10q-4 -4 -20.5 -12.5t-35 -17.5t-33.5 -16.5t-21 -9.5l-166 -55q-8 -4 -22.5 -9t-30 -10t-26.5 -10.5t-13.5 -7.5t-13.5 -10 t-23.5 -17.5t-23.5 -17.5t-13 -10t-10.5 -7t-18.5 -11.5t-18.5 -11.5t-8.5 -7t-1 -20.5t-1 -28.5q0 -12 1 -34.5t1 -26.5q0 -6 6.5 -29t12.5 -47.5t12 -46t6 -25.5q0 -2 1 -13.5t1 -15.5t-1 -15l-1 -11q0 -2 -8 -9.5t-10 -9.5l-1 -4q-1 -4 -1 -6l2 -8q2 -4 19.5 -18.5 t17.5 -18.5q0 -2 1 -16.5t1 -20.5q0 -8 -1 -21.5t-1 -15.5q-2 -4 -16.5 -17t-20.5 -20q-4 -4 -18.5 -11t-18.5 -7h-39h-35q-4 2 -15 6t-23.5 10.5t-22.5 11.5t-12 9q-6 6 -19.5 26.5t-17.5 28.5q-2 2 -3 17.5t-1 23.5zM55 258h19v-18h-19v18z" />
<glyph unicode="G" horiz-adv-x="1345" d="M16 516v27q0 18 1 36.5t1 30.5v17q0 8 2.5 26.5t5.5 40t6 39t5 23.5q0 2 4 12t10 22.5t12.5 23.5t10.5 15q2 2 10 9.5t8 9.5q2 4 4 17.5t5 28.5t5.5 28.5t4.5 17.5q4 8 16 36t20 38l74 110l55 74q8 8 19.5 22.5l23 29t20.5 26.5t11 14q4 6 20.5 22.5t35 34t34 33 l21.5 21.5q6 4 26.5 18.5t28.5 18.5q4 0 27.5 7t27.5 11q4 2 20.5 13.5t35 23.5t35 23.5t20.5 13.5q8 2 31.5 10t50.5 17.5t50.5 17.5t33.5 10q2 0 18.5 1t26.5 1t27.5 -1t19.5 -1t23.5 -7t31.5 -11q6 -4 20.5 -10.5t16.5 -8.5q4 -4 11.5 -18t7.5 -19q0 -6 2 -30.5t2 -53.5 v-26v-21q0 -16 -2 -34l-2 -19l-93 -92q2 -2 3 -18q0 -16 -5.5 -24.5t-15.5 -12.5l-10 -1t-17 -1q-4 0 -15 1t-13 1q-4 0 -24.5 7t-31.5 11l-36 19h-11h-8q-8 -4 -35.5 -18.5t-38.5 -18.5l-55 -37q-10 -10 -32.5 -30.5t-46 -44.5t-43 -44t-25.5 -29q-10 -10 -26.5 -31.5 t-35 -45t-33 -44t-16.5 -26.5q-8 -14 -27.5 -50t-40 -78t-38 -79t-23.5 -51q-8 2 -28.5 -5t-26.5 -14q-4 -4 -17.5 -31.5t-19.5 -41.5v-11v-8q2 -6 7 -18t11 -27.5t11.5 -28t7.5 -18.5q8 -6 27.5 -17.5t43 -23.5t45 -21.5t31.5 -11.5q2 0 15.5 -1t31 -2t36 -2t28.5 -1 q6 0 21.5 1t34 2t33.5 2t21 1q4 2 18.5 8.5t18.5 10.5l56 37l110 55q6 4 28.5 18.5t26.5 18.5q10 8 27.5 24.5t34 35t31 32.5t18.5 18q2 2 7 14.5t11.5 27t11.5 28.5t7 23q2 4 -2 16t-4 16q-4 0 -15.5 2t-15.5 2q-10 -2 -39 -8t-35 -10q-14 -8 -51 -26.5t-78 -38t-77.5 -38 t-51.5 -26.5q-4 0 -14 -1t-14 -1t-14.5 1t-12.5 1q-6 2 -19.5 8t-17.5 10q-2 2 -7 11.5t-10 20.5t-11.5 22.5t-8.5 19.5q-4 6 -10 26.5t-8 28.5v9v10q2 10 9 37.5t9 36.5q2 6 8.5 19t10.5 17.5t17 18.5t20 18q4 2 15 10.5t22.5 17.5t21.5 17.5t14 10.5q10 6 37 19t37 17 q10 2 33.5 10.5t50.5 17.5t49.5 17.5t32.5 10.5q8 2 23.5 5t33 6t32.5 5t21 2h17q16 0 34.5 1t39.5 1h30h31q20 0 39.5 -1t32.5 -1h16q6 0 27.5 -7t27.5 -11l56 -56q4 -4 10 -24.5t8 -30.5q0 -2 1 -16.5t1 -22.5q0 -6 -1 -19.5t-1 -15.5q0 -4 -5 -20t-11 -35.5t-12.5 -36 t-8.5 -18.5l-18 -92q-10 -37 -17.5 -66t-19.5 -63q-4 -12 -13.5 -36t-15.5 -39t-8 -17q-4 -6 -24.5 -28t-47 -48.5t-53 -52t-41.5 -37.5q-4 -4 -14 -11.5t-21.5 -16.5t-21.5 -16.5t-17 -11.5q-59 -39 -122.5 -70.5t-135.5 -58.5q-8 -4 -25.5 -10t-34.5 -12t-32.5 -10.5 t-17.5 -4.5q-6 -2 -22.5 -5t-34 -6t-33 -5t-21.5 -2h-10h-47h-19h-71q-4 0 -31 7t-43 11q-10 4 -30.5 10.5t-24.5 8.5q-6 4 -27.5 17.5t-28.5 19.5q-8 6 -21 19t-15 17.5t-7.5 17.5t-11.5 28.5t-11 29t-7 17.5l-19 18q-4 6 -11 19.5t-7 17.5q-2 8 -5 28.5t-6 45t-5.5 45 t-2.5 29.5v14q0 16 -1 33.5t-1 33.5v29z" />
<glyph unicode="H" horiz-adv-x="995" d="M700 129l-36 516v12v25v23v14q-2 6 -8.5 27.5t-10.5 27.5q-12 0 -41 2t-61.5 5t-61 6.5t-39.5 5.5q-4 2 -18 8t-18 10q-6 -6 -22.5 -21.5t-34 -33t-33 -33.5t-21.5 -23l-19 -36l-36 -56q-2 -4 -9.5 -24.5t-9.5 -30.5v-10v-8q2 -2 8.5 -10.5t12.5 -17.5t11 -17.5t5 -10.5 t2 -15t5 -30.5t6 -36t5 -28.5v-11v-8q-2 -2 -8 -10t-12 -17.5t-11 -17.5t-5 -10t-1 -8t-1 -11q0 -4 1 -11l1 -7q2 -4 10 -11t17 -16.5t17.5 -17.5t10.5 -10q4 -4 10 -18.5t8 -18.5q0 -2 1 -12.5t1 -16.5q0 -4 -1 -14t-1 -12q-2 -6 -8 -19.5t-10 -17.5t-17.5 -11.5 t-19.5 -7.5q-2 0 -19.5 -1t-27.5 -1t-26.5 1t-18.5 1q-4 0 -18.5 7.5t-18.5 11.5q-8 6 -28.5 26.5t-26.5 28.5q-4 4 -10.5 18.5t-8.5 18.5l-1 7t-1 11q0 23 10.5 33t10.5 31v10q-2 2 -8.5 12.5t-12.5 23.5t-11 24.5t-5 13.5t-1 16t-1 23q0 6 1 19t1 16l10 10t17.5 17 t17.5 16.5t10 11.5q0 2 1 8t1 10t-1 10.5t-1 8.5l-10 10l-17.5 17.5t-17.5 16.5t-10 11q-2 2 -5 15.5t-6 30.5t-5.5 35.5t-2.5 29.5q0 2 -1 16t-1 22q0 6 1 19.5t1 15.5q2 6 8.5 19.5t10.5 17.5t27.5 11.5t27.5 7.5q14 4 19 18l1 7q1 7 1 11t-1 11l-1 8q0 2 -7.5 8t-11.5 10 l-37 19q-4 4 -11 10t-7 8t-1 20.5t-1 28.5t1 34t1 28q2 39 5 93t7 113.5l8 119t7.5 105.5t6.5 75l3 28l55 56h166q6 0 19.5 -13.5t17.5 -23.5q0 -2 1 -15.5t1 -19.5q0 -8 -1 -22.5t-1 -16.5q0 -4 -6.5 -14.5t-12.5 -22.5t-12 -23.5t-6 -13.5t-1 -18.5t-1 -26.5t1 -27.5 t1 -19.5q2 -4 8 -18.5t10 -18.5v-203h277q6 0 26.5 21.5t28.5 34.5q2 2 4 13t5 26.5t5.5 30t4.5 22.5q2 18 7 67.5t11 105.5t11 106.5t7 70.5l56 55h166q4 0 17 -13t19 -23q4 -6 10.5 -28t8.5 -28q0 -2 1 -19.5t1 -27.5t-1 -26.5t-1 -18.5q0 -4 -7 -30.5t-12 -43.5l-18 -55 q-4 -12 -10 -33.5t-12.5 -42t-10.5 -36t-4 -17.5t-1 -20.5t-1 -28.5v-16q0 -10 1 -19.5t1 -17.5v-9l19 -221q0 -14 2 -71.5t4 -123t5 -121.5t7 -71q0 -4 2 -17t5 -30.5l6 -35t5 -27.5q0 -4 3.5 -17.5t6.5 -29t6 -28.5t3 -18q0 -4 -8 -18t-11 -18v-17v-20l19 -92 q0 -4 1 -18.5t1 -22.5q0 -6 -1 -20l-1 -13q-4 -8 -17.5 -21.5t-19.5 -15.5h-49h-62q-8 2 -28.5 8t-26.5 10q-8 6 -28.5 27t-26.5 29q-4 6 -11.5 26.5t-7.5 28.5z" />
<glyph unicode="I" horiz-adv-x="1087" d="M90 156q0 10 1 27.5t1 19.5q0 4 7 17t12 20q4 4 9 10t9 8h8h10q4 -2 18.5 -10t18.5 -8t26.5 -1t33.5 -1q10 0 29.5 1t21.5 1q4 0 17.5 13t19.5 23q4 4 10 18.5t8 18.5q0 16 -1 55.5t-1 82.5q0 45 1 83.5t1 55.5q0 4 2 14t5 21.5t6.5 21.5t5.5 17q2 2 8 12t12 23.5 t11.5 24.5t5.5 13t1 8.5t1 10.5t-1 11l-1 7q-4 6 -17.5 27.5t-19.5 27.5v383q-8 0 -29 3.5t-27 1.5q-4 0 -14 -3.5t-22.5 -6.5t-23.5 -6t-13 -3h-11q-10 0 -22 -1t-25 -1h-18q-16 0 -43 1t-29 1q-4 0 -17.5 7t-19.5 12l-37 36q-2 10 -4 37t-2 37q0 16 2 43t4 31t13.5 17.5 t27 28.5t29.5 28.5t23 17.5q2 2 15 7t30.5 10.5t36 10.5t28.5 9q6 2 29.5 7t52.5 11t53.5 11.5t30.5 7.5l111 55q2 0 12 1t14 1q6 0 16.5 -1t12.5 -1q4 0 18.5 -17.5t18.5 -19.5l8 -2q2 0 6 1l4 1q2 2 7.5 8t11.5 12.5t11 11.5t7 5q2 2 17.5 5t33 6t35 5t25.5 2h12 q12 0 29.5 1t33.5 1h27h27q16 0 32.5 -1t26.5 -1h14q10 0 38 -7t36 -11q10 -4 23.5 -18.5t13.5 -18.5v-147l-18 -19q-6 6 -28 19.5t-28 17.5l-3 1t-7 1q-2 0 -5 -1l-3 -1q-4 -4 -9 -27.5t-10 -27.5q-2 0 -17 -3t-38.5 -8.5t-36.5 -7.5q-4 0 -20.5 -2t-35.5 -5t-35.5 -6 t-18.5 -5q-4 0 -13.5 -5t-21.5 -11.5t-23.5 -12.5t-15.5 -8q-14 -4 -18 -18q-2 -4 -8.5 -31t-10.5 -43q-2 -6 -4 -18.5t-5 -27.5t-5 -27.5t-4 -18.5l-19 -111q-2 -10 -8 -30.5t-10 -24.5q0 -2 -6 -7t-12.5 -11.5t-12.5 -11.5t-6 -7t-1 -15.5t-1 -19.5q0 -8 1 -22.5t1 -16.5 q2 -4 6 -15t10 -23.5t11.5 -22.5t9.5 -12v-277q-8 -6 -28.5 -27.5t-26.5 -27.5l-1 -3q-2 -3 -2 -7l3 -9q2 -6 8 -19t10 -17q6 -10 20.5 -23.5t16.5 -13.5h387l18 -19q0 -4 2 -23.5t2 -29.5q0 -8 -1 -20.5t-1 -24.5q0 -10 -1 -19.5t-1 -11.5q0 -4 -7 -17.5t-11 -19.5 t-18.5 -20t-18.5 -16.5t-15.5 -7.5t-25.5 -11t-28.5 -11t-22.5 -7q-4 -2 -15.5 -5.5t-23.5 -6.5t-22.5 -5t-12.5 -2t-13 -1t-16 -1q-4 0 -14 1t-12 1q-4 0 -24.5 7t-30.5 12l-37 18l-3 1q-3 1 -8 1q-2 0 -5 -1l-3 -1q-2 -2 -7 -10t-11 -17.5t-11.5 -17.5t-7.5 -10 q-4 -4 -10 -11.5t-8 -7.5q-6 -2 -20.5 -7t-32 -11t-33.5 -11.5t-25 -7.5q-6 -2 -19 -5t-28.5 -6t-29 -5t-15.5 -2h-47h-45l-74 18q-6 2 -19 8.5t-18 10.5l-36 37q-4 6 -11.5 19t-7.5 18q0 2 -1 18.5t-1 26.5z" />
<glyph unicode="J" horiz-adv-x="1456" d="M16 467q0 10 1 28.5t1 20.5t4.5 12.5t10.5 22.5t12 23.5t10 15.5q6 10 19.5 23.5t17.5 13.5h121q0 -8 1 -26.5t3 -38t3 -38t1 -26.5q2 -8 8.5 -21.5t10.5 -15.5h8h18h19h10q2 0 10 -5t17.5 -11.5t17.5 -12.5t10 -8q8 -4 24.5 -12.5t34 -17.5t33 -16t19.5 -9 q2 -2 17.5 -7.5t32.5 -11.5t34.5 -11t25.5 -7q6 -2 17.5 -5t24 -6.5t21.5 -5.5t11 -2h12q12 0 30 -1t34 -1h24h21q16 0 30.5 1t30.5 1h21q4 2 18.5 8.5t18.5 10.5l37 37q4 4 11 18t7 19q2 6 4 36.5t4 64.5t5 64.5t5 36.5q0 4 9.5 18.5t9.5 18.5q0 2 1 12.5t1 14.5q0 6 -1 16 t-1 12q-2 6 -10.5 30t-17.5 52.5t-17 53t-10 30.5q-2 8 -10.5 41t-17.5 70t-17.5 68.5t-10.5 41.5q-2 4 -7 15.5t-11 23t-11.5 21.5t-7.5 14q-4 4 -14 15.5t-21.5 22.5t-22.5 21.5t-15 14.5q-10 2 -39 5t-61.5 6t-61.5 5t-41 2h-10h-8q-4 -4 -18.5 -19t-18.5 -17 q-6 -4 -27.5 -11.5t-28.5 -7.5q-4 0 -30.5 -1t-42.5 -1q-10 0 -32 1t-24 1l-7 10q-7 9 -16 21t-17.5 24.5t-14.5 18.5q-6 8 -14 22.5t-17.5 28.5t-15.5 25.5t-8 15.5q0 2 -1 8t-1 10t1 12l1 7q4 4 24.5 25.5t30.5 29.5q14 6 27.5 14.5t27.5 8.5q20 4 49 7t44 7q4 0 13 1 t13 1q0 -10 3 -37.5t7 -38.5q2 -4 15.5 -18.5t21.5 -18.5l8 -2q2 0 7 1l4 1q2 2 5 8.5t3 10.5v129h379q4 -14 18 -19q2 0 12.5 -1t14.5 -1q6 0 16 1t12 1l166 56q4 0 31 2t43 2t43 -2t31 -2q2 0 13 -5.5t23.5 -11.5t22.5 -12t15 -8q4 0 27.5 -7t27.5 -12q6 -4 20.5 -18 t16.5 -18q0 -2 1 -21.5t1 -30.5q0 -10 -1 -32.5t-1 -26.5t-7.5 -17.5t-11.5 -19.5q-4 -14 -18 -18q-10 0 -30.5 1t-43.5 1t-45 -1t-29 -1q-4 0 -30.5 -7.5t-42.5 -11.5q-8 -2 -29 -8t-27 -10q2 -12 10.5 -44t17.5 -67t17.5 -66.5t10.5 -43.5q0 -4 1 -28t1 -36t-1 -36.5 t-1 -28.5t-8.5 -18.5t-10.5 -18.5q0 -2 -1 -9.5t-1 -11.5t1 -10l1 -6q2 -4 9.5 -15.5t16.5 -23.5t17 -22.5t13 -12.5v-461q0 -4 -7.5 -24.5t-11.5 -30.5q-4 -8 -18.5 -29.5t-18.5 -25.5t-17.5 -10.5t-19.5 -8.5q-4 0 -18 1t-19 -1q-14 -4 -18 -18l-1 -7q-1 -7 -1 -12 q0 -12 3 -18t8 -9t8.5 -6t3.5 -14l-3 -8l-18 -18q-10 -8 -30.5 -20.5t-24.5 -16.5q-4 -2 -10.5 -4t-18.5 -6q-20 -6 -27.5 -8.5t-23.5 -6.5q-20 -4 -49 -8t-37 -4h-49h-43q-4 0 -17.5 6t-29 12.5t-28.5 12.5t-17 6h-46h-75h-74h-45q-4 0 -18.5 4t-32 10t-34.5 12.5t-26 10.5 q-6 2 -26.5 12t-44 22.5t-45 23.5t-31.5 15q-6 4 -27.5 17.5t-27.5 19.5l-19 19q-6 8 -14 24.5t-17.5 35t-15.5 32.5t-8 18q-2 2 -5 15.5t-6 29t-5.5 28.5t-2.5 20q0 4 -1 26.5t-1 34.5z" />
<glyph unicode="K" horiz-adv-x="1087" d="M811 92q-10 16 -29.5 57t-43 88.5t-44 89.5t-30.5 60q0 4 -15.5 24.5t-21.5 30.5q-4 2 -12.5 12.5t-16.5 22.5t-16.5 23.5t-10.5 15.5l-73 92q-2 2 -7.5 13.5t-11.5 23.5t-11 23.5t-7 13.5q0 2 -7.5 3t-11.5 1q-14 0 -18 -4q-4 -2 -14.5 -13.5t-22.5 -23.5l-23.5 -23.5 l-13.5 -13.5l-37 -18q-8 -6 -28.5 -27.5t-26.5 -27.5q-4 -4 -11 -18.5t-7 -18.5t-1 -26.5t-1 -33.5q0 -10 1 -29.5t1 -21.5t6 -10t12 -17.5t12 -17.5t6 -10q2 -4 5.5 -14.5t6.5 -22.5t5 -23.5t2 -13.5q2 -4 8 -20.5t12.5 -36t11.5 -35.5t5 -19q0 -2 1 -16t1 -20 q0 -27 -8.5 -51.5t-30.5 -41.5q-8 0 -32.5 -1t-33.5 -1q-12 0 -36.5 1t-26.5 1q-4 0 -17.5 7.5t-19.5 11.5q-4 4 -18.5 17.5t-18.5 19.5q-6 6 -19.5 27.5t-17.5 27.5q-4 10 -11 30.5t-7 24.5v277q4 4 10 18.5t8 18.5q0 2 1 16t1 23q0 6 -1 19t-1 15q-2 6 -16 19.5t-21 17.5 v369q4 6 11.5 26.5t7.5 28.5v41v70v67v43q0 2 2 16.5t5 32l6 35t5 27.5q0 2 2 12t5.5 22.5t6.5 24t5 15.5q4 10 10 31.5t8 23.5t9.5 10t17.5 17l28 28q4 4 18.5 11.5t18.5 7.5q2 0 18.5 1t26.5 1t27.5 -1t19.5 -1q4 0 17.5 -7.5t19.5 -11.5q14 -4 19 -18v-27q0 -16 1 -37.5 t1 -38.5v-26v-33q0 -23 -1 -43t-1 -37v-16q0 -4 -3 -20.5t-6.5 -35t-6.5 -35t-3 -20.5t-1 -27.5t-1 -37.5q0 -6 1 -32t1 -32q12 10 44 40t67 61.5t66.5 61.5t44.5 40l18 18l74 93l92 110l74 92l18 19q10 6 36.5 19t37.5 18h8h10q4 -2 18.5 -10.5t18.5 -8.5h16h29h29h18 q6 -2 20.5 -16.5t16.5 -20.5q0 -8 2 -32.5t2 -32.5q0 -12 -2 -37t-2 -27q0 -4 -13.5 -24.5t-23.5 -30.5q-8 -10 -21.5 -23.5t-15.5 -13.5t-10 5t-17.5 11.5t-17.5 12.5t-10 8l-4 1t-6 1l-8 -2q-6 -4 -19.5 -17.5t-17.5 -19.5q4 -10 6 -30.5t2 -43.5t-2 -45t-6 -28l-13 -16 q-14 -15 -32.5 -36.5l-37 -43t-28.5 -33.5q-12 -14 -28.5 -27.5t-31 -29t-24.5 -33t-10 -39.5q0 -4 1 -10.5t1 -8.5q4 -6 17.5 -24.5t27.5 -40t27.5 -40t19.5 -24.5q8 -12 24.5 -36.5t34 -50t32 -48.5t20.5 -31l18 -37l74 -110q8 -10 19.5 -34t23.5 -47.5t20.5 -43 t10.5 -23.5t5 -22.5t6 -42t5 -47t2 -35.5q0 -4 1 -27.5t1 -38.5q0 -6 -1 -31.5t-1 -31.5q-4 -14 -18 -19q-6 -4 -19.5 -11t-17.5 -7h-47h-45q-4 0 -18.5 7t-18.5 11q-4 2 -15.5 12.5t-23.5 23t-22.5 23.5t-12.5 15z" />
<glyph unicode="L" horiz-adv-x="1124" d="M16 498v41q0 29 1 60.5t1 59.5v41q8 8 28 37t28 37v8v11l-19 110q0 4 -1 25.5t-1 32.5q0 10 1 30.5t1 22.5q0 4 9.5 18.5t9.5 18.5q0 2 -9.5 9t-9.5 9t-1 23.5t-1 31.5t1 32t1 24q0 4 7.5 17t11.5 20l18 18q4 4 10.5 18.5t8.5 18.5v8v10l-19 129v8v11q4 10 10.5 30.5 t8.5 24.5q6 8 19 22.5t28.5 29t28 26.5t16.5 14q2 2 17.5 3t25.5 1t28.5 -1t20.5 -3q4 -2 17.5 -16.5t19.5 -20.5q4 -6 11 -19t7 -18v-12q0 -10 1 -23.5t1 -29.5v-21v-20q0 -12 -1 -25.5t-1 -23.5v-10q-2 -14 -9 -49t-16.5 -73t-17.5 -72t-12 -46q-4 -4 -12.5 -14.5 t-17.5 -22.5t-16 -22.5t-9 -14.5l-1 -4t-1 -6l2 -8q2 -4 19 -18.5t17 -18.5l2 -7q1 -7 1 -12q0 -4 -1.5 -10t-1.5 -8t-5 -13.5t-11 -24.5t-12 -23.5t-8 -12.5v-10v-8q2 -8 8 -28.5t10 -26.5l-92 -93l-1 -4q-1 -4 -1 -6l2 -8q2 -2 10 -5t17.5 -5t17.5 -4t10 -4 q6 -4 19.5 -17.5t17.5 -19.5q0 -14 4 -51t8 -70q2 -16 6 -27q2 -8 8.5 -28.5t10.5 -26.5q2 -4 8 -11t10 -7q2 0 19.5 -1.5t27.5 -1.5t26.5 1.5t19.5 1.5q2 0 17 7t38.5 16t36.5 13l258 111l55 18q47 20 93 48t100 28q6 0 16 -1t12 -1q4 0 17.5 -7t19.5 -11q4 -4 11 -10.5 t7 -8.5v-20v-35v-35v-20q0 -4 9.5 -18.5t9.5 -18.5q0 -2 1 -13.5t1 -15.5q0 -6 -1 -16l-1 -10q-2 -2 -9 -9.5t-15.5 -16.5t-17.5 -18.5t-13 -11.5t-18.5 -11t-31 -21.5t-34 -23.5t-27.5 -18l-92 -55q-16 -10 -58 -30.5t-89.5 -44t-89.5 -44t-58 -28.5q-10 -6 -29.5 -14.5 t-40 -17.5t-38 -15.5t-21.5 -8.5t-16.5 -5t-27.5 -6t-28.5 -5t-19.5 -2h-47h-45l-74 18q-16 6 -29.5 13.5t-19.5 15.5q-12 14 -25.5 26.5t-17.5 18.5q-6 10 -19.5 37t-17.5 37q-2 6 -5 24.5t-6 39t-5.5 39t-2.5 26.5v27q0 27 -1 57.5t-1 64.5v54zM111 700v-36q14 6 18 17 t4 19h-22zM258 719q-4 -10 -10 -10t-8 9t8 9q12 0 10 -8z" />
<glyph unicode="M" horiz-adv-x="1363" d="M18 147v33q0 27 -1 55.5t-1 51.5v35v45q0 29 1 56.5t1 47.5v27q0 2 2.5 13t5.5 25.5l6 29t5 24.5q2 4 8 25.5t12 47t11.5 47t5.5 27.5l73 461l19 92q2 10 3 31.5t1 32.5q4 0 16.5 3t16.5 7q6 4 19.5 17.5t17.5 19.5q-8 2 -29 8t-27 10q-4 2 -11 8.5t-7 10.5q0 2 -1 15 t-1 20q0 8 1 22t1 16t7 23.5t11 32.5q4 6 10.5 20.5t8.5 16.5q4 4 18.5 11t18.5 7h10q10 0 22.5 1t24.5 1h20q16 0 42 -1t28 -1t11.5 -4t21.5 -10t23.5 -12.5t17.5 -10.5q16 -10 23.5 -24.5t13.5 -30.5q4 -10 11 -31.5t7 -23.5v-332q14 -4 19 -19q4 -4 10 -18t8 -19l18 -92 q0 -2 4.5 -13t10.5 -26.5l12 -31t10 -21.5q6 -16 13.5 -30.5t23.5 -24.5q16 10 23.5 24.5t13.5 30.5l18 55q2 10 8.5 30t11.5 41.5t10 37.5t7 20q2 2 7.5 24t10.5 48.5l10 53t9 40.5q2 4 5 17.5t6 29t5.5 28.5t2.5 18l18 110q2 6 5 21.5l6 31t5 26.5t2 13q2 4 8.5 18.5 t10.5 18.5q4 14 18 19q6 4 19.5 11t17.5 7q2 0 23.5 1t31.5 1t32 -1t24 -1t15 -7t22 -11q10 -6 30.5 -19.5t24.5 -17.5t18.5 -26.5t18.5 -29.5q4 -8 11 -28.5t7 -26.5q0 -4 2 -39t5 -82t6.5 -95t5.5 -79v-10v-8l-56 -56q-4 -4 -11 -18t-7 -18q0 -2 -1 -16.5t-1 -20.5 q0 -10 1 -22.5t1 -14.5t7 -8t11 -10.5t28 -18.5t28 -18t10 -31t8 -43q0 -2 1 -13.5t1 -15.5q0 -41 -20.5 -79t-20.5 -78q0 -4 1 -10l1 -7q2 -4 17.5 -19.5t19.5 -17.5q4 -4 10 -17t9 -20q6 -18 21 -65t33.5 -100.5t34 -100.5t21.5 -65q2 -6 5 -16.5t6 -23t5.5 -22.5t2.5 -12 t1 -19.5t1 -27.5t-1 -26.5t-1 -18.5q0 -4 -7.5 -17.5t-11.5 -19.5q-4 -4 -10 -11.5t-8 -7.5t-12.5 -1t-16.5 -1q-4 0 -14.5 1t-12.5 1q-4 0 -18 9.5t-18 9.5t-28 -9.5t-28 -9.5q-2 0 -13 -1t-15 -1q-6 0 -17 1l-10 1q-4 2 -18.5 15.5t-18.5 21.5q-2 2 -7 12.5t-11.5 22.5 t-11.5 23.5t-7 15.5l-37 111q-4 10 -10 36.5t-8 36.5q-2 8 -5 24.5t-6 34t-5.5 33t-2.5 19.5v55l-18 185q0 8 -2 28.5t-5 44t-6 45t-5 29.5q-2 0 -5.5 1t-5.5 1l-8 -2q-2 -2 -8 -16.5t-10 -20.5l-92 -276q-4 -8 -9.5 -22.5t-10.5 -30t-10 -26.5t-7 -13q-4 -6 -17.5 -19.5 t-19.5 -17.5q-10 -2 -37 -3t-37 -1q-16 0 -43 1t-31 3q-4 0 -17 6t-31.5 15t-36 18.5t-25.5 15.5q-14 4 -19 18q-4 4 -12 20.5t-17.5 35t-16.5 34t-9 21.5l-55 147q-4 14 -19 19q-16 -47 -23 -92t-14 -92q0 -8 -3 -29t-6 -43.5t-6 -44t-3 -31.5v-10v-8l18 -129v-23 q0 -16 -9 -25.5t-19 -17.5t-19.5 -17.5t-9.5 -25.5q0 -4 1 -11t1 -9t8.5 -9.5t10.5 -9.5l1 -4t1 -6l-2 -8q0 -2 -5.5 -10.5t-11.5 -17.5t-12 -17.5t-8 -10.5q-4 -4 -10.5 -11t-8.5 -7h-18h-19q-4 2 -18 8t-18.5 10.5l-15.5 15.5t-23.5 22.5t-22.5 21.5t-12 14 q-4 6 -11.5 26.5t-7.5 28.5zM479 516v-18h19v18h-19zM1087 1309v-19h19v19h-19z" />
<glyph unicode="N" horiz-adv-x="1161" d="M745 92v148q0 4 -10 10t-16 8q-2 0 -13.5 1t-15.5 1t-14 -1t-12 -1t-10.5 -5t-17.5 -11t-17.5 -12.5t-10.5 -8.5l-4 -1t-6 -1l-8 2q-6 2 -17.5 13.5t-22.5 23.5t-21.5 22.5t-12.5 14.5q-12 18 -45 65.5t-67.5 99.5t-66.5 99t-42 68l-19 18l-18 -18q0 -4 -1 -31t-1 -43 v-29q0 -16 1 -32.5t1 -32.5v-17q0 -4 3 -20t6 -34.5t6 -35t3 -20.5t1.5 -31t1.5 -43v-20q0 -10 -1.5 -22.5t-1.5 -22.5v-9q0 -4 -2 -17t-5 -28.5t-6 -29t-5 -17.5t-8 -11t-10 -7t-18.5 9t-18.5 9h-19h-28h-29h-16q-4 2 -17.5 15.5t-19.5 21.5q-4 4 -10.5 18.5t-8.5 18.5 t-5 17.5t-6 28.5t-5 28.5t-2 17.5v55q0 8 -2 28.5t-5 44.5t-6.5 45.5t-5.5 29.5v940q0 4 2.5 16.5l5.5 27.5t6 28.5t5 19.5q4 10 17.5 36.5t19.5 37.5q4 4 17 18t20 19q4 4 18 11t18 7q2 0 15.5 1t21.5 1q6 0 20.5 -1t16.5 -1q4 0 18.5 -7t18.5 -11l37 -37q6 -16 18.5 -52 t27.5 -77t27.5 -78t18.5 -51q2 -6 7 -18.5t11.5 -28t11.5 -27.5t7 -18l147 -332l19 -56q0 -2 2 -13t5 -24.5t6 -23.5t5 -12t10.5 -13.5t17.5 -23.5t17.5 -23.5t10.5 -13.5l55 -92q6 -10 20.5 -31.5t16.5 -23.5q10 -12 28.5 -31t36 -37t31.5 -31l14 -12h8q0 20 2.5 72.5 t5.5 112t4 111.5t-1 73q0 6 -5.5 33.5t-11.5 63.5t-12 70.5t-8 53.5l-37 147q-2 8 -5 25.5l-6 35t-5 32t-2 18.5v14q0 16 -1 33.5t-1 34.5v28v21q0 16 1 33.5t1 33.5v23l36 74q4 14 19 18q10 4 30.5 11.5t24.5 7.5t15.5 -2.5t27.5 -6.5q25 -2 39 -6t31 -14q16 -4 17 -8 t7 -15q10 -12 17.5 -32.5t11.5 -26.5q0 -2 1 -15.5t1 -19.5q0 -8 -1 -22.5t-1 -16.5q0 -4 -9 -27.5t-9 -27.5q0 -2 -1 -13.5t-1 -15.5q0 -6 1 -15t1 -11q2 -4 10 -23.5t17 -41t17.5 -41t10.5 -23.5t5 -16.5t6 -27t5 -28.5t2 -21q0 -2 1 -13t1 -15q0 -6 -1 -17l-1 -10 q0 -4 -6 -14t-12 -22.5t-12.5 -23.5t-6.5 -14q0 -2 -1 -21t-1 -30q0 -10 1 -32.5t1 -26.5q2 -8 8.5 -28.5t10.5 -27t17.5 -19.5t19.5 -17v-590q0 -4 -7.5 -24.5t-11.5 -30.5q-4 -4 -17 -24.5t-20 -31.5q-10 -16 -23 -23t-32 -14q-10 -4 -31.5 -11t-23.5 -7h-37h-37 q-8 2 -28.5 8t-26.5 10q-2 2 -13.5 10.5t-23.5 17.5t-23.5 17.5t-13.5 10.5q-4 4 -14.5 10t-14.5 8z" />
<glyph unicode="O" horiz-adv-x="1437" d="M111 184q4 12 4 37t-4 37q-2 2 -10.5 13.5t-17.5 23.5t-17.5 22.5t-10.5 14.5l-18 37l-1 7t-1 11t1 11l1 8l18 36q2 2 4 12.5t5.5 22.5t5.5 23.5t4 15.5v10v9l-37 36q-4 4 -10.5 17.5t-8.5 19.5v8v11q2 6 5.5 17t6.5 23.5t5 21.5t2 11q4 14 18 19q0 6 -1 28.5t-1 45.5 t1 43t1 30q0 4 7.5 31t11.5 43q2 4 8 25.5t10 29.5q6 14 15.5 39t18.5 47.5t15 41t6 20.5l37 55q6 6 19.5 20.5t17.5 16.5q6 2 24.5 5t39 6t39 5t26.5 2q2 4 4 13.5t2 13.5q0 27 -16 33q-10 4 -25.5 7t-19.5 7l-2 8q0 2 1 7l1 4l129 129l6 2q6 2 10 2t11.5 -2t9.5 -2 q4 -2 18.5 -18.5t18.5 -18.5q2 0 18 -2t27 -2q10 0 27.5 2t19.5 2t10 5t17.5 11t17.5 12.5t10 8.5q4 2 18.5 8t18.5 10l1 2q1 2 1 6q0 2 -1 6l-1 4q-4 14 -18 19q-4 0 -28 7t-28 11l-2 8q0 2 1 6l1 5q4 4 18.5 11t18.5 7h12q10 0 23.5 1t30.5 1h24h25q16 0 30.5 -1t26.5 -1 h12q4 0 31 -7t43 -11l55 -19l74 -18q4 -2 15.5 -7t22.5 -11.5t21.5 -11.5t14.5 -7q2 -2 14.5 -12.5t26.5 -21.5t28.5 -22.5t22.5 -17.5q6 -4 19.5 -18.5t17.5 -18.5l37 -55l18 -37l19 -18q6 -8 19 -28.5t18 -26.5l36 -74q2 -4 8.5 -31t10.5 -43q2 -10 5 -24.5l6 -29t5 -25.5 t2 -13q0 -4 1 -28.5t1 -37.5q0 -14 -1 -37.5t-1 -25.5q-2 -10 -8 -23.5t-10 -13.5h-92v-18q10 0 37.5 -7.5t35.5 -11.5q2 -2 8.5 -23.5t10.5 -31.5v-10v-9q-10 -53 -27.5 -104t-46.5 -98q-4 -14 -18 -19q-4 -2 -19.5 -8t-17.5 -10v-15v-22v-25v-12q-2 -4 -8.5 -18.5 t-10.5 -18.5q-6 -6 -23.5 -24.5t-39 -39t-39.5 -39t-27 -26.5q-4 -4 -14 -12t-22.5 -17.5t-22.5 -16.5t-14 -9q-10 -6 -36 -18.5t-55.5 -28t-56 -27.5t-37.5 -18q-4 -2 -17 -7.5t-30.5 -11.5t-35 -11t-27.5 -7q-4 -2 -15.5 -5t-23.5 -6t-22.5 -5.5t-12.5 -2.5 q-10 -2 -31.5 -5t-45 -6t-44 -5t-26.5 -2h-48h-45q-4 0 -14 2t-21.5 5t-21.5 6t-16 5l-37 19l-74 18q-6 2 -19.5 8.5t-17.5 10.5q-6 6 -22.5 21.5t-34 32.5t-32.5 33.5t-21 22.5zM256 659v-26q0 -16 1 -34.5t1 -31.5v-14q0 -4 7 -24.5t11 -30.5q2 -4 8.5 -18.5t10.5 -18.5 q4 -8 18.5 -28.5t18.5 -26.5l18 -19q8 -6 24.5 -14t35 -17.5t33 -15.5t18.5 -8q6 -2 25.5 -7.5t43 -11.5t46 -11t32.5 -7q6 -2 23.5 -5t38 -6t40 -5.5t27.5 -2.5q2 0 14.5 -1t16.5 -1q6 0 16 1l9 1q8 4 27.5 26t27.5 30q2 2 4 12t5 23.5t5 24.5t4 14q0 2 14.5 15t22.5 21 q8 6 33 28t51.5 45.5t50 45t31.5 29.5q2 0 5 1l3 1q2 0 6 -1l4 -1q2 -4 17.5 -19.5t19.5 -17.5q6 -4 32 -7t32 -3q0 6 -2 31.5t-6 33.5q0 2 -6.5 10.5t-12.5 17.5t-12 17.5t-6 10.5l-1 10q-1 10 -1 16q0 4 1 15.5t1 13.5q2 10 8 38.5t10 35.5q0 2 5 7t11.5 11t12.5 11t8 7v9 v10l-18 55q-12 43 -22.5 85t-33.5 81q-8 10 -20 30.5t-17 24.5q-6 8 -19 21.5t-28.5 28t-29 26.5t-15.5 17q-10 6 -36.5 20t-36.5 16q-2 0 -27 1t-39 1q-12 0 -35.5 -1t-27.5 -1t-17.5 -6t-29 -12t-28.5 -12t-18 -6h-20q-16 0 -34.5 1t-35.5 1q-18 0 -20 -2l-10 -7 q-9 -6 -21 -15t-24.5 -18.5t-18.5 -15.5q-10 -6 -25.5 -18.5t-31 -24.5t-25.5 -22l-10 -9q-2 -2 -11.5 -15t-20.5 -30.5t-22.5 -35t-19.5 -29.5q-6 -10 -15 -24.5t-18.5 -29t-15.5 -25.5t-6 -13q-4 -8 -10 -27.5t-12.5 -40t-10.5 -38t-4 -23.5v-13q0 -12 -1 -27.5t-1 -31.5 v-25zM1217 811q6 -14 17 -18.5t19 -4.5v23h-36zM737 1475q-14 0 -14 -19q0 -18 14 -18t15 18q-1 19 -15 19z" />
<glyph unicode="P" horiz-adv-x="1142" d="M37 1364q-4 6 -10.5 26.5t-8.5 28.5q0 2 -1 8.5t-1 10.5t1 11l1 7l19 37q2 4 8 9t10 9q6 4 26.5 18.5t29.5 18.5q6 4 20 11.5t16 7.5q10 0 37 1t56 1t55.5 -1t36.5 -1l55 37q4 0 28.5 2t49.5 2h27h36q37 0 73 -2t44 -2q2 0 23.5 -7.5t31.5 -11.5q4 -2 18.5 -10t18.5 -8 h17h28h29h18q2 0 16.5 -5.5t32 -11.5l35 -12t27.5 -8q4 -2 18.5 -8t18.5 -11l55 -36q4 -4 18.5 -17.5t18.5 -19.5q8 -8 27.5 -37t27.5 -37v-18q0 -12 1 -27.5t1 -28.5v-18v-25q0 -16 -1 -30.5t-1 -24.5v-12q0 -4 -2 -18.5t-5 -32l-6 -35t-5 -25.5q-6 -25 -15.5 -48.5 t-21.5 -43.5q-6 -10 -15.5 -24.5t-18.5 -29t-15 -25.5t-6 -13l-148 -148q-8 -8 -35.5 -28.5t-37.5 -26.5q-6 -4 -25.5 -15.5t-40 -23.5t-39 -22.5t-24.5 -12.5q-4 -2 -15.5 -7t-26 -11t-28.5 -11.5t-23 -7.5q-16 -6 -52 -18t-77 -27.5t-77.5 -28t-51.5 -18.5v-18v-19 q2 -6 8.5 -36.5t12.5 -64.5t11 -64.5t5 -36.5v-13q0 -10 1 -22t1 -29v-20v-21q0 -12 -1 -25.5t-1 -25.5v-10q0 -4 -7 -17.5t-11 -19.5q-4 -14 -19 -19q-6 -4 -19 -11t-18 -7h-28h-27q-10 2 -30.5 8t-24.5 10q-6 4 -19.5 17.5t-17.5 19.5q-4 4 -11 27.5t-7 28.5l-37 73 q-2 2 -5 13.5t-6.5 23.5t-5.5 22.5t-2 14.5q-2 12 -5 39t-6 53.5t-5 48t-2 25.5v940zM276 221v-37q14 4 19 19q2 2 3 9t1 9h-23zM219 958q0 -4 1 -11l1 -7q2 -2 10.5 -7t17.5 -11.5t17 -11.5t10 -7q4 -4 9.5 -27.5t9.5 -27.5l9 -1t15 -1q4 0 16.5 1t14.5 1t11.5 2t21.5 5 t23.5 6t17.5 5q6 4 27.5 9.5t27.5 9.5q4 2 23.5 10t41 17.5t41 17.5t23.5 10h13h24h23h14q4 0 24.5 14.5t30.5 22.5q6 6 20.5 19.5t16.5 17.5q4 4 11.5 27.5t7.5 27.5l55 92q0 2 1 12.5t1 14.5q0 6 -1 16t-1 13q-2 4 -16.5 17t-20.5 19q-10 6 -26.5 17.5t-34 23t-31.5 21.5 t-19 12h-14h-22q-14 -2 -43 -5t-59 -6t-53.5 -5t-29.5 -2t-24.5 -5.5t-34.5 -9.5q-6 -2 -23.5 -7t-27.5 -15q-8 -6 -21.5 -19.5t-15.5 -17.5q-2 -6 -7.5 -28.5t-11.5 -47t-11 -46t-7 -26.5q-2 -6 -4 -14t-6 -18q-6 -23 -9 -23l-10 -10l-45 -45q0 -2 -1 -8.5t-1 -10.5z" />
<glyph unicode="Q" horiz-adv-x="1566" d="M995 205q-4 0 -10 -1t-8 -1l-129 -37q-14 -4 -43 -11.5t-31 -7.5h-405q-4 0 -14.5 2.5t-21.5 5.5t-21.5 6t-16.5 5q-8 2 -27.5 12t-41 22.5t-39 24t-21.5 15.5q-4 2 -14.5 12t-21.5 21.5t-21.5 22.5t-16.5 17q-4 2 -17.5 23.5t-19.5 32.5l-18 37q-2 6 -5 19t-6 28.5 t-5.5 28t-2.5 16.5v14q0 12 -1 30.5t-1 37.5v28v27q0 18 1 36.5t1 30.5v17q0 8 2.5 24.5t5.5 35t6 32.5t5 18q2 2 10 13.5t18.5 24t18.5 22.5t8 14q2 4 1 20.5t-1 34.5t-1 35t1 21q0 2 8.5 10t18.5 17.5t18 16.5t10 11q2 2 4.5 18.5t5.5 36t5 36t4 20.5q0 2 7 14t16.5 26.5 t18.5 29t13 22.5q6 8 18.5 26.5t28 40t27.5 39t18 23.5t19.5 20.5t17.5 16.5q14 4 56 8q45 6 55 11t18 18q0 4 -8 18t-10 18q0 2 -1 8.5t-1 10.5t1 11l1 7q0 2 7 8.5t11 10.5q6 6 27.5 19t28.5 18q12 8 35.5 19t47 22.5t42 20.5t22.5 11t19.5 5.5t33 6.5t33.5 5t25 2h16 q16 0 34.5 1t35.5 1h32h31q20 0 38.5 -1t35.5 -1h16q10 0 32.5 -2t46.5 -5t44.5 -6.5t24.5 -5.5q2 0 16 -6t31.5 -15t35 -18.5t27.5 -15.5q6 -4 28.5 -18.5t27.5 -18.5l92 -92q4 -4 16 -24.5t21 -30.5q4 -4 10 -18.5t8 -18.5q2 -10 8 -27.5t12.5 -35t11.5 -32t5 -16.5 q2 -6 5 -33.5t6 -59.5t5 -63.5t2 -46.5v-14q0 -10 1 -26.5t1 -32.5v-23v-24q0 -14 -1 -27.5t-1 -26.5v-10q0 -4 -7 -30.5t-11 -43.5q-4 -10 -10.5 -30.5t-8.5 -24.5q-8 -14 -22 -43t-28.5 -58.5t-27 -53t-14.5 -29.5q-6 -10 -21.5 -31.5t-32.5 -45.5t-33.5 -44t-22.5 -27 q-2 -6 -3 -27.5t-1 -27.5q0 -10 1 -31.5t3 -23.5q0 -4 13 -17.5t24 -19.5l36 -19q14 -4 19 -18q4 -6 11 -19.5t7 -17.5t1 -30.5t1 -43.5q0 -10 -1 -31.5t-1 -23.5q-4 -8 -15 -22.5t-25.5 -28.5t-29 -26.5t-22.5 -14.5q-4 0 -27.5 -2t-37.5 -2q-6 0 -32 2t-32 2 q-8 2 -21.5 15.5t-15.5 21.5v20v35v35v20q0 4 -7 10.5t-11 8.5h-15h-22h-25h-12q-2 0 -9 8t-9 10l-37 19l-8 1q-7 1 -11 1zM276 608q10 -23 24.5 -47t31.5 -45l18 -18q6 -4 22.5 -12.5t35 -17.5t34 -16.5t19.5 -9.5q2 -2 13 -5t23.5 -5t22.5 -4t15 -4q2 -2 12 -10 t23.5 -17.5t24.5 -17.5t13 -10q6 -4 19.5 -11.5t17.5 -7.5q2 0 12.5 -1t14.5 -1t14 1t14 1q0 4 2.5 17.5t5.5 29t6 28.5t5 17q0 2 7 8.5t11 10.5q6 2 18.5 10t28 16.5t27.5 16.5l18 12q0 4 1 13.5t1 13.5q0 6 -1 16t-1 12q-2 2 -10 18.5t-18 36t-18.5 36t-8.5 20.5 q-2 4 -3 27.5t-1 35.5q0 8 1 33t3 33q4 14 19 18l73 56q4 4 11.5 10t7.5 8q2 4 0 18.5t0 18.5q4 14 18 18q2 0 12.5 1.5t14.5 1.5t15 -1.5t13 -1.5q4 -2 18.5 -8t18.5 -10q6 -4 19.5 -18.5t17.5 -18.5q4 -6 14.5 -28.5t22.5 -47t22.5 -46t14.5 -25.5q4 -14 18 -19l8 -1 q7 -1 11 -1t11 1l7 1q2 0 8.5 7.5t10.5 11.5q6 6 19 27.5t18 27.5q2 8 11 24.5t18 34t16.5 33t9.5 19.5l37 110q2 2 8 12.5t12 23.5t11.5 24.5t5.5 13.5q0 4 -18.5 18.5t-18.5 18.5q0 2 -6.5 19.5t-15.5 41l-18 47t-16 39.5q0 2 -2 10.5t-5 17.5t-6 17t-5 11q-4 2 -16.5 7 t-26.5 11t-27.5 11t-21.5 7q-2 0 -17.5 1t-25.5 1q-88 0 -178 -38q-4 -2 -20.5 -10.5t-36 -17.5t-36 -17.5t-18.5 -10.5q-6 -2 -33.5 -4t-58.5 -5t-58.5 -5t-33.5 -4q-10 -2 -37 -16.5t-37 -20.5q-6 -4 -27.5 -23.5t-46 -42t-46 -42t-27.5 -21.5q-8 -8 -36 -20.5t-38 -16.5 q-6 16 -13.5 30.5t-23.5 24.5q-14 -4 -19 -18q-2 -4 -9 -24.5t-9 -30.5v-11v-8q0 -4 3 -23.5t6 -41t6 -41t3 -23.5q0 -16 1.5 -58t1.5 -91q0 -47 -1.5 -88.5t-1.5 -57.5zM719 1364l18 -18l19 18l-19 18z" />
<glyph unicode="R" horiz-adv-x="1142" d="M111 186v17q2 4 10 18.5t8 18.5q0 2 1 13t1 15q0 6 -1 15.5t-1 11.5t-5 10t-11.5 17.5t-12.5 17.5t-8 10q-4 6 -10 26.5t-8 29.5v18v18q4 23 13 59t15.5 60.5t8.5 28.5h69q0 8 4 12t-10 14q0 6 -17.5 14.5t-27.5 14.5q0 6 -1 26.5t-1 28.5q0 10 1 32t1 24q0 4 8 18t10 19 v8v10l-36 74l-19 73q0 4 -9 28t-9 28t-1 30.5t-1 42.5t1 43t1 31t9 27.5t9 28.5q0 2 1 15t1 21q0 6 -1 20.5t-1 16.5t-7 23.5t-11 32.5l-19 36q-4 8 -10 25.5t-12 36t-10.5 32t-4.5 17.5q0 2 -1 17.5t-1 23.5q0 6 1 18.5t1 14.5t7.5 9t16.5 16.5t18.5 17.5t13.5 12t17 10 t20 8q10 4 36.5 10.5t36.5 8.5h37q27 0 55.5 1t55.5 1h37h47q29 0 58.5 -1t51.5 -1h27q6 0 25.5 -2t43 -5t46 -6.5t32.5 -5.5q2 0 22.5 -5t47.5 -11t53.5 -12t42.5 -8q16 -4 43 -10.5t31 -8.5q6 -2 16.5 -7t21.5 -11t21.5 -11.5t14.5 -7.5l73 -73q2 -2 8.5 -16.5t10.5 -20.5 q4 -10 11 -32t7 -24v-14q0 -10 1 -26.5t1 -32.5v-27v-27q0 -16 -1 -33.5t-1 -29.5v-12q0 -4 -2 -15.5t-5 -26t-6 -28.5t-5 -23q-4 -10 -10 -30.5t-9 -24.5q-4 -8 -14 -24.5t-22.5 -34t-23.5 -31.5t-13 -20l-18.5 -18.5t-32 -33t-35 -35t-25.5 -24.5q-6 -6 -21.5 -18.5 t-34 -27.5t-33.5 -27.5t-21 -18.5q0 -2 -1 -8t-1 -11q0 -4 1 -10t1 -8q2 -2 10 -13.5t17 -23.5t17.5 -23.5t10.5 -13.5l18 -37q16 -23 37 -28.5t37 -26.5l37 -55l55 -92q2 -4 7 -15.5t11.5 -24t11.5 -22.5t7 -12q4 -10 11 -30.5t7 -24.5t1.5 -29t1.5 -41q0 -10 -1.5 -33.5 t-1.5 -25.5t-13 -23.5t-23 -32.5q-4 -4 -9.5 -10t-9.5 -8l-37 -19l-7 -1t-11 -1t-11 1l-8 1q-4 2 -18 8.5t-18 10.5q-10 6 -26.5 19.5t-34 28.5t-32 27.5t-18.5 16.5q-2 2 -8 15.5t-10.5 21.5t-10.5 23.5t-12 29.5t-10 25.5t-4 13.5q-2 8 -5 29.5t-6.5 44t-5.5 44t-2 30.5 l-18 18q-4 -14 -19 -18l-7 -2q-7 -1 -11 -1t-11 1l-7 2q-4 0 -27 14t-29 22q-4 2 -20.5 16.5t-34.5 31t-34.5 29.5t-20.5 16l-14 1q-13 1 -17 1q-76 0 -135 -39q-2 -10 -3 -37t-1 -37q0 -16 1 -43t3 -31q2 -6 13 -27.5t23.5 -46t23.5 -46t14 -27.5q0 -2 2 -19.5t2 -27.5 t-2 -26.5t-2 -18.5q-2 -4 -16.5 -17.5t-20.5 -19.5l-37 -19l-56 -55h-32h-41q-4 0 -17.5 7t-19.5 11q-14 4 -19 19q-8 14 -14 28.5t-10 24.5q-4 18 -8 43t-4 33v20zM252 1155q0 -10 2 -33.5t4 -34.5q0 -4 7 -17t11 -19l19 -19q4 -6 11 -19.5t7 -17.5q0 -6 1 -22.5t3 -37 t3.5 -37.5t1.5 -24q4 0 21 3.5t26 7.5q6 2 30.5 13t52 23.5t52 23.5t31.5 13q2 2 18 5.5t35.5 6.5t36 5t20.5 2q6 2 19.5 8t17.5 10q2 2 7 10.5t11.5 17.5t11.5 17.5t7 10.5l129 147q4 4 10 18.5t8 18.5q0 2 1 9t1 11t-1 11l-1 6q-4 6 -17 19.5t-20 17.5q-10 6 -34.5 14 t-51 16.5t-49 15.5t-30.5 9h-11q-10 0 -23.5 1t-29.5 1h-20h-27q-16 0 -31.5 -1t-27.5 -1h-15q-8 0 -34.5 -7t-38.5 -11q-8 -4 -21.5 -9.5t-15.5 -9.5q-2 -2 -8.5 -16.5t-10.5 -20.5l-37 -110q-4 -14 -18 -19q-4 -2 -21.5 -4t-21.5 -2z" />
<glyph unicode="S" d="M109 287q0 10 1 26.5t1 18.5q0 4 7 17t11 20q6 6 19.5 20t17.5 17q2 2 15.5 3t23.5 1q6 0 19.5 -1t15.5 -3q4 -2 17 -13.5t28.5 -24t29 -23.5t17.5 -13q4 -4 18.5 -10.5t18.5 -8.5h20q16 0 33.5 -1t34.5 -1h22h29q18 0 36.5 1t30.5 1h15q4 0 24.5 7.5t30.5 11.5 q6 2 21.5 9t34 16.5t35 17.5t20.5 12q6 4 27.5 18.5t27.5 18.5q4 4 18.5 17.5t18.5 19.5q8 8 19.5 22.5t23.5 28.5t20.5 25.5t10.5 15.5q4 4 10 24.5t8 30.5q0 2 1 10.5t1 12.5t-1 9l-1 5l-111 111l-5 1t-9 1t-12 -1t-10 -1q-4 0 -28 -9.5t-28 -9.5h-32h-41l-203 19h-10h-9 l-36 -19q-6 -2 -16.5 -5t-23 -6t-22.5 -5t-12 -2t-23.5 -1t-32.5 -1q-10 0 -31.5 1t-23.5 1q-4 0 -14 2t-22.5 5t-23.5 6t-14 5q-4 0 -24.5 14.5t-30.5 22.5q-14 4 -18 19q-8 6 -22.5 28.5t-14.5 26.5q-4 6 -11.5 27.5t-7.5 27.5v12q0 10 -1 24.5t-1 31.5v24v25q0 14 1 28.5 t1 24.5v14q0 4 7.5 18.5t11.5 18.5t19.5 9.5t17.5 9.5t4 17.5t5 28.5t5 28.5t4 17.5q2 2 9.5 12t16.5 22.5t17 24t12 15.5q6 8 19.5 21t29 27.5t28 27l16.5 16.5q2 2 15 11t31.5 21.5t36 23.5t27.5 18q6 4 19.5 11t17.5 7h8h19h18h10q2 2 10.5 10t17.5 17.5t16.5 17.5 t11.5 10q8 2 31.5 10.5t50 17.5t50 17.5t34.5 10.5q4 0 27.5 1t35.5 1q8 0 32.5 -1t33.5 -1q-2 -8 5 -29t13 -27q2 -2 10 -5t17.5 -6t17.5 -5t10 -2q2 -2 9.5 -10.5t9.5 -8.5h16h29h28h19l10 -5q10 -5 22.5 -11l25 -12t16.5 -8q4 -4 11 -10.5t7 -8.5q0 -4 -7 -24.5 t-11 -30.5q-4 -8 -9.5 -19.5t-10.5 -22.5t-10 -20.5t-7 -11.5q-4 -4 -17.5 -10t-19.5 -8q-2 0 -18.5 -1t-26.5 -1t-26.5 1t-20.5 1q-6 0 -21.5 2t-33 5t-34 6t-22.5 5q-4 0 -27.5 9.5t-27.5 9.5q-2 0 -16.5 -7.5t-20.5 -11.5l-55 -37q-4 -4 -23.5 -14t-42 -22.5t-41 -22.5 t-22.5 -14q-14 -10 -37 -31t-43.5 -41.5t-34.5 -37.5t-14 -20v-28h424q4 0 25.5 -10.5t29.5 -16.5l10 -10l17.5 -17.5t16.5 -17.5t11 -10l11 -1q10 -1 16 -1q4 0 15 1t13 1q4 0 18.5 9t18.5 9q2 0 16.5 1t24.5 1q4 0 17.5 -1t15.5 -1t14.5 -7t26.5 -16t28.5 -18.5 t22.5 -13.5l19 -18q4 -4 6 -24.5t6 -37.5q2 -12 11 -17t14 -14q2 -4 5 -17t6 -28.5t5 -30t2 -16.5l18 -37v-16v-20q0 -4 -2 -17.5t-5 -29t-6 -29t-5 -17.5l-18 -55q0 -2 -2.5 -13t-5.5 -24.5t-6 -24t-5 -12.5q-4 -6 -12 -21t-16.5 -33.5t-16.5 -34t-10 -21.5 q-2 -2 -8.5 -11.5t-15.5 -21.5t-17 -23.5t-15 -17.5q-2 -2 -8 -9t-10 -9q-6 -6 -19.5 -17.5t-28.5 -23t-28.5 -21.5t-15.5 -12q-8 -6 -28.5 -19.5t-26.5 -17.5l-35 -17.5t-45.5 -23.5t-42 -21.5t-25.5 -11.5q-4 -2 -21.5 -7t-38 -11t-41 -11.5t-28.5 -7.5t-24.5 -5t-34 -6 t-31.5 -5t-20 -2h-13h-55h-25h-24h-56h-12q-6 0 -29.5 4t-44.5 8q-10 4 -27.5 9.5t-27.5 15.5q-4 2 -15 12t-23.5 22.5t-22.5 23.5t-13 16q-10 10 -15 27.5t-9 27.5q-4 18 -8 41.5t-4 32.5q0 2 -1 19.5t-1 27.5zM571 74v-37h23q0 6 -4.5 17.5t-18.5 19.5z" />
<glyph unicode="T" d="M461 342v8q2 2 8 12.5t12 23.5t11.5 24.5t5.5 13.5t1 15.5t1 21.5q0 6 -1 20.5t-1 16.5q-2 6 -7.5 18t-11.5 27.5t-11 28t-7 18.5v387q4 4 15 17.5t22.5 27.5t21.5 27.5t15 19.5q0 2 1 8t1 10t-1 11l-1 8q-2 4 -17.5 10t-19.5 8t-18.5 19.5t-18.5 17.5q-2 0 -18.5 1 t-26.5 1t-26.5 -1t-20.5 -1t-23.5 -6t-41 -12t-41 -12.5t-23.5 -6.5q-2 0 -19.5 -1t-27.5 -1t-26.5 1t-19.5 1q-6 2 -19 7.5t-28.5 10.5t-29 10t-15.5 9q-2 2 -8 15.5t-10 21.5q-4 10 -11.5 30.5t-7.5 24.5q0 2 -1 15.5t-1 21.5q0 6 1 20.5t1 16.5q2 6 8.5 26.5t10.5 28.5 l18 19q10 6 30.5 21.5t25.5 15.5q8 4 31.5 11t49 16.5t50 16.5t34.5 11q4 2 20.5 5t35 6t35 5t20.5 2h27h45h47h29q4 0 24.5 7.5t30.5 11.5l74 37q16 2 58 5t89 6t89 5t58 2h17q16 0 34.5 1t34.5 1h29h23q16 0 29.5 -1t25.5 -1h10q2 0 12.5 -5t22.5 -11t23.5 -12.5 t15.5 -8.5q4 -4 10 -17t8 -20q0 -2 1 -23.5t1 -31.5t-1 -31.5t-1 -23.5q0 -4 -7 -17.5t-11 -19.5l-37 -37q-6 -4 -19.5 -11t-17.5 -7h-12q-10 0 -22.5 -1t-28.5 -1h-21h-16q-10 0 -24.5 1t-24.5 1h-17q0 6 -7 19t-11 18q-2 2 -11.5 7t-21.5 10t-23.5 10t-17.5 9l-4 1t-6 1 l-8 -2q-6 -4 -19.5 -17t-17.5 -19q-2 -4 -7 -14.5t-11.5 -23t-11.5 -23.5t-7 -13l-55 -55q-4 -4 -10.5 -18.5t-8.5 -18.5t-5 -21.5t-6 -38t-5 -41t-2 -28.5q-2 -18 -5 -54t-6 -74t-5.5 -70t-2.5 -42v-14q0 -12 -1 -29.5t-1 -36.5v-24v-27q0 -16 1 -31.5t1 -27.5v-13 q0 -2 2.5 -17.5t5.5 -35.5t6 -41.5t5 -34.5q2 -10 5 -28.5t6 -36t5 -30.5t2 -15q0 -4 5.5 -17.5t11.5 -29t12 -29.5t8 -17q2 -6 5 -16t6 -22.5t5.5 -22.5t2.5 -12t1 -19.5t1 -27.5t-1 -26.5t-1 -18.5t-7.5 -8.5t-11.5 -10.5q-14 -12 -41.5 -35.5t-47 -39t-21.5 -17.5 q-2 0 -16.5 -1t-20.5 -1q-8 0 -21.5 1t-15.5 1q-4 2 -14.5 12.5l-21.5 21.5t-21.5 22.5t-16.5 17.5q-2 2 -8 23.5t-10 31.5l-19 74l-18 129v10zM332 1456v-55h61q0 4 -2 18.5t-4 18.5q-4 14 -18 18l-7 1q-8 1 -12 1t-10 -1t-8 -1z" />
<glyph unicode="U" horiz-adv-x="1290" d="M111 92q0 6 1 28.5t1 45.5t-1 43t-1 31q0 4 -7.5 18t-11.5 18.5t-14 15.5t-21.5 22.5t-22.5 21.5t-16 14v17q0 10 -1 24.5t-1 24.5v16v21q0 16 1 28.5t1 22.5v12q0 4 7.5 30.5t11.5 43.5l18 55v8v11q0 4 -9 27.5t-9 27.5q0 8 7 42t11 50q2 4 10.5 18.5t8.5 18.5v26v46v47 v28q0 6 2 23.5t5 38t6 40t5 27.5q2 6 8 28t11 28q2 2 8 10t12 17.5t11 17.5t5 10v20v35v35v21q0 2 4.5 13t10.5 25.5t12 28.5t10 25q4 6 10.5 20.5t8.5 16.5t10 11t17.5 18t17.5 16.5t10 9.5l8 2q2 0 6 -1l4 -1q4 -4 10.5 -18.5t8.5 -18.5h139q0 -10 -1 -36.5t-2 -55.5 t-3 -55.5t-4 -36.5q0 -4 -5 -20.5t-11.5 -38t-12.5 -41t-8 -29.5q-2 -4 -8 -17.5t-12.5 -29t-11.5 -29.5t-5 -17v-18v-29v-28v-17q0 -6 -3 -33.5t-6 -58.5t-6 -58.5t-3 -33.5v-29q0 -23 -1 -53.5t-1 -60.5v-52v-36q0 -29 1 -58.5t1 -58.5v-39q6 -16 13 -30.5t24 -24.5 q6 -4 19 -11.5t18 -7.5q8 -2 28.5 -5t45 -6t45 -5t28.5 -2q4 -6 17.5 -19.5t19.5 -17.5l6 -1t10 -1t11.5 1t9.5 1q6 2 19 8t17.5 10t10.5 18.5t8 18.5q4 6 18.5 19.5t18.5 17.5q6 4 21.5 11.5t33 16.5t33.5 16t22 11q2 2 12.5 5.5t24 6.5t24.5 5t13 2q6 2 19.5 8t17.5 10 l37 37q0 12 -1 44t-1 67t1 66.5t1 43.5q0 4 7 24.5t11 31.5q2 2 8.5 10t12.5 17t11 17.5t5 10.5v16v21l-18 110q-2 12 -5 50t-6.5 83.5t-5.5 85t-2 58.5q0 4 -1 28.5t-1 34.5t1 29l1 18q0 2 5.5 7.5l11.5 11.5t12 11t8 7q4 4 11.5 18.5t7.5 18.5q0 2 1 16.5t1 22.5 q0 6 -1 19.5t-1 15.5t-5.5 10t-11.5 17.5t-12 17.5t-8 10l-2 8q0 2 1 7l1 4q2 4 11 13l18.5 18.5l16.5 16.5t9 7q2 2 22.5 3t30.5 1t32 -1t26 -3q6 -2 26.5 -16.5t28.5 -20.5q10 -10 15 -27.5t7 -27.5q4 -18 9.5 -43t5.5 -31q0 -2 1 -13.5t1 -15.5q0 -6 -1 -15t-1 -11 q0 -4 -7.5 -17.5t-11.5 -19.5q-2 -2 -10 -9.5t-8 -9.5q0 -4 9 -27.5t9 -27.5q0 -2 1 -16.5t1 -22.5q0 -6 -1 -19.5t-1 -15.5q0 -4 -6 -14t-12 -22.5t-12 -23.5t-6 -13t-1.5 -8.5t-1.5 -10.5t2 -11l1 -7q2 -4 9 -15.5t16 -23.5t17.5 -22.5t12.5 -12.5v-22q0 -16 1 -34t1 -34 v-21v-28q0 -16 -1 -33.5t-1 -34.5v-14q0 -8 -2 -27.5t-5 -40t-6.5 -38t-5.5 -23.5q0 -2 -5 -13.5t-11 -24.5t-12 -23.5t-8 -12.5v-10v-8q2 -4 10 -18.5t8 -18.5q0 -2 1 -19.5t1 -27.5t-1 -26.5t-1 -18.5q0 -4 -9 -28t-9 -28v-36v-66v-64v-36q0 -6 -5.5 -21.5t-11.5 -33 t-12 -34t-8 -22.5q-2 -4 -16.5 -17.5t-20.5 -19.5q-4 -4 -18.5 -10t-18.5 -8q-2 0 -13.5 -1t-15.5 -1t-14 1t-12 1t-9.5 8t-9.5 10q-8 4 -20.5 11.5t-16.5 7.5q-2 0 -9 -8.5t-9 -10.5l-4 -1q-4 -1 -6 -1l-9 2q-4 2 -18 19.5t-18 17.5q-2 0 -12.5 1t-16.5 1q-4 0 -14.5 -1 t-12.5 -1q-6 -2 -33.5 -13.5t-58.5 -23.5t-57.5 -23.5t-34.5 -13.5q-6 -2 -24.5 -7t-39 -11t-39 -11.5t-26.5 -7.5q-6 -2 -22.5 -5t-34 -6t-32.5 -5t-22 -2h-57h-53q-4 0 -17.5 7t-19.5 11q-2 2 -9 10.5t-10 8.5h-18h-29h-28h-17q-4 0 -17 7t-20 11z" />
<glyph unicode="V" horiz-adv-x="1105" d="M53 944q0 6 1 18.5t1 14.5t6.5 10t12.5 17.5t12 17.5t6 10t2 13.5t2 15.5q0 6 -2 16l-2 10q-4 4 -27.5 9.5t-27.5 9.5t-11.5 17.5t-7.5 19.5v24q0 16 -1 36t-1 36v23v30q0 20 1 39t1 35v16q0 6 4.5 34t8.5 50q2 16 6 27q2 10 8 30.5t10 24.5q4 6 17.5 19.5t19.5 17.5 q6 2 32 3t32 1q14 0 38.5 -1t26.5 -3q6 -2 26.5 -23.5t28.5 -31.5q4 -4 10.5 -24.5t8.5 -30.5q0 -2 1 -13.5t1 -15.5t-1 -14.5t-1 -12.5q0 -4 -7 -17t-12 -20q-2 -2 -8 -10t-12 -17t-11 -17.5t-5 -10.5q0 -4 6 -20.5t12 -35t12 -34.5t6 -20v-19v-29v-28v-17q2 -12 7.5 -44.5 t10.5 -67.5t10 -67t9 -42q0 -4 4.5 -19.5t10.5 -34t12 -34.5t10 -22q35 -86 74 -163t92 -151q14 4 19 19l36 73l56 129l18 37l19 92l55 222q20 84 32.5 165.5t22.5 165.5l19 148q2 6 8 27.5t10 27.5q4 14 18 19q6 0 32 1t32 1q14 0 37.5 -1t27.5 -1q6 0 20.5 -2.5t29 -5.5 t27 -6t16.5 -5q6 -4 19 -17.5t17 -19.5v-24q0 -16 1.5 -36t1.5 -36v-25v-30q0 -18 -1.5 -37t-1.5 -35v-16q0 -2 -5 -24.5t-11 -51.5t-12 -59.5t-8 -49.5q-2 -10 -8.5 -36.5t-10.5 -36.5l-18 -56q-2 -4 -8.5 -14t-12.5 -22.5t-11 -23.5t-5 -13q-2 -4 -4 -20.5t-5 -36t-5 -36 t-5 -18.5q-4 -10 -11 -33.5t-16 -49.5t-16.5 -49.5t-11.5 -33.5t-12 -26.5t-17.5 -35t-16.5 -32.5t-9 -16q-6 -6 -21.5 -22.5t-33 -34t-34 -33t-22.5 -21.5q0 -2 -1 -5t-1 -5l2 -8q4 -4 18.5 -10.5t18.5 -8.5q16 -10 23.5 -24.5t13.5 -30.5l-37 -185q-4 -10 -10 -30.5 t-8 -24.5q-4 -4 -14.5 -15t-21.5 -23.5t-22.5 -23t-15.5 -12.5q-4 -4 -24.5 -10t-30.5 -8h-41h-33q-8 2 -28.5 12.5t-44 21.5t-45 22.5t-29.5 17.5q-2 2 -9.5 9t-16.5 15t-18.5 17.5t-11.5 13.5q-6 6 -19.5 27.5t-17.5 27.5t-14 30t-21.5 50.5t-21.5 51t-16 34.5 q-2 4 -9.5 22.5t-15.5 42t-16.5 47t-14.5 36.5q-4 10 -11 31.5t-7 23.5v20q0 16 1 35t1 35q0 18 -2 21q0 2 -8 13t-18.5 23.5t-18.5 22.5t-10 14q-4 4 -9.5 17.5t-9.5 19.5q-16 41 -27.5 83t-11.5 87zM129 1548q2 8 -10 8t-8 -9t8 -9q6 0 10 10z" />
<glyph unicode="W" horiz-adv-x="1566" d="M379 78q-4 0 -15.5 -2t-13.5 -2t-10 -5.5t-17.5 -11.5t-17.5 -12t-10 -8q-8 -4 -21.5 -11.5t-15.5 -7.5q-4 2 -11 8.5t-16.5 15.5t-17.5 17.5t-10 14.5q-4 6 -18.5 33.5t-32 63.5t-35 70.5t-25.5 53.5q-4 6 -10 27.5t-8 27.5v12v25v23v14q0 4 -9.5 27.5t-9.5 27.5 q-2 6 -5 17.5t-6 23.5t-5 21.5t-2 11.5q-2 14 -5 47t-6 67.5t-5.5 65.5t-2.5 41v31q0 29 -1 67.5t-1 77.5v64v47q0 35 1 72.5t1 72.5v47q4 4 10.5 18.5t8.5 18.5q0 2 1 12.5t1 14.5t-1 15t-1 14q0 4 -9.5 27.5t-9.5 27.5q0 2 -1 15.5t-1 21.5q0 6 1 20.5t1 16.5q0 4 7.5 18 t11.5 18l37 37q10 0 36.5 1t36.5 1h19q12 0 23.5 -1t21.5 -1h10q4 0 17.5 -7t19.5 -11l37 -37q0 -10 1 -36.5t1 -37.5q0 -16 -1 -42.5t-1 -30.5t-2 -17.5t-5 -29t-6 -29t-6 -17.5q0 -4 -6 -14t-12 -22.5t-12 -23.5t-6 -13l-1 -8q-1 -7 -1 -11t1 -10t1 -8q2 -4 8 -18.5 t10 -18.5v-461l55 -55q2 -2 7.5 -13.5t11.5 -24.5t11 -23.5t7 -12.5q4 -8 18.5 -21.5t18.5 -15.5l7 -1q7 -1 12 -1q4 0 10 1t8 1q6 8 18.5 33t27.5 50.5t27.5 49t18.5 33.5q2 2 10.5 9.5t8.5 9.5v12v24v23v14q0 6 5 34t11 58.5t12 58t8 34.5l37 239q2 6 8.5 27.5t10.5 28.5 q4 10 18 30.5t18.5 24.5t25 10t30.5 8q2 0 13 1t16 1q4 0 14 -1t12 -1q6 -2 19.5 -7t28 -11t27.5 -11.5t17 -7.5q6 -4 13.5 -11t17.5 -17q16 -12 21.5 -20.5t5.5 -20.5q0 -10 -1 -23.5t-1 -23.5v-13q0 -2 6 -10t12 -17.5t12 -17.5t6 -10q2 -6 5.5 -27.5t6.5 -47t5 -47 t2 -25.5q2 -8 5 -25.5l6 -35t5 -33t2 -17.5q2 -12 9.5 -44t16.5 -67.5t17.5 -66.5t12.5 -43q2 -8 7 -24.5t11 -34t11 -32t7 -20.5q4 -14 19 -18q16 23 22.5 44t14.5 48q2 6 5 17.5t6 23.5t5 21.5t2 11.5l37 276q2 8 8 40t12.5 70t11.5 70.5t5 40.5q2 10 2 29v49v115v117v47 q0 20 -2 30q2 6 8 28t10 28t18.5 20.5t18.5 16.5q2 0 18.5 1t26.5 1t26.5 -1t20.5 -1t19.5 -5.5t34 -11.5t35 -12t22.5 -8q14 -4 18 -19l37 -73v-25q0 -16 1 -35.5t1 -36.5v-24v-31q0 -18 -1 -36.5t-1 -35.5v-16q0 -4 -2 -24.5t-5 -47t-6 -53.5t-5 -41l-19 -129 q-6 -35 -19 -107.5t-28.5 -149.5t-29 -140.5t-15.5 -81.5q0 -4 -5 -20.5t-11 -38t-12.5 -41t-8.5 -29.5q-4 -10 -9 -26.5t-11 -35t-10 -33t-6 -16.5q-4 -8 -18.5 -35.5t-18.5 -38.5q-4 -8 -18.5 -29.5t-18.5 -25.5l-18.5 -18.5t-23.5 -24.5t-20.5 -21.5t-11.5 -9.5 q-2 -2 -26.5 -3t-41.5 -1h-20q-20 0 -37.5 2t-21.5 2q-8 0 -36 15.5t-38 21.5q-4 2 -16.5 14.5t-27.5 27t-28.5 28.5t-19.5 22q-2 2 -8.5 15.5t-10.5 21.5q-23 47 -40 100.5t-33 102.5l-37 148q-2 4 -8.5 18t-10.5 18q-16 -23 -21 -44t-16 -48l-36 -129q-6 -16 -17.5 -50 t-23 -69.5t-21.5 -64.5t-12 -37q-4 -8 -18.5 -35.5t-18.5 -38.5q-10 -16 -24.5 -23t-30.5 -14q-10 -4 -32 -11t-24 -7t-9 7t-9 11q0 2 -2 10.5t-5 17.5t-6 17.5t-5 10.5l-10 2q-11 2 -17 2z" />
<glyph unicode="X" horiz-adv-x="1308" d="M35 49q0 10 1 25.5t1 17.5q2 4 8 18.5t10 18.5v221q0 2 14.5 31t22.5 43q6 12 18.5 32.5t23.5 41t20.5 37t11.5 18.5t13 13.5t23.5 23.5t24 22.5t13.5 14.5q4 4 11 27.5t7 27.5q2 2 8 16.5t12.5 29.5t11.5 28.5t5 17.5q0 2 1 8t1 11q0 4 -1 10t-1 8l-148 221 q-6 8 -19 28.5t-27.5 44t-28 45t-17.5 30.5q0 2 -1 8t-1 10q0 23 10.5 37t10.5 37v18q-2 6 -8.5 26.5t-10.5 29.5q-2 2 -8 12t-12 23.5t-11.5 24.5t-5.5 13t-1 11.5t-1 15.5q0 31 11.5 61.5t27.5 59.5l148 37h10h8l55 -56q2 -2 8.5 -16t10.5 -21l55 -129q23 -51 52.5 -103 t58.5 -99q4 -8 12 -22.5t17.5 -30t16.5 -26.5t9 -14q4 -14 19 -18q14 4 18 18q4 6 14.5 18.5t22.5 28t22.5 28t14.5 18.5q10 14 34.5 48t51 68.5t49 64.5t31.5 40l129 184l18 19q4 2 16.5 8t24.5 12t23 11l10 5q2 0 17.5 1t25.5 1t28.5 -1t20.5 -1t23.5 -7t31.5 -11 q16 -6 30.5 -13t25.5 -24q4 -6 11 -19.5t7 -17.5t1 -28.5t1 -40.5q0 -10 -1 -34t-1 -26q-2 -6 -8 -22.5t-15.5 -33.5t-17.5 -32.5t-14 -21.5q-14 -14 -49 -51t-73 -78t-72 -78t-46 -51q-6 -6 -19.5 -22.5t-28.5 -34t-27.5 -33t-16.5 -21.5l-19 -37l-55 -92q-4 -8 -11 -21.5 t-7 -15.5l-1 -7t-1 -11t1 -12l1 -7q2 -4 8 -18t10 -19q10 -12 42 -44.5t67 -67.5t67.5 -67t44.5 -42q6 -6 33 -24.5t59.5 -40t59.5 -40t33 -24.5q6 -4 18 -16t27.5 -26.5t28 -29t18.5 -20.5q4 -4 10 -18.5t8 -18.5q0 -2 1 -16.5t1 -20.5q0 -8 -1 -21t-1 -16q0 -4 -7 -18 t-11 -18q-6 -8 -19.5 -21.5t-17.5 -15.5q-2 0 -19.5 -2t-27.5 -2q-4 0 -21.5 2t-23.5 2q-2 4 -8.5 18t-10.5 18.5t-9 10.5t-9 8h-10h-9l-55 -18h-10h-8l-148 110q-8 4 -23.5 15.5t-29.5 23.5t-25.5 22.5t-13.5 12.5l-33.5 33.5t-58.5 59.5t-57.5 58.5t-34.5 32.5 q-4 4 -17.5 10.5t-19.5 8.5h-10h-8q-4 0 -13.5 -11.5t-15.5 -21.5q-12 -12 -25.5 -31.5t-19.5 -27.5q-8 -8 -22.5 -30t-14.5 -26q-4 -6 -14.5 -25.5t-21.5 -43t-22.5 -46t-15.5 -32.5q-4 -4 -10 -19.5t-14.5 -36t-17.5 -42t-17 -39.5q-4 -12 -8 -18.5t-7 -10.5 q-4 -6 -17 -19.5t-19 -17.5h-74h-74q-10 2 -31.5 8t-23.5 10l-1 14q-1 13 -1 17zM203 1456q-14 0 -15 -18q0 -18 15 -19q14 0 14 19q0 18 -14 18z" />
<glyph unicode="Y" horiz-adv-x="1216" d="M238 154q0 16 1 40.5t1 26.5t6 10.5t12 17.5t12 17t6 10v13v24v23v14q0 4 8.5 18.5t10.5 18.5l18 74q2 8 13.5 34.5t23.5 57.5t23.5 58.5t13.5 33.5q0 2 1 8t1 11q0 4 -1 11l-1 7q-4 14 -18 18l-111 37q-4 2 -15.5 7.5t-23.5 11.5t-22.5 11t-12.5 7q-6 4 -19 18.5 t-18 18.5q-2 2 -5 10t-5 17.5t-4 17.5t-4 10q-2 4 -13.5 17.5t-23.5 29t-23.5 28.5t-13.5 17q-4 4 -10 18.5t-8 18.5q-4 12 -11.5 39t-7.5 35v16q0 16 -1 37t-1 43v33v33q0 23 1 43t1 37v16q0 2 7.5 23.5t11.5 31.5q2 8 8 22.5t11 29t10.5 27t7.5 14.5q4 14 18 18 q6 2 19.5 7t29 11.5t27.5 11.5t16 7q2 0 12.5 1t14.5 1t15.5 -1t13.5 -1q6 -2 19 -8t17.5 -10.5t11.5 -18.5t7 -18v-388q0 -4 7 -17t11 -19q10 -16 31 -27q20 -4 43 -13.5t37 -15.5q10 -4 30.5 -11t24.5 -7q2 0 13.5 -1t15.5 -1q6 0 16 1l11 1q2 0 8 7t10 11l129 203 q23 37 43 65.5t49 63.5l19 19q4 4 18 10t18 8q2 0 13.5 2t24 5t22.5 6t14 5q4 4 18.5 17.5t18.5 19.5l2 8q0 2 -1 7l-1 4q-4 2 -19.5 17t-17.5 20l-1 7t-1 11t1 10t1 8t7.5 8.5t11.5 10.5q10 10 31.5 23.5t23.5 13.5q4 0 30.5 2t43.5 2q10 0 36.5 -2t36.5 -2l56 -56 q4 -4 11 -18t7 -18q0 -2 1 -19.5t1 -28.5q0 -10 -1 -26.5t-1 -18.5q0 -4 -7 -24.5t-11 -30.5l-19 -37q-2 -4 -9 -12t-16.5 -16.5t-18.5 -16.5t-11 -10l-92 -74q-8 -6 -21.5 -19.5t-15.5 -17.5q-4 -4 -12.5 -20.5t-17.5 -34.5t-16 -35.5t-9 -19.5q-2 -4 -13.5 -14.5 t-24 -22.5t-23.5 -23.5t-13 -13.5q-4 -4 -11.5 -20.5t-16.5 -35t-17 -36t-10 -19.5q-4 -6 -14.5 -24.5t-22 -39t-22.5 -39.5t-15 -26l-37 -55l-18 -37q-6 -16 -17.5 -50t-23 -68.5l-21.5 -64.5t-12 -38q0 -2 -1 -8t-1 -10t1 -11l1 -8q0 -2 9 -9t9 -9t1 -20.5t1 -28.5 t-1 -25.5t-1 -17.5q-4 -8 -16 -31t-26.5 -48.5t-28 -50t-21.5 -36.5q-8 -10 -26.5 -29.5t-34.5 -34.5q-4 -4 -7.5 -6t-5.5 -4q-4 0 -30.5 -2t-42.5 -2q-10 0 -37 2t-37 2l-37 37q-4 6 -11 19.5t-7 17.5v10q0 10 -1 23.5t-1 25.5v21z" />
<glyph unicode="Z" horiz-adv-x="1161" d="M16 193q0 14 1 37.5t1 27.5t7.5 30.5t11.5 43.5q16 59 46 114.5t64 106.5l19 18l55 111q6 6 28.5 42t52.5 80t58.5 87t45.5 67q6 10 20 30t28.5 41.5t27 37.5t16.5 20l55 56q2 2 11 17.5t21.5 32.5t25 34.5t16.5 25.5q4 4 10 18.5t8 18.5q0 4 -2 3t-2 3q-10 0 -29.5 3.5 t-42 6.5t-43 4t-28.5 -1q-6 -2 -31 -11.5t-52.5 -18.5t-52 -17.5t-30.5 -8.5q-4 0 -28.5 -2t-47.5 -2h-27h-18q-23 0 -48.5 2t-33.5 2q-14 4 -18 19q-4 6 -11.5 19.5t-7.5 17.5q0 2 -1 18t-1 27q0 10 1 27.5t1 19.5q2 10 8 36.5t11 37.5l18 18l18 37q4 14 19 18 q4 4 18.5 10.5t18.5 8.5q2 0 13 2t26.5 5l31 6t21.5 5l129 19q16 2 53 5t79 6t78 5t48 2h12q12 0 26.5 1t31.5 1h26h23q16 0 29.5 -1t23.5 -1h12q6 0 23.5 -2t38 -5t40 -6t27.5 -5q6 -2 27.5 -8.5t28.5 -10.5q14 -4 18 -18q4 -6 10 -17.5t12.5 -24t10.5 -21.5t4 -11t1 -27.5 t1 -42.5v-20q0 -12 -1 -24.5t-1 -22.5v-10q0 -4 -7 -18.5t-12 -18.5l-147 -148q-10 -10 -47 -52t-82 -92t-86 -97.5t-61 -71.5q-6 -6 -17.5 -19.5t-23 -29t-21.5 -28.5t-12 -15q-4 -4 -16.5 -23.5t-27 -43t-28.5 -46t-20 -35.5q-4 -4 -14.5 -21.5t-21.5 -38t-21.5 -41 t-16.5 -28.5q-4 -8 -11 -21.5t-7 -15.5q-2 -4 1 -16t3 -16q10 0 34.5 -3.5t34.5 -0.5q2 0 14.5 2t28 5t29.5 6t20 5q10 2 54.5 13.5t93.5 23.5t93 23.5t54.5 13.5t32 5t44 6t43 5t28.5 2q6 0 25.5 -4t33.5 -8q14 2 19.5 -12.5t13.5 -30.5l18 -92q0 -4 9.5 -28t9.5 -28 q-6 -12 -12.5 -26.5t-24.5 -30.5q-8 -6 -12 -10t-7 -6q-4 -4 -24.5 -10.5t-30.5 -8.5l-129 -18q-8 -2 -36.5 -9.5t-64.5 -15.5t-70 -16t-50 -15l-55 -18l-92 -37q-10 -4 -35 -12t-51.5 -17.5t-50 -16.5t-29.5 -9q-10 -4 -33 -10.5t-47.5 -12.5t-44 -10t-23.5 -4h-47h-45 q-12 4 -28.5 13.5t-20.5 15.5q-12 14 -25.5 26.5t-17.5 18.5t-10.5 26.5t-8.5 28.5q0 2 -1 27t-1 37z" />
<glyph unicode="[" horiz-adv-x="737" d="M16 129q0 10 1 31.5t1 23.5q2 6 8.5 27.5t10.5 28.5v792q6 6 19.5 26.5t17.5 28.5v9v10q-2 4 -8.5 18.5t-10.5 18.5q0 14 -2 54t-5 84t-6 83t-5 55q0 4 -3 17.5t-6 29t-6.5 28.5t-3.5 17t-1 27t-1 35q0 10 1 28.5t1 20.5l4 10q5 10 11 22.5l12 25t10 16.5t10.5 11t8.5 7 q2 2 18.5 5t35.5 6.5t35.5 5.5t20.5 2q6 2 34 8t58.5 12t58 11t34.5 5h18q16 0 37.5 1.5t44.5 1.5h37h26q23 0 43.5 -1.5t40.5 -1.5h29q4 -2 18.5 -8t18.5 -10q10 -6 23.5 -19.5t13.5 -17.5q0 -2 1 -21.5t1 -29.5t-1 -32.5t-1 -26.5t-7 -17.5t-12 -19.5q-4 -14 -18 -19 q-6 -4 -19.5 -11t-17.5 -7l-313 -37q-4 0 -10.5 -13.5t-8.5 -23.5v-20v-35v-35v-20l-18 -111q-2 -20 -5 -63.5t-6 -90.5t-5.5 -88t-2.5 -53v-35q0 -29 -1 -67.5t-1 -79.5v-64v-59q0 -41 1 -78t1 -65v-31q0 -18 2.5 -47t5.5 -54.5t6 -45t5 -19.5h313q6 0 19.5 -13.5 t17.5 -23.5q0 -2 1 -17.5t1 -25.5t-1 -28.5t-1 -20.5q0 -4 -7 -18.5t-11 -18.5q-6 -8 -17.5 -19.5t-23 -22.5t-21.5 -20.5t-12 -11.5q-6 -4 -20.5 -9t-32 -10t-33.5 -10.5t-25 -7.5h-24h-41h-39h-25q-4 0 -27.5 -9t-27.5 -9h-12h-56h-24h-19h-55h-18l-37 37q-4 6 -11.5 19.5 t-7.5 17.5q0 2 -1 23.5t-1 31.5z" />
<glyph unicode="\" horiz-adv-x="1050" d="M16 1526q0 10 1 33.5t1 25.5q0 4 7.5 17.5t11.5 19.5q6 6 19.5 20.5t17.5 16.5q2 0 17 1t26 1q10 0 28.5 -1t20.5 -1q4 0 18.5 -7t18.5 -12q6 -4 18 -16l27.5 -27.5t28 -29t18.5 -19.5l55 -73l111 -166q4 -4 10 -18.5t8 -18.5l19 -55q2 -6 5 -24.5t6 -39t5 -40t2 -26.5 q10 0 37 -7t37 -11q4 -2 17.5 -16.5t19.5 -20.5q4 -4 14 -18.5t21.5 -32.5t21.5 -34.5t16 -24.5q4 -6 11.5 -19.5t7.5 -17.5v-15q0 -10 -1 -23t-1 -24q0 -10 2 -12q2 -4 10 -11t17.5 -16.5l17.5 -17.5l10 -10q4 -4 10.5 -18.5t8.5 -18.5v-10v-19v-18v-8q2 -4 17 -10.5 t19 -8.5q14 -4 19 -18q6 -10 19.5 -37t17.5 -37l37 -111q2 -4 9 -20t15 -38t17.5 -41t13.5 -30l18 -37q4 -6 9.5 -27.5t9.5 -27.5q2 -4 5 -15t6 -23.5t5 -22.5t2 -13v-10v-8q-2 -6 -8 -27.5t-10 -27.5l-19 -37q-8 -10 -20 -23.5t-17 -13.5h-129q-4 0 -17 13.5t-19 23.5 q-4 4 -10.5 17.5t-8.5 19.5l-92 276l-18 37l-129 277q-4 10 -15.5 32.5t-23 46t-21.5 43t-14 25.5q-39 72 -81 140.5t-85 135.5l-37 56q-4 6 -11 19.5t-7 17.5q-2 4 -4.5 23.5t-4.5 42t-5 41t-5 22.5q-2 2 -9 10t-15.5 17.5t-16.5 17.5t-14 10q-2 2 -14 2q-10 0 -23.5 -1 t-24.5 -1h-12q-4 2 -18.5 15.5t-18.5 21.5q-4 4 -10 15t-12 23.5t-10.5 21.5t-4.5 14q0 2 -1 21.5t-1 29.5z" />
<glyph unicode="]" horiz-adv-x="737" d="M111 18q-10 4 -31 24.5t-25 31.5q0 2 -1 16t-1 25q0 10 1 29.5t1 21.5q0 4 7.5 17.5t11.5 19.5l37 37q4 4 18 10t18 8q2 0 13.5 2t27 5t29.5 6t23 5q2 0 18 2.5t35.5 5.5t36 6t20.5 5q2 0 8.5 7t10.5 11q4 6 11 20.5t7 16.5v203q-4 4 -11 17.5t-7 19.5v8q0 10 -1 22.5 t-1 22.5v21v18q0 12 1 23.5t1 21.5v10q0 6 7 19.5t11 17.5v664q0 2 -8 7t-20.5 11t-24.5 11.5t-21 7.5q-2 0 -19.5 1t-27.5 1t-26.5 -1t-18.5 -1t-10 -6.5t-17.5 -12.5t-17.5 -12t-10 -6t-15.5 -1t-19.5 -1q-8 0 -22.5 1t-16.5 1q-4 0 -17.5 7t-19.5 11q-14 4 -18 19 q-4 6 -11.5 19t-7.5 17v9q0 10 -1 22t-1 23v20q0 10 1 37t1 37q2 2 9.5 10t16.5 17.5t17.5 17.5t12.5 10q2 2 11 5t21.5 6.5t23.5 5.5t17 2q10 2 36 5t55.5 6t56.5 5t37 2h24h39h41h25q4 0 20.5 3t35 6t34.5 6t20 3t20.5 1.5t26.5 1.5t27 -1.5t19 -1.5q4 -2 18 -8t18.5 -10 t10.5 -17.5t8 -19.5q0 -2 1 -12t1 -14t-1 -15.5t-1 -13.5q0 -4 -2 -14.5t-5 -22.5t-6.5 -23.5t-5.5 -13.5q-4 -8 -14 -29.5t-21.5 -45t-21.5 -45t-16 -27.5q-8 8 -37 8t-37 -8q-4 -4 -8 -15.5t-7 -25t-4.5 -25.5t1.5 -18h98l-1 -18q-1 -17 -5 -27q-2 -6 -7.5 -21.5 t-11.5 -33t-11 -34t-7 -22.5l-55 -111v-10v-8q2 -4 10 -20.5t17 -36t17.5 -35.5t10.5 -19q2 -6 5 -27.5t6 -49t5 -52t2 -36.5q0 -27 1 -92.5t1 -139.5q0 -72 -1 -137.5t-1 -91.5q2 -4 8.5 -18.5t10.5 -18.5q2 -2 8 -10.5t12 -17.5t11.5 -17t5.5 -10t1 -21.5t1 -30.5 q0 -10 -1 -32.5t-1 -26.5q-2 -8 -8.5 -28.5t-10.5 -26.5q-4 -8 -18.5 -21.5t-18.5 -15.5q-2 0 -13 -2t-26.5 -5t-31 -6.5t-21.5 -5.5q-8 -2 -28.5 -5t-44 -6t-45 -5t-29.5 -2h-19h-18q-12 0 -44 2t-67 5t-66.5 6t-43.5 5z" />
<glyph unicode="^" horiz-adv-x="909" d="M463 1679q-4 0 -14.5 -1t-12.5 1q-4 0 -13 -10t-13 -16q0 -2 -6.5 -10.5t-13.5 -19.5t-13 -20.5t-6 -11.5l-39 -47l-86 -84q-4 -4 -14.5 -18.5t-14.5 -16.5l-18 -36l-11 -15l-57 -35q-2 -4 -18.5 -17t-18.5 -19q-8 -8 -19.5 -22.5t-22.5 -28t-18 -23.5t-7 -12l-7 -140 l4 -4q3 -4 7 -6l9 -9t9 -5h14q8 4 13 0q2 4 9 6t9 6q4 4 18.5 24.5t18.5 22.5q2 4 14 4q8 0 15 -6q6 8 20.5 18.5t30.5 20.5t29.5 19.5t19.5 17.5l7 8q7 8 16.5 18.5t18.5 19.5t15 13q8 10 26.5 27.5t21.5 21.5q4 2 15 12.5t25.5 21.5t26.5 22.5t19 17.5l16 8l20 -10 l218 -236q2 -2 8 -6t10 -4q2 0 16.5 -5t18.5 -9q4 0 14 -13.5t12 -13.5t10.5 -1t12.5 -1q6 0 15 1t12 1l5 4q5 4 9 4q4 4 6 7.5t6 7.5v8v4q0 2 -3 9t-6 15.5t-6 16.5t-3 10l2 64l-15 49l-10 12q-4 4 -14 13.5t-14 13.5l-17 12l-33 49q-10 14 -35.5 49t-54 72t-53.5 68.5 t-33 44.5q-10 8 -25.5 27.5t-19.5 23.5t-14 8t-14 4q-2 0 -12.5 2t-16.5 2z" />
<glyph unicode="_" horiz-adv-x="983" d="M16 -12q0 -4 1 -14.5t1 -12.5q2 -10 8.5 -30.5t10.5 -24.5q4 -8 25.5 -29.5t29.5 -26.5h19l55 37q4 4 24.5 9.5t30.5 9.5h19l55 -19q2 0 12 -1t15 -1q6 0 16 1t12 1q12 2 57.5 4.5t104.5 6.5t127 8t128 8t104 8t57 8q16 8 35.5 18.5t19.5 18.5l1 11q1 10 1 16q0 4 -1 15 t-1 14q0 8 -2 24t-5 34.5t-6 33t-5 18.5q0 8 -19.5 18.5t-36.5 18.5h-180t-186 -1t-152.5 -2t-77.5 -3q-43 -12 -55 -55q0 -4 1 -18.5t-1 -18.5q-4 -16 -18 -19h-19q-6 2 -19.5 8.5t-17.5 10.5l-55 55q-2 0 -8 1t-10 1t-10.5 -1t-8.5 -1q-8 -4 -28.5 -26.5t-26.5 -28.5 q-4 -4 -10.5 -24.5t-8.5 -31.5q0 -2 -1 -12t-1 -16z" />
<glyph unicode="`" horiz-adv-x="1026" d="M764 1884q4 -8 7 -17t5 -12q0 -4 -1 -14t-3 -14q0 -4 -4 -10.5t-4 -8.5l-14 -6q-2 0 -13.5 4t-24 7.5t-23.5 7.5t-15 4l-8 -2q-9 -2 -11 -4q-4 0 -12 -7l-8 -6q-4 -2 -9 -16t-10 -18l-12 -7l-8 -4l-4 -2q-16 0 -21 6q-10 6 -33.5 22.5t-49 36t-49 36t-31.5 22.5 q-4 4 -15.5 17.5t-19.5 21.5q-4 8 -21.5 30.5t-21.5 30.5l-6 13q0 10 -4.5 33.5t-6.5 27.5v15q0 10 4 14q-2 10 9 18q4 4 11 12.5t11 10.5q2 0 16.5 7t22.5 11q10 4 25.5 10.5t17.5 6.5q4 2 14 2h17q14 4 20 -6q4 -2 12.5 -7.5t10.5 -9.5q2 -2 10 -14t17.5 -26.5t16.5 -28 t9 -15.5q6 -6 15.5 -18.5t20.5 -24.5t19.5 -22.5t12.5 -12.5q2 -2 11 -6t18.5 -8t18.5 -8t11 -4q8 -4 23.5 -12.5t19.5 -10.5q4 -4 13 -10l10 -6q0 -2 5 -12.5t9 -16.5z" />
<glyph unicode="a" horiz-adv-x="1253" d="M729 555q-4 0 -15.5 -1t-13.5 -1q-10 -2 -36.5 -7t-55 -11.5t-55.5 -11.5t-37 -7l-37 -37l-110 -73q-10 -8 -28.5 -21.5t-18.5 -15.5v-258q0 -4 -10.5 -17.5t-16.5 -19.5q-4 -4 -18.5 -11.5t-18.5 -7.5h-12q-10 0 -22.5 -1t-28.5 -1h-21h-16q-10 0 -24.5 1t-24.5 1h-17 q-4 2 -16.5 11.5t-24.5 21.5t-21.5 24.5t-11.5 16.5q0 2 -2 15.5t-2 19.5q0 8 2 22.5t2 16.5t6.5 10t12.5 17.5t12 17.5t6 10t1 11.5t1 15.5q0 4 -1 15t-1 13q0 4 -9 18.5t-9 18.5q0 2 -1 19.5t-1 27.5t1 26.5t1 18.5t6 19.5t15.5 40t18.5 47t15 41.5l74 184q6 12 15 33.5 t18.5 42t15.5 36.5l6 17l55 55q6 10 21.5 31t15.5 25v20q0 16 -1 34.5t-1 35.5q0 18 2 20q2 6 12.5 31t22.5 52.5t23.5 52t15.5 30.5l111 295q2 6 8 19.5t10 17.5q4 6 13.5 18.5t17.5 24.5t15 21.5t9 9.5l13 3q14 3 32.5 6t37 5t28.5 4h8h10q6 -2 13.5 -4t17.5 -6 q23 -6 26 -8t7 -19q2 -18 19.5 -24t27.5 -13l37 -36q4 -4 10 -17.5t8 -19.5q2 -10 10.5 -33t16.5 -49.5t16.5 -50t12.5 -33.5q0 -2 2 -11.5t5 -21.5t6 -23.5t5 -17.5q2 -18 13.5 -65.5t23.5 -99.5t22.5 -100t14.5 -67q2 -10 5 -24.5t6 -28.5t5 -25.5t2 -13.5q2 -10 3 -36.5 t1 -37.5h-78q-4 -10 3.5 -30.5t15.5 -24.5q2 -2 8 -2q8 0 18.5 1t18.5 1h10q14 -4 19 -18l92 -387q0 -2 7 -16.5t11 -20.5q2 -4 10.5 -17.5t17.5 -29t17 -29.5t11 -16q4 -8 11 -37t7 -37q0 -2 1 -19.5t1 -27.5t-1 -26.5t-1 -18.5q0 -4 -7 -17.5t-11 -19.5l-37 -37h-43 q-12 0 -23.5 -1t-17.5 -1q-10 0 -22.5 1t-24.5 1h-35q-10 2 -37 15.5t-37 21.5q-4 2 -17.5 23.5t-19.5 31.5l-37 74q-4 6 -9 25.5t-9 29.5q-2 6 -7 26.5t-11.5 44t-11.5 45t-7 32.5l-18 92q-4 16 -10.5 42.5t-8.5 31t-8 11.5t-10 7l-10 1q-11 1 -17 1zM203 645v-18h18v18 h-18zM627 1143l-37 -74q-6 -10 -18.5 -39t-28 -61.5t-27.5 -61t-18 -41.5q6 0 23.5 -1t21.5 -1q10 0 27.5 1t19.5 1q8 0 32.5 4t43.5 9q27 8 34 24l1 6q1 6 1 11q0 4 -1 11t-1 9q-2 8 -7 28.5t-11 44t-11 45t-7 29.5q-2 4 -8.5 18.5t-10.5 18.5q-4 15 -18 19z" />
<glyph unicode="b" horiz-adv-x="1308" d="M55 682q-4 6 -9 21.5t-10 34t-10.5 33.5t-7.5 22q0 2 -1 22.5t-1 30.5t1 31.5t1 25.5t9.5 27.5t9.5 27.5l18 166q0 4 2 20.5t5.5 35t6.5 35t5 20.5q6 -2 26 -2q25 0 29 2q14 4 18 18q0 2 1.5 9.5t1.5 11.5t-2 10l-1 6q-2 2 -13 13.5t-23.5 23.5t-23.5 22.5t-13 14.5 q-6 6 -14.5 22.5t-16.5 34t-15.5 32.5t-9.5 22q0 2 -1 11t-2 21.5t-2 23.5t-1 17q0 10 2 30.5t4 25.5l19 18h147l37 37h211q0 -4 -3 -9t-5 -10q-2 -2 -10 -7t-17.5 -11t-17.5 -11t-10 -7l-1 -6q-1 -7 -1 -11t1 -11t1 -9q2 -10 9 -30.5t9 -25.5q0 -2 7 -3t12 -1q14 0 18 4 q4 2 9 17.5t9 19.5q2 2 15.5 8.5t21.5 10.5q4 0 27.5 7t28.5 11l55 55q6 4 26.5 10.5t28.5 8.5q2 0 22.5 1t30.5 1t32 -1t26 -1q6 0 39.5 -7t52.5 -12q16 -4 43 -10t31 -8l73 -37q6 -4 29 -18.5t27 -18.5q2 -4 10 -12t17 -17.5t16.5 -16.5t11.5 -9q10 -10 15 -27.5t9 -25.5 q4 -16 8.5 -35t4.5 -23v-12q0 -10 1 -22.5t1 -28.5v-21v-20q0 -12 -1 -25.5t-1 -25.5v-10q0 -4 -7.5 -25t-11.5 -31q-2 -4 -8 -18.5t-10 -18.5l-74 -110l-1 -4q-1 -4 -1 -6l2 -9q4 -14 19 -18q4 -4 23.5 -14.5t42 -22.5t41 -22.5t22.5 -14.5t15 -14t22.5 -21.5t21.5 -22.5 t14 -16q2 -4 8.5 -15t12.5 -23.5t11 -22.5t5 -12t1 -24.5t1 -35.5q0 -12 -1 -38.5t-1 -30.5q0 -10 -2 -28.5t-5 -39t-6 -38t-5 -23.5t-7 -19.5t-11.5 -28t-11.5 -27.5t-7 -17q-4 -6 -14.5 -18.5t-21.5 -28t-21.5 -28t-16.5 -18.5q-4 -4 -16 -14t-27.5 -22.5t-29 -22.5 t-19.5 -14q-2 -2 -18.5 -11.5t-37 -20.5t-41 -23.5t-32.5 -18.5q-8 -4 -21.5 -11.5t-15.5 -7.5h-10h-19h-18h-8q-2 0 -7 -5t-11.5 -11t-11.5 -12t-7 -8l-37 -19q-6 -4 -27.5 -9t-27.5 -9l-74 -19q-4 -2 -20.5 -8t-36 -12t-35.5 -11.5t-18 -5.5q-6 0 -26 -2t-42.5 -5l-45 -6 t-34.5 -5h-29h-26q-4 0 -24.5 7t-31.5 11l-36 19q-4 0 -18.5 -1t-18.5 1q-8 4 -34 18.5t-42 24.5q-14 10 -21.5 21.5t-13.5 27.5q-2 6 -5 24.5t-6 39t-5 40t-2 25.5q-2 25 -5 84t-6.5 127t-5.5 128t-2 85zM274 406q0 -29 17.5 -36.5t40.5 -19.5l92 -55l8 -2q2 0 6 1l4 1 q6 4 28 17.5t28 19.5h184q10 0 15 11t3 26q-4 14 0 18q2 4 15.5 17.5t21.5 19.5l148 111q27 20 42 41.5t31 50.5q4 6 11.5 20.5t7.5 16.5t-4 11t-10.5 21.5t-12.5 23.5t-10 17q-4 4 -10 11.5t-8 7.5h-11h-18h-19h-8q-6 0 -28.5 6t-47 12t-46 12.5t-25.5 6.5q-2 0 -17.5 1 t-23.5 1q-4 0 -17.5 -1t-15.5 -1l-332 -119v-195q-6 -6 -19 -27.5t-18 -27.5l-1 -7q-1 -7 -1 -11zM311 1122q0 -6 1 -19t1 -16q0 -4 7.5 -10t11.5 -8h8h10q14 2 45 10t64 16.5t59.5 16.5t34.5 12q6 2 18.5 7.5t27.5 11.5l27.5 11t18.5 7q2 2 19.5 12.5t38 21.5t41 22.5 t30.5 17.5t31.5 20.5t23.5 16.5q2 0 3.5 7t1.5 11t-1.5 11.5t-3.5 7.5q-4 4 -24.5 16t-30.5 21q-4 4 -24.5 9t-30.5 9q-8 2 -22.5 5l-29 6t-26.5 5t-14 2h-17q-16 0 -34.5 1t-38.5 1h-31h-23q-16 0 -35.5 -1t-35.5 -1h-25q-16 -10 -24.5 -24.5t-12.5 -30.5q0 -2 -2 -11 t-5 -21.5t-6 -23.5t-5 -18q-4 -18 -11.5 -52t-7.5 -40q0 -2 -1 -16.5t-1 -22.5zM571 1677q14 0 15 -18q0 -18 -15 -19q-14 0 -14 19q0 18 14 18z" />
<glyph unicode="c" d="M18 332v30q0 25 -1 51.5t-1 51.5v33v45q0 29 1 53.5t1 44.5v23q0 8 7.5 41.5t11.5 50.5q2 12 10 37.5t16.5 52t16.5 48t12 28.5q6 16 26.5 58t44 89t45 89t32.5 59q6 8 21 30.5t32.5 49t33 51t23.5 34.5q2 2 10.5 11.5t16.5 18.5t16 16.5t13 9.5q4 4 27.5 9t27.5 9 t9 27.5t9 27.5q2 2 23.5 15.5t32.5 21.5l36 19l74 18l184 55q2 0 8.5 1t10.5 1t11 -1l7 -1q4 -2 17.5 -8t19.5 -10q10 -6 27.5 -17.5t36 -23.5t32 -21.5t15.5 -11.5q4 -4 11 -17t7 -20v-10q0 -10 1 -22.5t1 -24.5v-20q0 -16 -1 -42t-1 -28q0 -4 -5 -18.5t-11 -33 t-12.5 -35.5t-8.5 -24q-2 -4 -8 -11t-10 -7q-2 0 -20.5 -1t-28.5 -1t-25.5 1t-17.5 1q-4 2 -14.5 10t-22.5 17.5t-23.5 17.5t-13.5 10q-2 0 -12.5 1t-14.5 1t-15 -1t-13 -1l-10 -5q-11 -5 -23 -11t-24.5 -12.5t-16.5 -8.5l-55 -36q-6 -4 -18.5 -16.5l-28 -28t-27.5 -29 t-18 -19.5l-74 -92l-92 -92q-8 -8 -22.5 -29.5t-14.5 -25.5v-15v-22v-25v-12q0 -4 -5 -17.5t-11.5 -28.5t-12.5 -29.5t-8 -16.5q-4 -10 -10 -28.5t-12.5 -36t-10.5 -31t-4 -15.5t-1 -11t-1 -26q0 -12 -1 -27.5t-1 -21.5q0 -8 1 -21.5t1 -25.5t1 -21.5t1 -11.5q2 -8 8 -27.5 t15.5 -40t17.5 -38t14 -23.5h19h18l92 19q12 2 35 7t46.5 11t43 11.5t23.5 7.5l37 18l129 55q2 0 14 7.5t26.5 16.5t29 18.5t22.5 13.5q6 4 27.5 18t27.5 19q6 6 18.5 15t23.5 18.5t20.5 15.5t11.5 6q2 2 10 13t17.5 23.5t17.5 22.5t10 15q4 4 13.5 13t17.5 18.5t15 16.5 t9 7t14.5 1t18.5 1q8 0 23.5 -1t17.5 -1q4 0 18.5 -7t18.5 -12l37 -36q4 -6 11 -19.5t7 -17.5q0 -2 1 -25.5t1 -40.5q0 -12 -1 -35.5t-1 -27.5t-7 -24.5t-11 -31.5q-4 -8 -10 -21t-8 -15q-8 -10 -30 -31t-26 -25q-4 -2 -15 -4t-23.5 -4t-22.5 -5t-12.5 -5t-5.5 -10.5 t-6 -17.5t-5 -17t-2 -11l-18 -18q-12 -10 -38 -26.5t-52.5 -35t-48 -32.5t-27.5 -17q-4 -4 -20.5 -12t-35 -17t-34 -16.5t-21.5 -9.5q-2 -2 -13 -4t-24.5 -5t-24 -5t-12.5 -4q-2 0 -10 -5.5t-17 -11.5t-17.5 -12t-10.5 -8q-4 -2 -24.5 -8t-30.5 -11q-16 -4 -43 -11t-31 -7 h-16h-74h-31h-33h-71h-15q-4 0 -24.5 7t-30.5 11q-8 4 -21.5 10.5t-15.5 8.5q-8 6 -22.5 19.5t-28.5 28.5t-26.5 27.5t-14.5 16.5q-2 2 -8 23.5t-10 31.5l-19 74q-4 10 -17.5 37t-19.5 37z" />
<glyph unicode="d" horiz-adv-x="1327" d="M74 166q0 16 1 57t1 88q0 49 -1 91t-1 59q0 4 -3 23.5t-6.5 41t-6.5 41t-3 23.5v28v27q0 4 9.5 27.5t9.5 27.5q0 2 1 27t1 37q0 14 -1 37.5t-1 27.5q-2 10 -8.5 37t-10.5 37v406q-4 2 -10 13t-12 23.5t-10.5 22.5t-4.5 14q0 2 -1 21.5t-1 30.5q0 10 1 33.5t1 25.5 q0 4 7.5 17.5t11.5 19.5t18.5 19.5t18.5 17.5q6 4 26.5 10t28.5 8h33h41q23 -2 67.5 -5t92 -6t86 -5t49.5 -2q2 0 16 -2t31.5 -5.5t35 -6.5t27.5 -5q4 0 17.5 -2t29 -5t28.5 -6t17 -5q-2 -6 -2 -37t2 -37q0 -4 7.5 -10t11.5 -8q2 0 14 -1t23 -1q6 0 20.5 1t16.5 1q4 0 17 7 t19 11q2 2 9.5 10.5t9.5 8.5l10 1t16 1q4 0 15.5 -1t13.5 -1q6 -2 26.5 -8.5t28.5 -10.5l56 -37l55 -18l37 -19q2 -4 15.5 -14t28.5 -21.5t28.5 -21.5t19.5 -16q39 -35 63.5 -77t47.5 -89q0 -8 1 -25.5t1 -40.5q0 -20 1 -38.5t1 -24.5q0 -12 -1 -32.5t-1 -43.5 q0 -20 -1 -35.5t-1 -17.5q0 -4 -5.5 -18.5t-11.5 -32l-12 -35t-8 -25.5q-4 -6 -14.5 -26.5t-21.5 -44t-21.5 -46t-16.5 -30.5q-10 -16 -26.5 -46t-35 -59.5t-32.5 -53.5t-17 -26q-4 -4 -24.5 -25.5t-47 -48l-53 -53t-40.5 -39.5q-4 -4 -15.5 -13t-26 -20.5t-28.5 -22.5 t-23 -17l-55 -37l-92 -55q-4 -4 -16.5 -10.5t-24.5 -12.5t-23 -10l-10 -4q-4 -2 -20.5 -4t-36 -5.5t-35.5 -5.5t-18 -4q-2 0 -7.5 -5t-11.5 -11t-11 -12.5t-7 -8.5q-6 -4 -19.5 -11t-17.5 -7h-203q-4 0 -17.5 7t-19.5 11l-37 37q-4 4 -15 20.5t-23.5 35t-22.5 34t-12 21.5z M276 498l37 -74q0 -2 2 -10t5.5 -17.5t6.5 -17.5t5 -10l10 -3q10 -4 25.5 -7t31 -5t25.5 -4h10h8l56 56l92 55q12 8 29.5 19.5t35 22.5t30.5 20t15 12q8 6 30 26.5t45.5 44t44 45t28.5 31.5q2 2 12 16.5t22.5 33t22.5 34.5t17 27q4 8 18 35.5t25 50.5q4 10 7 15t5 9 q4 6 10 27.5t8 27.5v19q0 33 -16 53.5t-39 38.5l-74 55l-110 56q-4 2 -24.5 8t-31.5 10q-12 2 -32.5 8t-41 12.5t-37 11.5t-18.5 5q-4 0 -25.5 2t-48 5t-52 6t-39.5 5h-31h-25q-14 -4 -18 -18q0 -8 -2 -28.5t-5 -45t-6.5 -45t-5.5 -29.5q-2 -6 -5 -21t-6 -30.5t-5 -27 t-2 -13.5q0 -4 -6 -14t-12.5 -22.5t-12.5 -23.5t-6 -13t-1 -17.5t-1 -25.5t1 -27.5t1 -22.5q0 -4 3 -17t6 -28.5t6 -29t3 -17.5q0 -16 1.5 -48t1.5 -73q0 -39 -1.5 -72.5t-1.5 -45.5z" />
<glyph unicode="e" d="M16 782q0 14 1 39t1 27t7.5 23.5t11.5 31.5l37 92q2 4 5 17.5t6 29t5 28.5t2 17q2 16 5 58.5t6 89.5t5.5 89t2.5 58q2 4 9 14.5t16 23t17.5 22.5t12.5 14q6 6 19.5 20.5t17.5 16.5q2 0 13 4t25.5 10t30 12.5t23.5 10.5q90 35 182 49t187 25q4 -6 25.5 -21.5t29.5 -15.5 q2 0 18.5 -2t26.5 -2t27.5 2t19.5 2q6 2 20.5 15t16.5 22h221q2 0 17.5 -12.5t25.5 -28.5q4 -4 7 -7.5t5 -7.5q4 -6 10.5 -27.5t8.5 -27.5q0 -2 1 -23.5t1 -31.5t-1 -32t-1 -24q-2 -6 -8.5 -19t-10.5 -17.5t-24.5 -10.5t-30.5 -8h-29h-26q-4 0 -17.5 3t-29 6t-28.5 6.5 t-17 3.5t-30 1t-38 1t-35.5 -1t-25.5 -1q-4 0 -20.5 -5.5t-37 -11.5l-41 -12t-30.5 -8l-222 -74q-8 -6 -28.5 -27.5t-26.5 -27.5q-4 -4 -10 -24.5t-8 -31.5q0 -2 -1 -16t-1 -21q0 -4 1 -18t1 -18q20 6 72.5 18t111.5 27.5t111.5 28t72.5 18.5q8 2 22.5 5l29 6t25.5 5t15 2 t29 1t37 1t36.5 -1t26.5 -1q4 0 17.5 -7t19.5 -11q14 -4 19 -19q4 -6 11 -19t7 -18q0 -2 1 -13t1 -15t-1 -14.5t-1 -12.5q-2 -4 -7 -15t-11 -22.5t-11.5 -21.5t-7.5 -15q-10 -6 -35.5 -19t-55.5 -28.5t-56.5 -29t-36.5 -15.5q-10 -4 -40 -13t-68.5 -22.5t-84 -29t-85 -28.5 t-69.5 -22.5t-40 -13.5l-36 -18l-38 -19q-14 -4 -18 -18q-4 -6 -11.5 -19.5t-7.5 -17.5v-12q0 -10 -1 -22.5t-1 -28.5v-21v-20q0 -12 1 -25.5t1 -26.5v-10q0 -6 7.5 -27.5t11.5 -27.5q2 -6 10 -17.5t16.5 -23.5t16.5 -21.5t12 -11.5q2 0 18.5 -1t26.5 -1t27.5 1t19.5 1 t12.5 2t22.5 5t22.5 6.5l16.5 5.5q14 6 41 14t53.5 17.5t47 15.5t24.5 8q2 2 23.5 13.5t48 25.5t53 28.5t41.5 24.5q6 4 26.5 17.5t28.5 19.5q6 2 27.5 18.5t46 36t46 35.5t27.5 21q10 6 37 19t37 17q2 0 8.5 1t10.5 1t11 -1l7 -1q4 -2 17.5 -16t19.5 -20q4 -6 11 -19.5 t7 -17.5v-11q0 -10 1 -22t1 -25v-20q0 -16 -1 -42t-1 -28q0 -8 -15 -35.5t-21 -37.5l-93 -93q-4 -4 -14 -11t-21.5 -16.5t-21.5 -16.5t-16 -11q-14 -8 -38 -22.5t-47.5 -30t-42 -26.5t-20.5 -13t-14 -2q-10 0 -23.5 1t-23.5 1h-13q-4 -2 -18 -8t-18 -11l-74 -73 q-4 -4 -17.5 -10.5t-19.5 -8.5l-74 -18l-37 -19q-4 -2 -20 -5t-34.5 -6t-35 -5t-20.5 -2h-55h-56q-10 0 -28.5 2t-36 5t-30.5 6t-15 5q-4 2 -19.5 15.5t-34 32t-35 36t-22.5 27.5q-2 2 -7 12.5t-11.5 22.5t-11.5 23.5t-7 15.5q-4 10 -11 37.5t-7 35.5v21v35v35v20 q0 4 -9.5 27.5t-9.5 27.5q-2 8 -4 41t-5 70t-5 68.5t-4 42.5q0 4 -9.5 27.5t-9.5 27.5q0 2 -1 26.5t-1 36.5z" />
<glyph unicode="f" horiz-adv-x="1216" d="M16 823q0 10 1 25.5t1 17.5l4 10q5 11 11 23t12 24.5t10 16.5l19 18q6 6 15 18.5t18.5 24t15.5 20.5t6 11l1 10q1 11 1 17q0 4 -1 15t-1 13q0 4 -9 18.5t-9 18.5q-2 4 -5.5 25.5t-6.5 47.5t-5 47.5t-2 27.5q0 4 -9 27.5t-9 27.5v21v34v35v21q0 4 -8.5 18t-10.5 19 q0 2 -1 8t-1 10t1 11l1 7q4 14 19 19q6 2 21.5 9t32.5 16.5t33.5 17.5t22.5 12q37 16 72 21.5t76 15.5l74 18l92 19l147 18h10h9q4 -4 11 -9t7 -9t-8 -18.5t-10 -18.5q0 -2 -1 -9t-1 -11t1 -10l1 -7q4 -4 16 -10t20 -8q2 0 16.5 -1t22.5 -1q6 0 19.5 1t15.5 1q16 4 43 17 t31 20q2 4 6 15t8 23.5t6 22.5t2 16q10 0 25.5 -1t26.5 -3q14 0 52 -5t66 -9q10 -2 17 -2q8 0 12 -2q6 -2 27.5 -8t27.5 -10.5t29 -18.5t27 -18.5t11 -18.5t7 -18v-11q0 -10 1 -21t1 -24v-18v-20q0 -10 -1 -22.5t-1 -23.5v-8q0 -4 -7 -18.5t-11 -18.5t-13.5 -13t-17.5 -18.5 t-15.5 -16.5t-9.5 -7q-4 -2 -28.5 -4t-36.5 -2t-36 2t-28 4q-10 2 -28.5 14.5t-39 26.5t-38 28.5t-23.5 22.5q-2 0 -8 1t-10 1t-12 -1l-7 -1l-36 -18q-4 0 -17.5 -2t-32 -5t-36 -6.5t-25.5 -5.5q-6 0 -27.5 -2t-47 -5t-47 -6t-26 -5t-16.5 -8t-26.5 -15.5t-28.5 -17.5 t-20.5 -14t-20.5 -19.5t-27 -27.5l-8 -9q-2 -2 -8 -23.5t-10 -31.5q-2 -6 -5.5 -17.5t-6.5 -23.5t-5 -21.5t-2 -11.5q-2 -8 1 -23.5t3 -23.5q6 0 18.5 -2t27 -4t26.5 -3t16 1l30 10l52.5 17.5t53 17.5t30.5 10q12 2 33 8.5t41 12.5t36.5 11t18.5 5h11q10 0 23 1t26 1h20h21 q16 0 29.5 -1t23.5 -1h12q6 0 26.5 -7t28.5 -11q10 -4 31 -18.5t25 -18.5q4 -6 11 -27.5t7 -27.5q0 -4 -7 -10.5t-11 -8.5t-18.5 0t-18.5 0t-10 -9t-12.5 -16.5t-10.5 -18.5t-4 -11q10 -16 24.5 -23.5t30.5 -13.5l-37 -37l-36 -18q-6 -2 -32 -12.5t-58.5 -21.5t-64.5 -22.5 t-48 -17.5l-55 -18l-185 -74q-10 -4 -31.5 -11.5t-23.5 -7.5q-10 0 -30.5 -1t-43.5 -1t-45 1t-29 1q-14 -4 -18 -18l-1 -7q-1 -7 -1 -11t1 -12l1 -7q0 -2 6 -10t12.5 -17.5t12.5 -17.5t6 -10q2 -4 5 -20.5t6 -36t5 -36t2 -18.5q2 -10 8.5 -36.5t10.5 -36.5l55 -166v-11v-8 q-2 -4 -10 -18.5t-8 -18.5v-20q0 -16 1 -34.5t1 -35.5q0 -18 -2 -20q0 -2 -7.5 -9.5t-16.5 -15.5t-18.5 -17t-13.5 -13.5t-18 -11.5t-19 -7h-61h-49q-4 0 -11.5 7t-16.5 16.5t-17 17.5t-10 14q-2 2 -8.5 23.5t-10.5 32.5q-4 16 -11 42.5t-7 30.5v27v45v47v29q0 12 -2 45 t-5.5 67.5t-6.5 66.5t-5 42q0 8 -6 41t-12 69.5t-12.5 68.5t-6.5 42q0 4 -1 21.5t-1 27.5z" />
<glyph unicode="g" horiz-adv-x="1382" d="M37 313q0 4 -1 13.5t-1 13.5q0 6 1 16.5t1 12.5t5 13t11 23.5t12.5 22.5t8.5 14l2 9q0 2 -1 6l-1 4l-37 37q-4 4 -10.5 17t-8.5 20v8v10q2 12 5.5 35.5t6.5 47t5 42t2 22.5l18 74q4 6 9.5 27.5t9.5 27.5l18 37l37 111q8 16 19.5 41.5t22.5 49.5t20.5 40t11.5 16h71 q0 4 1 9.5t1 9.5l-18 55q0 2 -1 9t-1 12q0 4 1 10l1 6q2 2 15.5 23.5t21.5 31.5l55 74l37 37q4 2 17.5 10t29 17.5t28.5 16.5t17 11t14.5 24.5t14.5 35.5q12 27 27 32q10 6 31.5 17.5t45 22.5t44 20.5t26.5 13.5q10 4 36.5 10t37.5 8q4 0 27.5 1t35.5 1q14 0 39 -1t27 -1 q4 0 24.5 -7t30.5 -11q6 -4 17.5 -9t23.5 -10.5t21.5 -10.5t11.5 -7q6 -8 28.5 -27.5t26.5 -27.5q4 -6 11 -27.5t7 -27.5q0 -4 1.5 -31t1.5 -43q0 -10 -1.5 -37t-1.5 -37q-6 -8 -27.5 -28.5t-27.5 -26.5q-4 -4 -18.5 -11.5t-18.5 -7.5q-2 0 -20.5 -1t-28.5 -1t-25.5 1 t-17.5 1q-4 2 -20.5 12.5t-35 24t-34.5 24.5t-20 13q-2 0 -8.5 1t-10.5 1t-10 -1t-8 -1q-6 -6 -22.5 -21.5t-34 -33t-33 -33.5t-21.5 -22q-8 -8 -29.5 -34t-45 -55.5t-44 -57.5t-28.5 -38q-4 -4 -18.5 -25.5t-31 -48t-34 -53t-27.5 -39.5l-55 -92l-37 -55q-4 -8 -11.5 -21.5 t-7.5 -15.5v-313q0 -4 6.5 -12.5t15.5 -17.5t18.5 -16.5t15.5 -9.5q2 0 23.5 -1t33.5 -1t40 1t32 1q2 0 30.5 7.5t43.5 11.5q10 2 29.5 8t41 12t37.5 11.5t21 5.5q2 0 15 7t21 11q20 10 53 28.5t65 36t56.5 31t28.5 15.5q2 2 12.5 9t22.5 16t23.5 17.5t15.5 12.5 q6 6 18.5 17.5t24.5 23.5l22 22l9 11q2 2 3 15t1 20q0 8 -1 22t-3 16q-2 4 -16.5 18.5t-20.5 18.5q-4 4 -24.5 10.5t-31.5 8.5h-18h-18l-56 -19q-4 -2 -23.5 -10t-41 -17.5t-41 -17.5t-23.5 -10h-14q-10 0 -23.5 1t-23.5 1t-12 -2q-4 -2 -14.5 -13.5t-23 -23.5t-23.5 -23.5 t-13 -13.5q-2 0 -12.5 -2t-14.5 -2t-15 2t-13 2q-4 2 -17.5 15.5t-19.5 21.5q-4 4 -10.5 18.5t-8.5 18.5q0 2 -2 13.5t-5 26.5t-6 30.5t-5 21.5v8v11q2 6 8 26.5t10 28.5l19 37q4 6 18 19.5t19 17.5q10 8 41.5 24.5t66.5 33.5t67.5 31.5t45.5 20.5q10 4 36.5 11.5t36.5 7.5 h19q16 0 37.5 1t44.5 1h37h26q23 0 43.5 -1t40.5 -1h29q4 -2 15.5 -7.5t22.5 -11.5t21.5 -11t14.5 -7q6 -4 17 -14.5t22.5 -22.5t20.5 -23.5t13 -13.5l1 -6t1 -10t-1 -11.5t-1 -9.5t-6 -10t-12 -17.5t-12 -17.5t-6 -10q0 -4 -2.5 -30.5t-2.5 -43.5q0 -10 2.5 -36.5 t2.5 -37.5q4 -4 18 -10t18 -8q2 0 16.5 -2t30 -5t28.5 -6t18 -5q2 -2 8 -16.5t10 -20.5v-11v-8q-2 -4 -8 -14t-12.5 -22.5t-11.5 -23.5t-5 -13v-11v-18v-19v-8q-2 -6 -16.5 -27.5t-20.5 -27.5q-12 -14 -37.5 -41t-52 -53.5t-48.5 -47t-28 -24.5q-2 -2 -21.5 -12t-46 -24.5 t-54 -30t-44.5 -25.5q-6 -4 -22 -12.5t-33.5 -17.5t-33 -16t-21.5 -9t-18.5 -7.5t-28 -11.5t-27.5 -11t-18 -7q-14 -6 -40 -14.5t-52.5 -16.5t-47 -15.5t-26.5 -9.5q-4 -2 -20.5 -5t-35 -6t-35 -5t-20.5 -2h-10h-47h-19h-71q-4 0 -31 7t-43 11q-10 4 -30.5 10.5t-24.5 8.5 q-4 4 -24.5 16.5t-31.5 20.5q-4 4 -11 10t-7 8v17q0 16 1 30.5t1 26.5q0 16 -2 18q-4 8 -16.5 26.5t-26.5 40t-27.5 39t-21.5 23.5zM958 485q-4 0 -18 -2t-18 -4q-14 -4 -19 -18h55v24z" />
<glyph unicode="h" horiz-adv-x="1013" d="M700 129q0 2 7.5 8t11.5 10q6 4 26.5 18.5t28.5 18.5v129q-10 2 -36.5 8.5t-37.5 10.5q-14 4 -18 18q-4 10 -11 37t-7 37q-2 20 -5.5 72.5t-6.5 112t-5 111.5t-2 73h-29h-26q-2 0 -14.5 -2.5t-26.5 -5.5t-28.5 -6t-22.5 -5q-4 0 -14.5 -3t-22.5 -6t-23.5 -6t-13.5 -3h-18 h-29h-29h-16q-2 0 -8.5 -7.5t-10.5 -11.5q-10 -10 -23.5 -31.5t-13.5 -23.5v-479q-6 -10 -19 -37t-17 -37v-10v-8l18 -56v-10v-8q-2 -4 -8 -11.5t-10 -7.5q-2 0 -20.5 -1t-29.5 -1q-10 0 -25 1t-18 1q-2 0 -7 8.5t-11 18.5t-11 18.5t-7 10.5q-4 2 -15.5 12t-24 22.5 t-22.5 23.5t-12 15q-4 8 -11.5 36t-7.5 38v461q2 4 7.5 14.5t11.5 21.5t11 22.5t7 15.5q0 2 1 11t1 15q0 4 -1 15.5t-1 13.5q0 4 -9 27.5t-9 27.5t-1 26.5t-1 39.5q0 12 1 35.5t1 27.5q2 18 12 86t22.5 151t22.5 160.5t17 118.5q0 6 4 25.5t8 34.5q10 25 24 33q6 2 32 4 t32 2h16t21 -2q25 -2 29 -3t14 -12l33.5 -33.5t25.5 -29.5q0 -2 1 -11.5t1 -15.5q0 -4 -1 -15t-1 -13t-5 -10.5t-11 -17.5t-12.5 -17.5t-8.5 -10.5v-10v-8l19 -55v-27q0 -45 -9.5 -88t-9.5 -88v-37q4 -2 20.5 -5t35 -6t35 -5.5t20.5 -2.5q2 0 23.5 -1t31.5 -1q6 0 27.5 1 t28.5 1q2 4 8 18.5t10 18.5l18 19q2 2 12.5 4t24 5t24.5 5t13 4q4 4 18.5 17.5t18.5 19.5q4 4 11 27.5t7 27.5q2 2 8.5 10.5t12.5 17.5t11 17.5t5 10.5q2 8 5 29.5t6.5 44t5.5 44t2 29.5q4 2 18 8t19 11q6 6 20 19t16 17l1 7q1 8 1 12t-1 10t-1 8t-6 13.5t-12 23.5t-12 22.5 t-6 14.5q-2 6 -5.5 27.5t-3.5 27.5h156q4 0 16.5 -13t20.5 -24q4 -4 11 -18t7 -18v-33v-41q0 -8 -2 -28.5t-5 -45t-6 -45t-5 -29.5l-19 -73q-2 -6 -4 -14.5t-6 -18.5q-6 -23 -8 -23l-10 -10q-10 -10 -27.5 -25.5t-17.5 -19.5q-2 -4 5 -26.5t13 -28.5q0 -2 6 -7.5t12.5 -11.5 t12.5 -11t6 -7q4 -8 10 -36t8 -38q0 -2 1.5 -23.5t1.5 -31.5q0 -47 -8.5 -78t-30.5 -70v-34q0 -23 -1 -51.5t-1 -55.5v-35v-45q0 -29 1 -55.5t1 -48.5v-25q0 -2 2 -19.5t5 -41l6 -47t5 -39.5q0 -4 3 -23.5t6 -41t6 -41t3 -23.5v-17q0 -10 1.5 -27.5t1.5 -33.5v-23 q0 -16 -1.5 -39.5t-1.5 -25.5l-36 -37q-2 0 -22.5 -1t-31.5 -1q-8 0 -20 1t-25 1h-30q-4 0 -18.5 7t-18.5 11.5t-18.5 26t-18.5 29.5q-4 10 -11.5 30.5t-7.5 24.5zM829 811q-14 0 -14 -18t14 -19q14 0 15 19q-1 18 -15 18z" />
<glyph unicode="i" horiz-adv-x="331" d="M16 580v38q0 29 1 59t1 58v39q4 4 15.5 17.5t23 28t21.5 27.5t14 19l1 6q1 7 1 11t-1 11t-1 9t-5 12.5t-11 22.5t-12.5 23.5t-8.5 15.5q-2 2 -8 10t-12 17.5t-11.5 17.5t-5.5 10v31v43q0 14 2.5 50t5.5 74t6 71.5t5 44.5q0 8 2 26.5t5 40t6 38.5t5 24l19 55l18 37 q6 10 19.5 23.5t17.5 13.5q2 2 24.5 3t32.5 1t31 -1t23 -3q2 0 9 -7.5t15 -16.5t17.5 -18.5l13.5 -13.5t10 -18t8 -19q0 -2 1 -9t1 -11t-1 -10l-1 -6l-55 -93l-1 -4q-1 -4 -1 -6l2 -8q2 -2 8 -10t12.5 -17.5t11.5 -17.5t5 -10v-11q0 -8 1 -20t1 -25v-20v-23q0 -12 -1 -27.5 t-1 -27.5v-12q-2 -23 -7 -80t-11.5 -121.5t-11.5 -123t-7 -81.5q-4 0 -10 -7t-8 -11q0 -2 -1 -15.5t-1 -19.5q0 -8 1 -22.5t1 -16.5q0 -4 9 -27.5t9 -27.5t-3 -14.5t-6 -22.5t-6 -23.5t-3 -13.5q0 -4 -1 -31.5t-1 -40.5q0 -12 1 -33.5t1 -23.5q0 -4 8 -15.5t18 -23.5 t18.5 -22.5t10.5 -12.5q4 -6 10 -27.5t8 -27.5q0 -2 1 -22.5t1 -30.5t-1 -31.5t-1 -26.5q0 -6 -2 -25.5t-5 -40t-6 -38.5t-5 -25q-4 -4 -18.5 -10t-18.5 -8h-39h-35q-8 0 -35.5 15.5t-37.5 21.5q-4 4 -18.5 17.5t-18.5 19.5q-8 10 -14.5 26.5t-10.5 24.5q-4 16 -8 34.5 t-4 24.5q-2 12 -5 42t-6 63l-5.5 60.5t-2.5 37.5v27q0 23 -1 53.5t-1 62.5v50zM55 645q-10 4 -10 -10q0 -12 9 -8t9 8q0 8 -8 10z" />
<glyph unicode="j" horiz-adv-x="1290" d="M16 332v18q0 12 1 23.5t1 21.5v11q0 4 7.5 17t11.5 19.5t18 20.5q16 16 19.5 17t15.5 3q20 4 45 7.5t31 7.5q2 0 9 8t9 10q6 4 20.5 11.5t16.5 7.5q6 0 19.5 -7.5t17.5 -11.5q2 -4 10 -17.5t17.5 -28.5t17.5 -28.5t10 -17.5q4 -4 17.5 -18.5t19.5 -18.5l37 -18l55 -37 q6 -6 20.5 -19.5t16.5 -17.5q2 -2 4 -10.5t4 -17.5t5.5 -17t5.5 -10q4 -8 18 -21.5t19 -15.5q2 0 12 -1t14 -1q6 0 16.5 1t12.5 1l10 10l17.5 17.5t16.5 17.5t11 10q2 2 12 2h25q12 0 22.5 -1t14.5 -1q6 0 21.5 2t30.5 5t26.5 6t13.5 5.5t19.5 13.5t38 26.5t41 29.5t30.5 23 q6 6 27.5 26.5t27.5 28.5q4 4 10.5 18.5t8.5 18.5q2 16 5 58t6 89t5 89t2 59v8v10q-2 12 -5 32.5l-6 41t-5 36t-2 19.5q-2 6 -10.5 37t-17.5 64.5t-17 64.5t-11 37q0 2 -1 14.5t-1 16.5q0 6 1 15l1 9q4 6 25 14.5t31 4.5l-74 73q-6 6 -17.5 15.5t-23.5 18.5t-23 15l-10 7 q-2 2 -16 3t-21 1q-8 0 -21 -1t-15 -3q-4 -2 -15.5 -10.5t-24 -17.5t-22.5 -17.5t-12 -10.5q-4 -2 -24.5 -8t-30.5 -10q-4 -2 -15.5 -5t-24 -6t-22.5 -5t-12 -2h-10h-9q-12 2 -33.5 5t-42 6t-37.5 5l-16 2q-8 4 -21 17.5t-15 19.5q0 10 -1.5 36.5t-1.5 37.5v18 q0 12 1.5 23.5t1.5 21.5v10q0 4 7 17.5t11 19.5q4 14 18 19q6 4 19.5 11t17.5 7h8h19h18h11q2 0 9 8t9 10q6 4 26.5 10.5t28.5 8.5t25.5 5l35 6t32 5t18.5 2h26q29 0 65 1t71 1h59h45q31 0 65.5 -1t65.5 -1h45q4 -2 18.5 -8t18.5 -10l37 -37q4 -6 11 -19.5t7 -17.5 q0 -2 1 -23.5t1 -31.5t-1 -31.5t-1 -23.5t-8 -9.5t-10 -9.5q-4 -8 -10 -28.5t-8 -26.5q0 -2 -1.5 -15.5t-1.5 -19.5q0 -8 1.5 -22.5t1.5 -16.5l18 -92l18 -111q2 -8 5.5 -31.5t6.5 -50t5 -51t2 -33.5v-20v-16q0 -4 -6 -14.5t-12.5 -23t-12.5 -23.5t-6 -13t-1 -19.5t-1 -27.5 t1 -26.5t1 -18.5q0 -4 6 -14.5t12.5 -22.5t12.5 -23.5t6 -13.5t1 -17.5t1 -25.5t-1 -27.5t-1 -21.5q0 -6 -2 -22.5t-5 -34t-6.5 -33t-5.5 -21.5q-4 -16 -12 -42.5t-17.5 -52.5t-16.5 -47.5t-9 -23.5q-4 -4 -18.5 -19t-30.5 -32.5t-33.5 -34t-28.5 -24.5q-4 -4 -31.5 -17.5 t-41.5 -19.5q-10 -4 -31.5 -11.5t-24.5 -7.5q-10 0 -39.5 -1t-62.5 -1q-31 0 -60.5 1t-39.5 1l-37 -18h-12h-56h-22h-33h-78h-20q-4 0 -15.5 2t-26 5t-28.5 6t-22 5l-56 19l-74 18l-55 19q-8 2 -19.5 8t-22.5 11t-20 10.5t-12 7.5q-4 2 -19 17t-33.5 32.5t-35 35t-22.5 25.5 q-4 4 -11.5 18.5t-7.5 18.5v8q0 10 -1 22.5t-1 22.5v21z" />
<glyph unicode="k" horiz-adv-x="1179" d="M829 266v10l19 74v8v11q-2 4 -8 11t-11 7h-10h-18h-19h-8q-6 2 -19.5 8t-17.5 10.5t-20.5 27t-34.5 47t-34.5 47t-20.5 26.5l-203 203q-2 0 -8 1t-10 1t-10.5 -1t-8.5 -1q-4 0 -24.5 -15.5t-30.5 -21.5q-4 -4 -10.5 -9t-8.5 -10l-18 -36q-2 -8 -5 -23.5t-6 -33t-5.5 -33 t-2.5 -21.5v-23q0 -16 -1 -39.5t-1 -46.5v-34v-33q0 -16 1 -34.5t1 -35.5v-12q0 -4 8.5 -23.5t18.5 -41t18.5 -41t10.5 -23.5q0 -2 1 -13.5t1 -15.5t-1 -14t-1 -12q-2 -4 -16.5 -17.5t-20.5 -19.5q-6 -4 -19.5 -11.5t-17.5 -7.5t-31.5 -1t-40.5 -1q-12 0 -33.5 1t-23.5 1 q-4 2 -15.5 11.5t-23.5 21.5t-22.5 23.5t-12.5 17.5q-2 2 -2 16q0 16 1 30.5t1 27.5v18q0 4 -8 18.5t-10 18.5q-2 8 -5 24.5t-6 34t-5.5 31.5t-2.5 21v34q0 33 -1 73t-1 83v68v51q0 37 1 77t1 79v51q6 2 20.5 15t16.5 22q0 4 -9 27.5t-9 27.5q0 2 -1 23.5t-1 31.5t1 31.5 t1 23.5q0 4 9 18.5t9 18.5v29v53v54v30q0 4 3 23.5t6.5 41t6.5 41t3 23.5v8v19v18v11q0 4 7 17t11 19q4 14 19 19l16 8t24.5 12t22.5 12l10 5q2 0 19.5 1t27.5 1t26.5 -1t18.5 -1q4 -2 17.5 -16.5t19.5 -20.5q4 -6 11.5 -19.5t7.5 -17.5v-369q4 2 18.5 8.5t18.5 10.5l92 55 q4 2 17.5 8t30.5 15.5t36.5 18.5t34.5 17q12 4 18 8.5t10 6.5q6 4 19.5 17.5t17.5 19.5q2 2 4 10t4 17.5t5.5 17.5t5.5 10q2 4 9 14.5t16 22.5t17.5 22.5t12.5 14.5q6 8 26.5 29.5t44 45t45 44t31.5 28.5q6 0 32 1t32 1q14 0 38.5 -1t26.5 -1q4 0 17.5 -7t19.5 -11 q14 -4 19 -19q0 -10 1 -36.5t1 -36.5v-21q0 -10 -1 -22.5t-1 -22.5v-8q0 -4 -8.5 -18.5t-10.5 -18.5v-37q-2 -6 -8 -19.5t-10 -17.5l-295 -295v-37q6 -8 24.5 -29.5t40 -45t40 -45t24.5 -27.5l55 -74q6 -8 14.5 -24.5t17.5 -33.5t15 -32.5t8 -19.5q0 -2 1.5 -12.5t1.5 -14.5 t-1.5 -15.5t-1.5 -13.5q0 -4 -8 -18t-10 -18v-11v-8q2 -2 8 -9t10 -9q6 -4 19.5 -11.5t17.5 -7.5h9h18h18h11q4 0 10 -7t8 -11l59 -119q4 -10 8.5 -17.5t6.5 -11.5q4 -10 11 -30.5t7 -24.5v-12q0 -12 1 -25.5t1 -30.5v-24v-27q0 -14 -1 -27.5t-1 -25.5v-12q0 -4 -7 -17.5 t-11 -19.5q-4 -14 -19 -19q-6 -4 -19 -11t-18 -7h-59h-51q-6 2 -19.5 15.5t-17.5 21.5v12v25v22v15q0 4 -7 18t-11 18l-56 56q-6 6 -19 27.5t-18 27.5v8zM203 442l18 -18v37z" />
<glyph unicode="l" horiz-adv-x="1161" d="M55 166q0 2 6.5 10t12.5 17.5t12 17.5t6 10t1 9.5t1 11.5t-1 10l-1 6q-4 4 -14 15.5t-21.5 22.5t-22.5 21.5t-16 14.5v51q0 39 -1 82t-1 80v53v70q0 45 1 87t1 74v37q0 8 2.5 37t5.5 63.5t6 68.5t5 52q0 8 2 28t5 40.5t6 37.5t5 23.5t7.5 26t10.5 42l10 45t9 34.5 q4 10 10.5 30.5t8.5 24.5q2 2 8 10.5t12 17.5t11 17.5t5 10.5v8v18v19v10q4 14 19 18q6 2 31.5 3t31.5 1q14 0 39 -1t27 -3q2 0 9 -7t16.5 -16t17.5 -18.5t12 -13.5q2 -4 8.5 -15.5t12.5 -23.5t11 -22.5t5 -12.5t1 -18.5t1 -26.5t-1 -27.5t-1 -19.5q-2 -6 -7 -22.5 t-11.5 -34t-11.5 -32.5l-7 -21q-4 -8 -16 -27t-27.5 -39.5t-29 -38.5t-19.5 -25q0 -2 -1 -8t-1 -10t1 -11l1 -7q2 -4 10 -18.5t8 -18.5v-33v-41q0 -6 -3 -30.5t-6 -52.5t-6 -52.5t-3 -30.5v-22q0 -18 -1 -43t-1 -47v-39v-39q0 -23 1 -45.5t1 -40.5v-19q0 -8 7 -34.5 t11 -38.5q2 -4 8.5 -18.5t10.5 -18.5t10 -11.5t8 -7.5t18.5 -1t26.5 -1t27.5 1t20.5 1q4 0 23.5 5t41 11.5t40.5 12.5t24 8l110 19l37 18q14 4 18 18l19 37q6 6 26.5 27.5t28.5 28.5l111 73q4 4 25.5 23.5t33.5 36.5q8 14 23.5 19t27.5 13q2 0 12.5 1t14.5 1q6 0 16.5 -1 t12.5 -1q4 -2 18 -8t18 -10q6 -4 19.5 -18.5t17.5 -18.5q2 -4 8.5 -24.5t10.5 -30.5v-10v-9q0 -4 -3 -14t-6.5 -22.5t-6.5 -23.5t-3 -13q0 -6 -1 -18.5t-1 -28.5q0 -14 1 -26.5t1 -18.5q-8 -10 -28.5 -32t-44 -45.5t-45 -44t-29.5 -26.5q-6 -6 -23.5 -18.5t-33.5 -26.5 q-14 -8 -25.5 -15.5t-38.5 -23.5q-14 -10 -22.5 -14t-14.5 -7l-13 -6.5t-21.5 -9.5t-34 -16t-40 -19.5t-38 -16.5l-27.5 -11q-6 -4 -20.5 -9.5t-29.5 -10.5t-27.5 -10t-14.5 -7q-2 0 -11.5 -2t-21.5 -5t-23.5 -6.5t-17.5 -5.5q-10 -2 -24.5 -5t-28.5 -6t-25.5 -5t-13.5 -2 h-10h-47h-19h-71q-4 0 -24.5 7t-31.5 11q-41 16 -64.5 45t-45.5 66q-4 6 -11.5 20.5t-7.5 16.5z" />
<glyph unicode="m" horiz-adv-x="1345" d="M1069 203q-8 4 -28.5 18.5t-26.5 18.5l-19 18q-2 4 -8 24.5t-10 31t-9 32t-10.5 45t-10.5 44t-7 26.5q-2 4 -5 20.5t-6 35t-5 34.5t-2 20l-7.5 67.5t-11.5 106t-11 106.5t-7 71q-6 -4 -19.5 -17.5t-17.5 -19.5t-14.5 -30t-21.5 -50.5t-21.5 -51t-16.5 -34.5l-55 -166 q-2 -6 -8 -19.5t-11 -17.5q-6 -8 -19 -21.5t-17 -15.5h-17h-20q-6 0 -19.5 2t-29 5t-28.5 6.5t-15 5.5q-6 2 -19.5 8t-17.5 10t-15.5 17.5t-24 27.5t-22.5 27.5t-12 19.5q-4 6 -14.5 25.5t-21.5 43t-21.5 46t-16.5 33.5q-4 8 -12 28.5t-17.5 44t-16.5 45t-9 29.5h-19l-3 -13 t-6 -30.5t-5 -36t-4 -30.5l-18 -185l-19 -73v-11v-8q4 -4 19.5 -18.5t17.5 -18.5q4 -6 10 -27.5t8 -27.5q0 -2 1.5 -19.5t1.5 -27.5t-1.5 -26.5t-1.5 -18.5q0 -4 -9 -27.5t-9 -28.5q0 -8 -1 -25.5t-1 -39.5q0 -20 1 -38.5t1 -25.5q0 -4 -7 -11t-11 -7t-27 -1t-35 -1 q-10 0 -28.5 1t-20.5 1t-9 7l-16.5 16.5l-18.5 18.5t-11 13l-2 9q0 2 1 6l1 4q2 2 10 9t8 9q0 10 -7 37t-11 37q-2 2 -10.5 12t-18.5 22.5t-18.5 24t-8.5 15.5q0 2 -1 24.5t-1 32.5q0 16 1 42t1 30t9.5 27.5t9.5 27.5v8v10q-2 4 -10.5 18.5t-8.5 18.5v8q0 10 -1 23.5 t-1 24.5v22q0 180 27 350t49 346q0 6 2 31t5 52.5t6.5 52t5.5 30.5q0 2 4 12.5t10 22.5t12 23.5t10 15.5q4 6 18.5 20.5t18.5 16.5l10 1q11 1 17 1q4 0 15.5 -1t13.5 -1q4 -2 18 -8t18 -11q2 -4 12.5 -15t24 -23.5t24.5 -22.5t13 -12q2 -4 16.5 -12.5t30 -17.5t28.5 -16.5 t17 -9.5q2 -4 9.5 -24.5t9.5 -30.5l55 -313q2 -6 8 -27.5t11 -28.5q2 -6 9 -21t16 -33.5t17.5 -35t12.5 -20.5q14 4 18 18q8 10 19.5 27.5t24 34t20.5 31t10 18.5q2 6 10 27.5t17.5 46t17.5 46t10 27.5q6 14 19.5 42t17.5 32q2 2 23.5 15.5t31.5 21.5q4 2 19.5 8t17.5 10 q0 2 2 12.5t2 14.5t-2 15.5t-2 13.5q-2 4 -18.5 18t-18.5 19l-1 6q-1 6 -1 10t1 11t1 9q2 10 7.5 32t11.5 45.5t11 44t7 26.5q0 2 7.5 8t11.5 10q6 4 19.5 11.5t17.5 7.5t26.5 1t32.5 1t29.5 -1t21.5 -1t16.5 -6.5t32 -15.5l35 -18t27.5 -16q4 -4 11 -10t7 -8v-14v-23v-24 v-13q0 -4 7.5 -10t11.5 -8v-25q0 -16 1 -35.5t1 -35.5v-25v-31q0 -18 -1 -36.5t-1 -34.5v-17q0 -16 -2 -58t-5.5 -89t-6.5 -89t-5 -59q-4 -14 -18 -18q-10 -4 -37 -10t-37 -9q0 -2 -1 -5t-1 -5l2 -8q4 -4 17.5 -18.5t19.5 -18.5l55 -37q4 -4 11.5 -10t7.5 -8q2 -4 5 -18.5 t6 -33t5 -35t2 -24.5v-28v-27q0 -4 -3 -17.5t-6 -28.5t-6 -28.5t-3 -17.5q0 -2 5 -13.5t11 -24.5t12 -23.5t9 -12.5l36 -110q4 -6 19.5 -37t25.5 -54q10 -20 11 -20q2 -4 1 -18.5t-1 -18.5t9 -27.5t9 -27.5q0 -2 1 -16.5t1 -20.5q0 -8 -1 -21.5t-1 -15.5q-2 -4 -8 -18.5 t-10 -18.5l-74 -74q-8 -4 -36 -11t-38 -7q-4 0 -24.5 7t-30.5 11q-4 2 -9 8.5t-10 10.5q-4 6 -11 19.5t-7 17.5q0 6 -1 24.5t-1 38.5q0 23 1 40.5t1 25.5zM590 553q-14 0 -15 -18q0 -18 15 -19q14 0 14 19q0 18 -14 18z" />
<glyph unicode="n" horiz-adv-x="1124" d="M821 57q-4 0 -15 -1t-13 -1q-4 0 -18.5 -8t-18.5 -10l-8 -1q-7 -1 -11 -1t-11 1l-7 1q-6 2 -19.5 8t-17.5 10q-10 6 -26.5 22.5l-35 35t-33 34t-16.5 19.5l-92 147l-110 166l-19 37l-55 92h-19v-368q-6 -4 -19 -17.5t-17 -19.5q-2 -2 -5.5 -10.5t-5.5 -17.5t-4 -17 t-4 -11q-8 -8 -27.5 -29.5t-27.5 -25.5l-6 -1q-6 -1 -10 -1t-11.5 1t-9.5 1q-10 4 -34.5 6t-43.5 6q-10 4 -21.5 10.5t-11.5 14.5v424q2 2 11.5 12t18.5 22.5t16.5 24t9.5 15.5l1 7q1 7 1 11t-1 10.5t-1 8.5q-4 6 -17.5 27.5t-19.5 27.5v26q0 23 -1 46.5t-1 46.5v28v37 q0 23 1 47.5t1 40.5v23q0 12 2 45t5 67.5t6 66.5t5 42q0 4 8.5 18.5t10.5 18.5q4 4 9 33.5t9 40.5q2 4 5 20t6 34.5t5.5 35t2.5 20.5q4 4 18 10.5t18 8.5q10 4 37 10t37 8q2 0 9.5 1t11.5 1t10 -1l6 -1q4 -4 25.5 -24.5t29.5 -30.5q4 -4 10.5 -17.5t8.5 -19.5q4 -10 10 -37 t8 -37q0 -2 1 -9t1 -11q0 -14 -6 -24.5t-14 -21t-14.5 -21.5t-6.5 -26q0 -4 1 -10l1 -6q4 -4 28 -9t28 -9q6 -4 19 -17.5t18 -19.5q4 -4 11 -27.5t7 -28.5q2 -4 7 -16t10 -27.5t10.5 -29t9.5 -19.5q6 -10 14 -30.5t16.5 -42t15.5 -38t9 -18.5l148 -295q4 -8 18 -29.5 t18 -25.5q6 -6 21.5 -22.5t33 -34t34 -32.5t22.5 -21q6 4 19.5 17t17.5 19.5t11 26.5t7 29v10q0 12 1 25.5t1 27.5v25v24q0 16 -1 31.5t-1 26.5v14q0 6 -2 27.5t-5 47t-6 51.5t-5 40q-4 27 -12.5 83t-17.5 114.5t-16 107.5t-9 64l-37 165q0 2 -1 12.5t-1 14.5q0 6 1 16.5 t1 12.5q2 10 8 30.5t10 24.5q2 4 17.5 10t19.5 8q6 6 27.5 27t27.5 29q2 4 8.5 19.5t10.5 17.5q2 0 14 2t23 2q6 0 20 -2t16 -2q6 -2 19.5 -16.5t17.5 -20.5q2 -4 8.5 -31t10.5 -43l18 -111l37 -184q0 -2 1 -14.5t1 -16.5t-1 -14l-1 -10q0 -2 -5 -7.5t-11 -11.5t-12.5 -11 t-8.5 -7q-4 -4 -10 -17.5t-8 -19.5v-10v-8q2 -4 8 -9.5t10 -9.5l37 -18q4 -4 11 -10.5t7 -8.5t2.5 -13t5.5 -26.5l6 -31t5 -21.5v-10v-8l-37 -74l-1 -4q-1 -4 -1 -6l2 -8q4 -6 17.5 -19.5t19.5 -17.5v-461q0 -10 -7 -38t-12 -36q-2 -4 -17 -10t-19 -8q-14 -4 -19 -19 q-4 -4 -10 -18t-8 -19q0 -6 -5 -30.5t-10 -44.5q-4 -16 -4 -17q-2 -4 -16 -18t-21 -19q-8 -8 -29.5 -13t-25.5 -5q-2 0 -10 8t-17.5 18.5t-17.5 18.5l-10 10l-10 1q-11 1 -17 1z" />
<glyph unicode="o" horiz-adv-x="1474" d="M111 166v8v10q2 4 10 18.5t8 18.5q0 2 1 15.5t1 19.5q0 8 -1 22.5t-1 16.5q0 4 -2 17.5t-5 28.5t-6 28.5t-5 17.5q-2 -2 -19 -2q-16 0 -18 2q-16 6 -30.5 12.5t-12.5 20.5q-4 18 -8.5 42.5t-4.5 35.5v14q0 16 -1 33.5t-1 34.5v26v25q0 16 1 30.5t1 26.5v12q0 4 6.5 33 t15.5 63.5t18.5 70.5t15.5 55l18 36l37 56q2 4 8 15t12.5 23.5t11.5 21.5t5 13q2 4 0 18.5t0 18.5q2 2 11 18.5t20.5 37t22.5 41t20 32.5q43 72 96 131.5t125 108.5q4 2 16 9t27.5 16.5t29 17.5t19.5 12l74 37l8 2q4 0 7 -1l3 -1q4 -4 9 -18.5t10 -18.5l8 -2q2 0 6 1l4 1 q2 2 7 10.5t11.5 17.5t11.5 17.5t7 10.5q4 4 18.5 11t18.5 7q2 0 25.5 1t35.5 1t38 -1t30 -1q8 0 28.5 -2t44 -5t45 -6t29.5 -5q4 -2 24.5 -8.5t30.5 -10.5q16 -6 31 -13t25 -24q2 -4 8 -19.5t10 -17.5q2 -4 18.5 -11t36 -16t36 -17.5t20.5 -10.5q6 -8 28.5 -27.5 t26.5 -27.5q6 -10 18.5 -32.5t24.5 -47.5q4 -12 10 -22.5t11 -20.5q10 -18 11 -24.5t1 -28.5q0 -23 -1 -46.5t-1 -45.5v-27q0 -4 6 -11.5t12 -16.5t12.5 -17t6.5 -10t1 -26t1 -36t-1 -37.5t-1 -29.5t-9.5 -18.5t-9.5 -18.5q0 -2 -1 -12.5t-1 -16.5q0 -4 1 -14.5t1 -12.5 q0 -4 8.5 -18t10.5 -18q4 -10 11 -32t7 -24t-7 -23.5t-11 -31.5q-16 -43 -34 -84t-40 -82q-4 -8 -18.5 -29.5t-18.5 -25.5l-55 -55l-19 -37l-110 -111q-4 -4 -14.5 -11t-21.5 -16.5t-21.5 -16.5l-16.5 -11t-18.5 -12.5t-27.5 -17.5t-27.5 -16t-18.5 -10l-148 -73 q-6 -4 -20 -10.5t-29.5 -12.5t-28 -10t-14.5 -4q-10 -4 -36.5 -10.5t-56.5 -12.5t-56.5 -10t-34.5 -4h-76h-20h-43h-8q-4 0 -17.5 5t-29 11.5t-30 12.5t-16.5 8l-73 18q-6 2 -19.5 8.5t-17.5 10.5zM535 55l36 -18v18h-36zM256 649q0 -10 1 -32.5t1 -26.5q0 -8 7 -36t11 -38 q2 -4 7.5 -15.5t11.5 -23.5t11 -22.5t7 -12.5q2 -4 16.5 -17t30 -28.5t29.5 -29t17 -17.5q4 -10 11 -37.5t7 -38.5q4 0 1 1t-1 1l55 19l92 37l111 37q10 2 30.5 13t44 23.5t44 22.5t28.5 14q2 2 11.5 8.5t21.5 15.5t23.5 17.5t17.5 14.5q6 4 21.5 16t33 27.5t34 29 t22.5 19.5l18 18q6 8 19.5 28.5t28 44.5t27.5 45.5t17 29.5q4 10 18.5 37.5t18.5 35.5q2 8 8.5 25.5t12.5 35t11 32t5 18.5v10q0 10 1 22.5t1 24.5v23v20q0 16 -1 29.5t-1 24.5v12q0 2 -7 23.5t-11 31.5q-4 6 -10.5 20.5t-8.5 16.5q-4 4 -17.5 10t-19.5 9h-14 q-10 0 -23.5 -1.5t-23.5 -1.5t-12 3q-4 2 -17.5 13t-29.5 23q-29 25 -38.5 33t-25.5 4q-16 -2 -18 0t-19 8q-20 10 -51 24.5t-41 23.5q-2 2 -10 8t-17.5 12t-17.5 11t-10 5q-4 0 -17.5 -13t-19.5 -23q-4 -4 -11.5 -28t-7.5 -28l-18 -18l-55 -37q-14 -10 -48 -39t-72 -61.5 t-72 -61.5t-48 -41q-2 -8 -8 -28.5t-10 -26.5l-74 -166q-4 -8 -10 -25.5t-12.5 -35t-10.5 -33t-4 -17.5t-1 -21.5t-1 -29.5zM700 313l19 -18v18h-19z" />
<glyph unicode="p" horiz-adv-x="1161" d="M92 424q-4 4 -11 17.5t-7 19.5q0 4 9 18.5t9 18.5q0 2 -5 17t-11 32.5t-12.5 35t-8.5 25.5q0 2 -6 10.5t-12 17.5t-12.5 16t-6.5 12q0 2 -1 25.5t-1 37.5q0 12 1 36.5t1 29.5q0 4 6.5 17t12.5 28.5t12 29t6 17.5q2 4 5 23.5t6.5 41t5.5 41t2 23.5l18 55q0 2 1 8t1 10 t-1 11l-1 8q-2 4 -10 18.5t-8 18.5v33v41q2 14 5 40.5l6 53t5 47t2 24.5q0 2 6 10.5t12.5 17.5t12.5 17.5t6 10.5q2 6 -4 27.5t-6 27.5h-70q0 4 2 9t4 9q2 2 8.5 7.5t12.5 11.5l11 11t5 7q2 4 0 18.5t0 18.5q0 2 7 8t12 11q6 4 19 11t17 7h474q0 -4 2 -18.5t4 -18.5 q4 -14 18 -18l7 -1t12 -1q4 0 10 1t8 1l37 18q10 4 30.5 11.5t24.5 7.5q2 0 12.5 1t14.5 1q6 0 16 -1t12 -1t17.5 -5.5t33 -11.5l35 -12t25.5 -8q6 -4 19.5 -9.5t17.5 -9.5l37 -37l37 -18q14 -6 26 -33q8 -12 16.5 -32.5t12.5 -26.5l18 -55q2 -6 5.5 -17.5t6.5 -24t5 -21.5 t2 -11v-29v-26q0 -4 -2 -16.5t-5 -28t-6.5 -29t-5.5 -19.5q-4 -10 -9 -30.5t-9 -24.5t-17.5 -24.5t-19.5 -30.5q-6 -8 -24.5 -32t-34.5 -42q-4 -8 -8.5 -11t-6.5 -7q-4 -6 -18 -19.5t-19 -17.5q-10 -10 -32.5 -26.5t-46 -34t-43 -32t-25.5 -18.5l-10 -5q-10 -5 -22.5 -11 t-24 -12.5t-17.5 -8.5q-6 -4 -25.5 -12t-40 -17.5t-39 -16.5t-24.5 -9l-55 -18h-37q-4 0 -17.5 -2.5t-28.5 -5.5t-28.5 -6t-17.5 -5q-10 -4 -31.5 -10t-23.5 -8q-4 -4 -17.5 -32t-19.5 -42l-19 -74l-18 -37q0 -2 -1 -9t-1 -11t1 -10l1 -6q4 -4 17.5 -11.5t19.5 -7.5 q2 -8 8 -31.5t12 -50t11.5 -51.5t5.5 -33q0 -6 2 -34.5t2 -55.5v-31v-18q0 -20 -2 -39.5t-2 -24.5l-19 -18q-4 0 -23.5 -1t-29.5 -1q-8 0 -20.5 1t-24.5 1h-31q-4 0 -18.5 7t-18.5 11q-8 6 -26.5 24.5t-34.5 33.5q-10 10 -18.5 26.5t-12.5 26.5v295zM311 993q0 -6 1 -19 t1 -16q0 -4 7.5 -10t11.5 -8l6 -1q6 -1 10 -1t11.5 1t9.5 1t23.5 7t31.5 11q8 2 22.5 7.5t28.5 11.5t25.5 11t15.5 7l184 92q6 4 28 18.5t28 18.5q6 6 27.5 26.5t27.5 29.5q4 4 10 17t8 20l2 8q0 4 -1 7l-1 3l-55 55q-4 2 -17.5 8.5t-19.5 10.5l-55 18l-37 19h-16h-21 l-221 -19l-37 -37l-5 -30q-5 -31 -11 -72t-12.5 -85t-8.5 -71q0 -4 -1 -17.5t-1 -21.5z" />
<glyph unicode="q" horiz-adv-x="1566" d="M979 242q-4 0 -11 -1t-10 -1q-4 0 -27.5 -9.5t-27.5 -9.5h-18h-29h-29h-16q-4 -2 -17.5 -16.5t-19.5 -20.5l-18 -37q-4 -6 -21 -22q-12 -12 -16 -14l-14 -7q-14 -4 -34 -8t-26 -4h-14q-12 0 -29.5 -1t-36.5 -1h-24h-27q-16 0 -31.5 1t-27.5 1h-13q-12 2 -38.5 6 t-56.5 10.5t-55.5 11.5t-33.5 9l-9 6t-21.5 15.5t-25 18.5t-18.5 15q-14 4 -18 19q-6 6 -15.5 18t-18.5 23.5t-15 20.5t-6 11q-2 2 -9.5 18.5t-15.5 38t-16.5 42t-14.5 31.5q-2 6 -9 26.5t-9 28.5q-4 16 -11.5 42.5t-7.5 31.5v12t-1 22.5t-1 24.5v20q0 16 1 41t1 27t6.5 10 t12.5 17.5t12 17.5t6 10q2 2 5 21.5t6.5 43t5.5 47t2 36.5v16v29v28v19q0 4 4 19.5t10 34t12 34.5t11 22q2 10 13 31t23.5 44.5t22.5 44t14 28.5q2 2 8.5 11t15.5 21.5t17 24t15 17.5l18 18q4 2 25.5 12.5t47 22.5t47 23.5t28.5 15.5q4 2 8 6l12 12q16 16 17 19.5t3 15.5 q4 20 9.5 45t5.5 31q2 4 8 18.5t10 18.5q4 6 18.5 19t18.5 18q2 2 12.5 7t22.5 11t23.5 11t15.5 7l74 19q2 2 16 8t29.5 12.5t29 11.5t17.5 5q6 2 21.5 5t33.5 6t33.5 5t21.5 2h15q16 0 33.5 1t33.5 1h31h27q18 0 36.5 -1t30.5 -1h14q2 0 12.5 -2t23 -5t22.5 -6t16 -5 t19.5 -7.5t29 -11.5t27.5 -11t16 -7q6 -4 28 -18.5t28 -18.5q8 -8 29.5 -28.5t45 -44t44 -45t28.5 -29.5q4 -6 18.5 -28t18.5 -28q2 -2 7 -14t10.5 -26.5t10.5 -29t9 -22.5q4 -6 10 -27.5t8 -27.5v-31q0 -23 1 -47.5t1 -46.5v-33v-39q0 -27 -1 -51.5t-1 -44.5v-21 q0 -4 -7 -30.5t-11 -42.5q-23 -68 -55.5 -124t-73.5 -116l-55 -74q-4 -4 -15.5 -17t-24 -28.5t-22.5 -29t-12 -17.5q0 -2 -1 -12t-1 -14t1 -15.5t1 -13.5t13 -23.5t24 -31.5l55 -74q6 -10 19.5 -37t17.5 -37q4 -8 11 -36.5t7 -37.5v-18v-18l-18 -37q-4 -14 -19 -19 q-6 -4 -19 -11t-17 -7t-28 9t-28 9q-2 0 -7 -5l-11 -11t-11.5 -12.5t-7.5 -8.5q-6 -4 -19 -11t-17 -7q-2 0 -11.5 4t-22 10t-23.5 12.5t-17 10.5q-14 4 -19 18l-110 166q-4 4 -10.5 11.5t-8.5 7.5l-6 1q-6 1 -10 1zM274 692q0 -16 1 -38.5t1 -26.5t7.5 -24.5t11.5 -31.5 q4 -8 10 -21t8 -15q6 -8 26.5 -29t29.5 -27q6 -8 28.5 -22.5t26.5 -14.5q4 -2 20.5 -4t35 -5t34.5 -5t21 -4q2 0 10 -6t17 -12.5t17.5 -12.5t10.5 -6t8 -1t10 -1t10.5 1t8.5 1q6 6 21.5 22.5t32.5 34t33.5 33t22.5 21.5l56 37l18 18v8v10q-4 10 -9 31t-9 25l-37 55 q-23 37 -31 67.5t-8 73.5q0 10 1 25.5t1 17.5q4 10 16.5 38t20.5 36q2 0 5 1l3 1q2 0 6 -1l4 -1l55 -37l56 -18q2 -2 12 -8.5t23.5 -12.5t24.5 -11t13 -5h9q10 0 20 1t17 1q8 0 10 -2q6 -4 14 -14.5t16.5 -21.5t15.5 -21.5t9 -16.5h18q2 0 20.5 17.5t42.5 41t47.5 48 t37.5 41.5q6 10 20.5 36.5t16.5 36.5q0 2 2 23.5t5 50.5t6 59.5t5 51.5v8v10q-6 8 -23.5 26.5t-39 40t-40 39t-26.5 23.5l-14 7t-21.5 11.5t-21.5 11.5t-17 7q-4 2 -16 5t-26.5 6t-29 5t-20.5 2h-28h-27q-4 0 -19.5 -2t-33 -5t-33.5 -6t-25 -5q-6 -2 -17 -5t-23.5 -6 t-21.5 -5t-11 -2q-12 -6 -44 -21.5t-68 -33t-66.5 -34t-42.5 -22.5q-12 4 -29 4q-14 0 -27 -4q-4 -4 -18.5 -27.5t-18.5 -27.5q-2 -4 -9 -10.5t-9 -8.5q-4 -2 -19.5 -8t-17.5 -10v-15v-22v-25v-12l-5 -10q-5 -10 -11 -22.5t-12.5 -25t-8.5 -16.5q-2 -2 -8 -10t-12 -17.5 t-11.5 -17.5t-5.5 -10q-4 -10 -9 -35.5t-10 -55.5t-10 -55.5t-8 -37.5q0 -4 -1 -28t-1 -36z" />
<glyph unicode="r" horiz-adv-x="1161" d="M535 664q-8 0 -25.5 -1t-40.5 -1q-20 0 -38.5 1t-24.5 1q-4 0 -18.5 9t-18.5 9q-2 0 -8.5 -7t-10.5 -11.5t-10 -16.5t-12 -24.5t-10 -22.5l-5 -10q0 -2 -1 -22.5t-1 -30.5t1 -32t1 -26q2 -10 10.5 -51t17.5 -87t17.5 -87t10.5 -51q0 -2 1 -16.5t1 -20.5q0 -8 -1 -21.5 t-1 -15.5q0 -4 -7.5 -18.5t-11.5 -18.5t-12 -13t-17.5 -18.5l-16.5 -16.5t-9 -7q-2 -2 -19.5 -3t-27.5 -1t-26.5 1t-18.5 3q-4 2 -13.5 10t-21.5 20.5t-22.5 23.5t-16.5 20l-5 10t-11.5 22.5t-12.5 23.5t-8 17l-18 56q-2 12 -5 34.5t-6.5 45t-5.5 42t-2 25.5v959 q-4 2 -10 13t-12 23.5t-10.5 22.5t-4.5 14q0 2 -1 23.5t-1 32.5q0 10 1 31.5t1 23.5q4 12 16.5 38.5t20.5 35.5q2 2 11.5 7t21.5 11t23.5 11t17.5 7q8 2 23.5 5.5t33 6.5t32.5 5t22 2q4 0 18 -9.5t18 -9.5q2 0 15.5 -1t21.5 -1q6 0 20.5 1t16.5 1q4 2 18.5 8.5t18.5 10.5 h295q0 -6 7 -17.5t16.5 -23.5t18.5 -21.5t13 -11.5q2 0 19.5 -1t27.5 -1q12 0 36 1t28 1t18.5 9.5t18.5 9.5q2 0 18.5 1t26.5 1t27.5 -1t19.5 -1t15.5 -7.5t21.5 -11.5l55 -37q6 -4 19.5 -18t17.5 -18.5t10 -17.5t8 -19v-11v-8q-2 -2 -8 -10t-12 -17.5t-11.5 -17.5t-5.5 -10 t-1 -12.5t-1 -16.5q0 -4 1 -14t1 -12t5.5 -10.5t11.5 -17.5t12 -17.5t8 -10.5l19 -37v-10v-8q-2 -8 -8.5 -28.5t-10.5 -26.5q-4 -8 -9 -19.5l-10 -23t-10 -20.5t-8 -11l-258 -258l-1 -3q-1 -3 -1 -7l2 -9l37 -55q4 -4 10.5 -18.5t8.5 -18.5q0 -4 7 -27.5t11 -27.5 q2 -4 15.5 -17.5t29 -28.5t29.5 -29.5t18 -16.5q4 -4 18.5 -26.5t18.5 -28.5q4 -8 15.5 -30t22.5 -45.5t21.5 -44t14.5 -28.5q2 -4 4 -10t4 -19q8 -20 10 -26t6 -23q4 -18 8.5 -40.5t4.5 -28.5q0 -2 1 -19.5t1 -27.5t-1 -26.5t-1 -19.5q0 -4 -7.5 -24.5t-11.5 -30.5l-18 -37 q-8 -10 -29.5 -30.5t-25.5 -24.5h-25h-31q-6 0 -20 2t-29.5 5t-28 6t-14.5 5q-2 0 -8 7.5t-10 11.5t-10.5 18.5t-8.5 18.5q-4 10 -10 35.5t-12 52t-10.5 49t-4.5 29.5v20v35v35v20q-2 4 -16 18.5t-20 18.5q-4 4 -28 9t-28 9.5t-18 28t-18.5 27.5t-12.5 15t-17 22.5 t-16.5 21.5t-9.5 15q-4 6 -16.5 21t-27.5 32.5t-28.5 34t-19.5 22.5q-4 15 -18 19zM256 1051q0 -8 1 -21.5t1 -15.5t7 -8.5t11.5 -10.5t18.5 -10t18 -8h9h10q6 2 18 7t27.5 11t28 11.5t18.5 7.5q14 6 42 19.5t57.5 28.5t54 27.5t30.5 16.5q2 2 16.5 11t32 20.5t35 22.5 t27.5 20q8 6 19.5 14t22.5 16.5t20.5 15.5t11.5 9q4 4 10 17.5t8 19.5q0 2 1 8t1 10t-1 12l-1 7q-4 14 -18 18q-12 2 -44 10.5t-67 16.5t-66.5 16t-44.5 12h-10h-8l-74 -18q-6 -2 -24.5 -5t-39 -6t-40 -5t-25.5 -2q-4 -4 -10 -18.5t-8 -18.5q-2 -6 -7.5 -27.5t-11.5 -46.5 t-11 -46.5t-7 -27.5q0 -4 -6 -14t-12.5 -22.5t-12.5 -23.5t-6 -14q0 -2 -1 -16t-1 -20z" />
<glyph unicode="s" horiz-adv-x="1456" d="M127 279q0 6 1 19t1 15t7 8.5t11 10.5q2 2 13.5 7t24 10t23.5 10.5t13 9.5q2 2 3 15t1 19q0 8 -1 22.5t-3 16.5q-2 4 -17.5 10.5t-19.5 8.5q-14 4 -18 18q4 4 18.5 10.5t18.5 8.5q2 0 17.5 1t23.5 1q6 0 19 -1l13 -1l10 -10q11 -9 23.5 -21t23.5 -24.5t17 -18.5l37 -55 q4 -4 10 -11.5t9 -7.5h276q2 0 23.5 7.5t31.5 11.5l37 18q4 0 27.5 7t27.5 12q2 2 18.5 15t37 30.5l41 35t32.5 29.5q6 4 19.5 18.5t17.5 18.5q6 8 17.5 21.5t23 27.5t21.5 26.5t12 16.5q6 10 19.5 37t17.5 37q0 2 1 9t1 11t-1 11l-1 6q-6 8 -16.5 19t-21.5 22.5t-21.5 20.5 t-14.5 11t-24.5 5.5t-47 6.5t-53 5t-41.5 2q-12 0 -43.5 1t-66.5 1t-67 -1t-44 -1q-4 4 -18.5 10t-18.5 8h-10h-8q-2 -2 -13.5 -10t-24.5 -17.5t-23.5 -17.5t-12.5 -10q-8 -4 -36.5 -11t-37.5 -7q-4 0 -28.5 -1t-40.5 -1q-10 0 -34 1t-26 1t-13 5t-24.5 11t-23.5 12t-12 8 l-4 1q-5 1 -7 1l-8 -2l-37 -36l-4 -1q-4 -1 -6 -1l-8 2q-10 4 -37 17t-37 19q-14 4 -18 19q-6 8 -15.5 25.5t-18.5 36t-15.5 31.5t-6.5 17q0 2 -2 24t-2 32t2 31.5t2 23.5t5.5 10t11.5 17.5t12 17.5t8 10l37 74l37 55q4 6 21.5 24.5t39 40t41 40t27.5 24.5q2 2 15.5 12.5 t28.5 23t28.5 22.5t19.5 16l111 74q8 6 22.5 14t28.5 17.5t25.5 15.5t15.5 8q2 2 19.5 9.5t38 16.5t41 17t30.5 12q61 23 122.5 31t127.5 8h20q16 0 28.5 -1t23.5 -1h10q2 0 23.5 -7t31.5 -11q6 -4 19.5 -10.5t17.5 -8.5l55 -55q4 -4 11.5 -18.5t7.5 -18.5q0 -2 1 -26.5 t1 -38.5q0 -12 -1 -37t-1 -27q0 -4 -7.5 -18.5t-11.5 -18.5q-6 -8 -17 -19l-22.5 -22.5t-21.5 -20.5t-13 -11l-10 -1q-10 -1 -16 -1q-4 0 -15.5 1t-13.5 1t-8 7t-10 11q-2 2 -7.5 13.5t-11.5 23.5t-11 23.5t-7 13.5q-4 4 -17.5 10t-19.5 8q-2 0 -13.5 1t-15.5 1q-6 0 -16 -1 l-10 -1q-4 -2 -15.5 -10t-23.5 -17.5t-22.5 -17.5t-12.5 -10q-4 -2 -17.5 -7t-28.5 -11.5t-29.5 -11.5t-16.5 -7q-4 -2 -15.5 -7t-23.5 -11t-22.5 -11.5t-12.5 -7.5q-6 -4 -27.5 -17t-27.5 -20q-8 -4 -23.5 -16t-30 -24.5t-25.5 -21.5t-13 -11q-2 -4 -9.5 -17.5t-9.5 -19.5 q0 -4 2 -9.5t2 -7.5q4 0 16.5 -1t16.5 -1q6 0 37 3t64.5 6.5t64.5 6.5t37 3h22q23 0 49.5 1t53.5 1h45h41q29 0 54.5 -1t43.5 -1h23q4 0 26.5 -4t42.5 -9q10 -2 23 -6q6 -2 27.5 -8t27.5 -10t22.5 -12.5t34 -16.5t33 -16t21.5 -10q14 -4 18 -19l1 -4q1 -4 1 -6l-2 -8 q-2 -2 -8 -7.5t-12.5 -11.5t-11.5 -11t-5 -7q0 -10 13.5 -30.5t23.5 -24.5q4 6 17.5 19t19.5 17l7 2q7 1 11 1t10.5 -1.5t8.5 -1.5t8 -7t10 -11t10.5 -18.5t8.5 -18.5q0 -6 1 -21.5t1 -33.5t1 -33.5t1 -21.5q0 -10 -1 -30t-1 -36t-1 -29.5t-1 -15.5q0 -4 -4 -15.5 t-10.5 -25.5t-12.5 -28.5t-10 -22.5q-2 -2 -8.5 -13.5t-15.5 -26.5t-17 -29.5t-14 -22.5q-2 -4 -7.5 -11.5t-11.5 -17.5q-16 -23 -18 -28t-13 -17q-12 -16 -25.5 -33.5t-17.5 -21.5l-55 -56q-4 -2 -18.5 -8t-18.5 -10q-2 -2 -7 -10.5t-11 -17.5t-11.5 -17t-7.5 -10 q-4 -4 -15 -13.5t-25.5 -20.5t-29 -22.5t-22.5 -17.5q-4 -4 -20.5 -15.5t-35 -23.5t-33.5 -22.5t-21 -12.5q-4 -2 -14.5 -7t-22 -11t-21.5 -11.5t-16 -7.5q-6 -4 -20.5 -10t-30 -12t-27.5 -10.5t-14 -4.5q-6 -2 -19.5 -5t-29 -6t-27.5 -5t-16 -2h-17h-67h-27h-27h-55h-10 q-2 0 -20.5 6t-42 15.5t-48 18.5t-37.5 15q-6 2 -17 8.5t-23.5 12.5t-22.5 11l-10 5q-6 6 -19.5 18.5t-29 28t-28.5 27.5t-16 18q-4 4 -10 24.5t-8 31.5q0 2 -1 16.5t-1 22.5z" />
<glyph unicode="t" horiz-adv-x="1308" d="M461 590q2 4 8 18.5t10 18.5l19 18l2 8q0 2 -1 7l-1 4q-2 2 -8.5 10t-12.5 17t-11 17.5t-5 10.5t-1 15.5t-1 23.5q0 6 1 19.5t1 15.5q2 2 10 13t17.5 23.5t17.5 22.5t10 14q0 2 1 18.5t1 26.5t-1 27.5t-1 19.5t-6 13.5t-12 24t-12.5 22.5t-6.5 14q-2 10 -3 37t-1 55 q0 29 1 55.5t3 37.5q-8 2 -28.5 8t-26.5 10q-4 2 -18.5 10t-18.5 8q-2 0 -16.5 1t-24.5 1q-6 0 -20 -1l-13 -1q-4 -2 -10 -17t-8 -19q-4 -4 -10 -11.5t-9 -7.5q-4 -2 -18 -5t-32.5 -6t-35 -5t-24.5 -2h-29h-26q-4 2 -18.5 8t-18.5 10l-37 37q-4 4 -10.5 18.5t-8.5 18.5 q0 2 -1 13t-1 15q0 6 1 16l1 11q2 4 18.5 9t18.5 9.5t1 18.5t-1 18l19 37q2 4 8 9.5t10 9.5l55 37q4 4 25 9t31 9h8h10q2 -2 9.5 -8t9.5 -10q4 -4 10 -18.5t8 -18.5q6 -2 23.5 -3t21.5 -1q10 0 27.5 1t19.5 3q4 2 14.5 13t22.5 24.5t22.5 23.5t14.5 12q8 6 25.5 18.5t35 24 t31.5 20.5t19 11q2 0 17 1t26 1q10 0 27.5 -1t21.5 -1t17 -6t28.5 -12t29 -12.5t17.5 -6.5q2 0 15.5 -1t29.5 -1t35.5 -1t29.5 -1q6 0 21.5 1t34.5 1q18 0 33.5 1t21.5 1q2 2 13.5 8.5t23.5 12.5t22.5 11t14.5 5q2 0 25.5 1t33.5 1q16 0 41 -1t29 -1q10 -2 38.5 -8t35.5 -10 q4 -4 25.5 -24.5t29.5 -31.5q4 -4 10 -18t8 -18q0 -2 1 -8.5t1 -10.5t-1 -11l-1 -7l-37 -74q-4 -4 -10 -11t-8 -7q-6 -2 -24.5 -5.5t-39 -6.5t-39 -5t-26.5 -2l-19 -37q-16 0 -52 1t-77 1t-76.5 -1t-52.5 -1q-4 0 -24.5 -7t-30.5 -11q-14 -4 -18 -19q-4 -10 -10.5 -28.5 t-12.5 -39t-10 -38t-4 -23.5v-20v-35v-35v-20q0 -2 -5 -10.5t-11.5 -17.5t-12.5 -17t-8 -11v-8v-10q0 -4 3 -20.5t6 -35t6 -34.5t3 -21q0 -4 -3 -14t-6 -22.5t-6 -23.5t-3 -13t-1 -19.5t-1 -27.5t1 -26.5t1 -18.5q0 -4 3 -14.5t6 -23t6 -23.5t3 -13q0 -16 1 -55t1 -84 q0 -43 -1 -82t-1 -56q2 -2 10.5 -10t17.5 -17.5t17.5 -17.5t10.5 -10q2 -4 7 -17.5t11 -27.5t11.5 -27.5t7.5 -19.5q0 -2 1 -12.5t1 -14.5t-1 -15t-1 -13q0 -4 -7.5 -24.5t-11.5 -31.5q-4 -8 -10 -21.5t-8 -15.5q-4 -4 -24.5 -10t-31.5 -8h-28h-27q-4 2 -18.5 8t-18.5 10 q-4 2 -15 12.5t-23.5 23t-22.5 23.5t-12 15q-4 4 -10.5 18.5t-8.5 18.5q-2 10 -7 44t-11 72t-11.5 73.5t-7.5 50.5q-2 12 -5 43.5t-6 66.5t-5 67t-2 44z" />
<glyph unicode="u" horiz-adv-x="1234" d="M18 332v18q0 4 9.5 27.5t9.5 28.5q0 2 1 15t1 21q0 6 -1 20.5t-1 16.5q0 4 -8.5 18.5t-10.5 18.5l-1 7t-1 12q0 23 10.5 33t10.5 30v10q-2 4 -10.5 18.5t-8.5 18.5q0 2 -1 11.5t-1 15.5q0 4 1 15t1 13q0 6 2.5 20.5t5.5 29t6 26.5t5 17q2 2 10 18t17.5 35.5t17.5 36 t10 20.5q4 6 10.5 27.5t8.5 27.5q0 2 1 9.5t1 11.5t-1 10l-1 6q0 2 -6.5 10.5t-12.5 17.5t-12 16.5t-6 11.5q0 2 -1 12t-1 22t-1 24.5t-1 23.5q0 8 1 21t1 26q0 16 1 25t1 12q0 6 8 43.5t20.5 88t24.5 101.5t20 80q4 10 9.5 30.5t9.5 24.5q4 14 18 19h9h10q4 0 27.5 -9.5 t27.5 -9.5h21h34h35h21q2 0 8 -7t10 -11q4 -6 11.5 -19.5t7.5 -17.5q0 -2 1 -12.5t1 -14.5t-1 -15t-1 -13l-19 -74v-15v-22v-25v-12q0 -4 -9 -27.5t-9 -27.5l-19 -148q-2 -6 -5 -21.5t-6 -30.5t-5 -26.5t-2 -13.5q0 -4 -6.5 -14t-12.5 -22.5t-12 -23.5t-6 -14v-14v-22v-25 v-12l-37 -258v-11v-8q0 -4 2 -16t5 -27.5t6 -29t5.5 -19.5t5.5 -17.5t6 -23.5t5 -21.5t2 -11.5q2 -6 8 -19t10 -17q6 -8 19.5 -21.5t17.5 -15.5q2 0 18.5 -1t26.5 -1t27.5 1t19.5 1q4 2 23.5 10t41 17.5t41 17.5t23.5 10q4 0 28 7t28 11q8 6 30.5 21.5t46 33t44 34 t26.5 22.5q6 -2 27 -2q23 0 28 2q4 0 10.5 7t8.5 11l18 56l37 73q0 16 1 54.5t2 85.5t3 100t4 100t4.5 85t4.5 55q0 18 2 62t5 94t6 94.5t5 62.5q4 6 11 25.5t16 33.5q4 14 18 19.5t29 13.5q2 0 20.5 1t28.5 1t25.5 -1t17.5 -1q6 -2 26.5 -16.5t28.5 -20.5q4 -4 11.5 -18 t7.5 -19v-22q0 -16 1 -33.5t1 -34.5v-20v-29q0 -16 -1 -33.5t-1 -33.5v-15q0 -6 -2 -23.5t-5.5 -37t-6.5 -39t-5 -29.5l-18 -55v-10v-9q0 -6 3 -28.5t6 -47t6 -46t3 -25.5q0 -29 3 -98.5t6.5 -149.5t6.5 -150.5t3 -99.5q2 -4 4 -10t4 -18q8 -20 10 -27.5t4 -26.5 q4 -27 9.5 -59.5t5.5 -42.5q0 -4 1 -26.5t1 -32.5t-1 -29.5t-1 -22.5q0 -4 -7.5 -18t-11.5 -18.5t-17.5 -10.5t-19.5 -8q-2 0 -16.5 -1t-20.5 -1q-8 0 -21 1t-16 1q-4 0 -24.5 7t-30.5 12q-16 6 -30.5 13t-24.5 23q-4 4 -9 17.5t-10 19.5q0 2 -2 10.5t-5 17.5t-6 17.5 t-5 10.5q0 2 -7 3t-11 1q-14 0 -19 -4q-10 -6 -32.5 -22.5t-49 -34t-50 -33t-34 -21.5t-36 -18.5t-55.5 -26.5t-55.5 -27.5t-37.5 -19.5q-8 -4 -25.5 -10.5t-35 -12.5t-33 -10t-17.5 -4h-14h-61h-27h-18h-62h-20q-4 2 -18.5 8t-18.5 10q-8 2 -22.5 10.5t-29 17.5t-26.5 17.5 t-14 10.5q-14 4 -19 18q-33 51 -48 106.5t-26 114.5v19z" />
<glyph unicode="v" horiz-adv-x="1124" d="M37 987v8q2 2 8 7.5t12 11.5t11.5 11t5.5 7q4 4 -3.5 18.5t-7.5 18.5h-26q-2 12 -5 46t-6 72t-5.5 72.5t-2.5 49.5v10v8q2 2 8.5 18.5t12.5 36t11 36t5 20.5v16v29v28v19q0 4 7.5 11t11.5 7h147q2 0 16.5 -13t20.5 -24q4 -6 11 -19t7 -17v-21v-35v-35v-20q0 -4 9.5 -27.5 t9.5 -27.5v-45v-76v-74v-45q0 -4 2 -20.5t5 -38t6 -41t5 -29.5q0 -8 7.5 -35.5t11.5 -38.5q2 -6 7 -22.5t11 -33.5t11.5 -32.5t7.5 -21.5q4 -12 15 -39t22.5 -56.5t21.5 -55t14 -34.5q6 -12 14.5 -30.5t17.5 -36t16 -30.5l8 -13h37q6 12 21 40.5t32.5 61.5t34 61.5 t22.5 39.5q0 2 6 7t12.5 11t12.5 11t6 7v17v28v29v19q2 6 10 29.5t17.5 52t17.5 53t10 30.5l19 74q0 4 9 27.5t9 27.5q2 6 5 34t6 58.5t5.5 58.5t2.5 34q2 12 5 35.5l6 47t5 42t2 22.5t7 17.5t11 19.5q2 2 10.5 9.5t8.5 9.5l1 7t1 11t-1 10t-1 8q-2 4 -10.5 18.5t-8.5 18.5 q0 2 -1 16.5t-1 24.5q0 6 1 18.5t1 14.5q4 6 17.5 20.5t19.5 16.5q2 0 22.5 2t31.5 2q10 0 32.5 -2t24.5 -2q10 -2 36.5 -16.5t37.5 -20.5q2 -2 15 -23.5t21 -31.5q4 -8 11.5 -21.5t7.5 -15.5v-277q-4 -6 -9 -18t-10.5 -27.5t-10.5 -28t-7 -18.5t-4 -33.5t-5 -58.5t-5 -58.5 t-4 -33.5q0 -4 -5.5 -20.5t-11.5 -38t-12 -41t-8 -29.5q-2 -6 -10.5 -26.5t-17.5 -44t-17 -45t-11 -32.5l-10 -20l-8 -16l-55 -56l-37 -55q-4 -14 -19 -18q2 -6 2 -33v-51v-50q0 -27 -2 -32q0 -6 -8 -28t-18 -47.5t-18.5 -47t-10.5 -25.5l-18 -55q-4 -8 -10.5 -21.5 t-8.5 -15.5q-6 -10 -22.5 -26.5t-34.5 -35t-33.5 -33t-19.5 -16.5q-4 -4 -24.5 -10t-31.5 -8h-28h-27q-6 0 -24.5 4t-34.5 8q-8 4 -24.5 10.5t-26.5 14.5q-6 4 -19.5 18.5t-17.5 18.5q-6 10 -19.5 36.5t-17.5 36.5q-2 2 -5 16.5t-6.5 30t-5.5 29t-2 17.5q-2 6 -8 19t-10 17 q-4 2 -15.5 12.5t-23.5 24t-22.5 24.5t-12.5 13t-7 11.5t-10 20.5t-11.5 22.5t-8.5 19.5q-49 111 -75.5 226.5t-53.5 234.5l-18 92v10zM92 1290v-18h19v18h-19z" />
<glyph unicode="w" horiz-adv-x="1585" d="M16 868v27q0 18 1 36.5t1 31.5v14l19 18q0 16 -1 61.5t-1 94.5q0 51 1 95t1 63q0 4 3 17t6 28.5t6 29t3 17.5v20v35v35v20q2 6 8.5 20.5t10.5 16.5q2 2 15 3t22 1q6 0 20 -1t16 -3q6 -4 18.5 -14t28 -21.5t27.5 -21.5t18.5 -16.5t14.5 -21.5t16.5 -33.5t15.5 -34t9 -21.5 q0 -2 1 -27.5t1 -38.5v-20q0 -12 -1 -25.5t-1 -25.5v-10q0 -4 -9.5 -28t-9.5 -28v-20v-35v-35v-20l-18 -258v-21v-16q2 -20 7 -58.5t11.5 -77t11.5 -69.5t7 -35q0 -2 4 -13t10 -25.5t12.5 -30t10.5 -23.5t10 -21.5t8 -15.5l8 -2q2 0 6 1l5 1q2 2 11 10.5t18.5 16.5t16.5 16 t9 12q2 2 9 15.5t15.5 31t16.5 36t14 28.5l56 129q2 6 12 33.5t22.5 59.5t23.5 58.5t15 32.5l56 56q6 6 19 26.5t17 28.5v8v10q-2 4 -10 18.5t-8 18.5q0 2 -1 15.5t-1 21.5q0 6 1 20.5t1 16.5q2 8 7 34.5t10.5 56.5t10.5 56.5t9 36.5q2 4 8 18.5t10 18.5q6 6 19.5 20.5 t17.5 16.5q2 0 15.5 1t19.5 1q8 0 22.5 -1t16.5 -1q10 -4 36.5 -17.5t37.5 -19.5q6 -4 26.5 -23.5t32.5 -35.5l14 -15q4 -4 10.5 -24.5t8.5 -30.5q0 -2 1 -16.5t1 -22.5q0 -6 -1 -19.5t-1 -15.5t-8.5 -9t-10.5 -9q-8 -10 -20 -38t-17 -36v-16v-21q2 -10 8.5 -38.5 t10.5 -34.5q0 -2 5 -10.5t11 -17.5t12.5 -17.5t8.5 -10.5l37 -73q14 -35 24 -70t19.5 -70t20.5 -69.5t28 -67.5q4 -8 17.5 -28.5t19.5 -26.5l37 37q6 6 14 25.5t12 33.5q10 20 19.5 43t9.5 27l18 92l19 55l18 148l19 73l18 56q0 2 1 8t1 10t-1 10t-1 8q-2 2 -8 18.5 t-12.5 36t-11.5 36t-5 20.5q-2 6 -5 26.5t-6 44t-5 45t-2 32.5v12q0 12 -1 26.5t-1 30.5v27v22q0 16 1 29.5t1 24.5v12q0 6 7 28.5t11 26.5t17.5 10.5t19.5 8.5q2 0 15.5 1t21.5 1q6 0 20.5 -1t16.5 -1q4 0 18 -7.5t19 -11.5l36 -37q4 -6 11.5 -19t7.5 -18l18 -276 q-6 -4 -19 -17.5t-18 -19.5q0 -2 -2 -13t-2 -16q0 -4 2 -14t2 -12q2 -4 10.5 -11.5t18.5 -16.5t18.5 -17t8.5 -11q0 -2 1 -23.5t1 -31.5v-18q0 -10 -1 -22.5t-1 -22.5v-11q-2 -14 -7.5 -60t-11.5 -101.5t-11 -108.5t-7 -80q0 -4 -2 -17t-5 -31.5t-6.5 -36t-5.5 -25.5 q-2 -6 -4 -18.5t-5 -28t-5 -27.5t-4 -18.5t-5 -17.5t-6 -23.5t-5 -21.5t-2 -11q-2 -6 -8.5 -19.5t-10.5 -17.5q-2 -2 -8 -7t-12 -11.5t-11.5 -11.5t-5.5 -7q-2 -4 -1 -18.5t1 -18.5q0 -10 -12 -28.5t-16 -22.5q-8 -10 -15.5 -23.5t-11.5 -17.5q-6 -8 -24.5 -26.5 l-34.5 -34.5q-10 -10 -22.5 -17.5t-29.5 -13.5h-10h-8q-2 2 -10 8t-17.5 12t-17.5 11.5t-10 5.5q-10 2 -33 5t-49.5 6t-50 5t-33.5 2q-6 4 -19.5 17.5t-17.5 19.5l-5 11q-5 10 -11.5 22t-12.5 23.5t-8 17.5l-37 92l-74 258q-2 4 -8 18.5t-10 18.5q-14 -4 -18 -19l-5 -10 q-6 -10 -12 -22.5t-12 -23.5t-8 -17l-92 -203l-28 -56t-35 -72t-31.5 -62.5t-16.5 -30.5q-2 -2 -9 -9.5t-15.5 -16.5t-17.5 -18.5t-13 -11.5q-4 -4 -18.5 -10t-18.5 -8h-27h-28l-185 18h-18q-4 2 -18.5 8.5t-18.5 10.5t-10 9t-9 9q-2 2 -7 13.5t-11 27t-11 30.5l-7 21 q-4 10 -10.5 29t-12.5 36t-10 30.5t-4 15.5v25v39v40v25q0 2 -6.5 13.5t-12.5 23.5t-12 22.5t-6 14.5q-2 8 -5 38.5t-6 68.5t-5.5 75t-2.5 57v27q0 23 -1 48.5t-1 51.5v41z" />
<glyph unicode="x" d="M16 195q0 4 1 14t1 12q2 6 7.5 21.5t10.5 33t10 34t9 22.5l56 110q2 2 9 15.5t16 29t17.5 28.5t12.5 20q6 6 16.5 22t21.5 33.5t21.5 33t14.5 21.5q4 4 10 11.5t8 7.5h12h25h22h15q4 0 11 7t7 11q0 2 1 15.5t1 19.5q0 8 -1 22.5t-1 16.5q0 4 -2 17t-5 28.5t-6 29t-5 17.5 l-19 37q-10 12 -42.5 60t-69.5 104.5t-69 105.5t-40 62l-55 110q-4 10 -11.5 30.5t-7.5 24.5q0 2 -1 23.5t-1 32.5q0 10 1 31.5t1 23.5q2 6 8.5 27.5t10.5 27.5l43 43q4 10 20.5 18.5t28.5 12.5q2 0 17.5 1t23.5 1q6 0 20 -1l13 -1q4 -2 15 -11t22.5 -21.5t21.5 -24 t14 -17.5q6 -8 21.5 -40.5t34 -69.5t34 -70t21.5 -41q2 -4 21.5 -32.5t43 -64.5t47 -71t36.5 -53q4 -14 18 -19q14 4 18 19l295 387q4 6 14.5 18.5t22.5 27.5t22.5 27.5t14.5 18.5l18 19q10 10 32 23t24 13q4 0 30.5 2.5t42.5 2.5t43 -2.5t31 -2.5q2 0 23.5 -13t32.5 -23 q4 -4 10 -9.5t8 -9.5q4 -6 11 -19.5t7 -17.5q0 -2 1 -23.5t1 -31.5t-1 -31.5t-1 -23.5q-4 -10 -12 -26.5t-18 -27.5q-10 -16 -24.5 -34.5t-18.5 -22.5q-10 -10 -36 -36.5t-55.5 -56.5t-56 -56.5t-37.5 -34.5q0 -10 -8 -29q-4 -10 -5 -16t-4 -10.5t-8 -10.5t-14 -18 q-10 -14 -24 -33.5t-27.5 -37t-25 -31t-13.5 -17.5q-6 -10 -21.5 -33.5t-33.5 -49.5t-33.5 -50.5t-21.5 -32.5q4 -10 17 -36.5t20 -37.5q2 -6 12 -19t22.5 -27.5t23.5 -28t15 -17.5q6 -8 26.5 -29.5t44.5 -45t45.5 -45t31.5 -27.5q6 -6 22.5 -20.5t35 -30t33.5 -27.5t19 -14 q2 -2 13.5 -7.5t24 -11.5t22.5 -11l14 -7q10 -8 31.5 -28.5t23.5 -27.5q0 -2 1 -16t1 -24t-1 -30t-1 -22q0 -4 -7 -17t-11 -20q-4 -14 -18 -18q-6 -4 -19.5 -11t-17.5 -7t-29 -1t-41 -1q-10 0 -33.5 1t-25.5 1q-4 0 -18.5 7t-32 16t-35 18.5t-25.5 13.5q-4 2 -15.5 9 t-23.5 16.5t-22.5 17.5t-12.5 12l-295 295q-2 0 -5 1t-5 1l-8 -2q-4 -2 -17.5 -16.5t-19.5 -20.5q-4 -4 -12 -14t-17.5 -22.5t-16.5 -22.5t-9 -14q-2 -2 -8.5 -13.5t-15.5 -27t-17 -31t-14 -21.5q-6 -12 -18.5 -33.5t-25 -42t-21.5 -37.5l-9 -16q-2 -4 -7.5 -23.5t-11.5 -42 t-11 -41t-7 -22.5q-8 -10 -27.5 -30.5t-27.5 -24.5q-4 0 -28 9t-28 9h-20h-35h-35h-20q-4 0 -10.5 7.5t-8.5 11.5t-8 24.5t-10 30.5q-2 6 -5 17.5t-6 23.5t-5.5 21.5t-2.5 11.5t-1 13.5t-1 15.5z" />
<glyph unicode="y" horiz-adv-x="1327" d="M252 137q0 8 2 33t4 33q10 -4 30.5 3t24.5 15q2 0 3 13.5t1 19.5q0 10 -1 24.5t-3 16.5q0 2 -5 10t-11 17.5t-12 17.5t-9 10v8v11q2 6 8.5 26.5t10.5 28.5l55 129q2 8 8.5 23.5t12.5 30t11 25.5t5 13t1 9.5t1 11.5t-1 10l-1 6q-2 2 -13.5 10t-23.5 17.5t-23.5 17.5 t-13.5 10l-92 92q-2 2 -9 11.5t-15.5 20.5t-16.5 22.5t-14 19.5l-37 55q-10 14 -23.5 42t-13.5 32v21q0 16 1 34.5t1 34.5q0 18 -2 21q0 2 -8 13t-18.5 23.5t-18.5 22.5t-10 15q-4 6 -11.5 27.5t-7.5 27.5v14q0 12 -1 30.5t-1 37.5v28v21q0 16 1 33.5t1 33.5v23l37 74 q4 14 19 18q6 4 19 11.5t18 7.5q2 0 20.5 1t28.5 1t25.5 -1t17.5 -1q6 -2 20.5 -16.5t16.5 -20.5q10 -86 22 -170t51 -162l56 -92l18 -56q4 -14 19 -18q8 -6 24 -14t34.5 -17.5t33 -15.5t18.5 -8q2 -2 16.5 -5t30 -6.5t28.5 -5.5t17 -2q4 -2 18.5 -11t18.5 -7q6 2 20.5 15.5 t16.5 21.5q-4 6 -5 28.5t-1 44.5q0 23 1 43.5t5 30.5q0 2 13.5 22.5t31.5 46t36.5 53.5t29.5 44q12 18 35.5 50t47 65t42 57.5t22.5 30.5l111 110q4 4 17 10.5t19 8.5l9 2q4 0 7 -1l3 -1q2 -4 17.5 -20.5t19.5 -16.5q2 0 13 6t23.5 12.5t22.5 12.5t15 6l7 1t11 1t10 -1t8 -1 q6 -2 19.5 -8t17.5 -10.5t11.5 -18.5t7.5 -18q0 -2 1 -26t1 -34t-1 -29.5t-1 -21.5q-2 -10 -16.5 -36.5t-20.5 -37.5q-4 -4 -29.5 -32.5t-58.5 -64.5t-65 -70.5t-50 -53.5l-20.5 -20.5t-36 -35t-35.5 -34.5t-19 -21q-2 -2 -5 -10t-6 -17t-5 -17.5t-2 -10.5l-203 -350 q-2 -4 -7 -14.5t-11 -21.5t-11.5 -22.5t-7.5 -15.5q-6 -10 -14 -30.5l-16 -41t-15.5 -38t-9.5 -19.5q0 -2 -1 -8t-1 -10t1 -10.5t1 -8.5q2 -4 10.5 -18t8.5 -18q0 -2 1 -13.5t1 -15.5t-1 -14.5t-1 -12.5t-5.5 -13t-11.5 -24.5t-12 -23.5t-8 -13l-37 -92l-74 -147 q-4 -14 -18 -19q-6 -4 -19.5 -11t-17.5 -7h-72h-57q-6 2 -17.5 11t-23.5 21.5t-21.5 24t-11.5 17.5q-2 4 -4 27.5t-2 35.5zM385 524l2 -8q4 -14 19 -18q2 -2 12 -3t12 -1q0 4 -2 20t-4 21q-4 14 -18 18q-14 -4 -19 -18l-1 -5q-1 -4 -1 -6z" />
<glyph unicode="z" horiz-adv-x="1253" d="M14 195q0 12 2 36.5t2 26.5q0 6 17.5 37t27.5 53q10 20 12.5 28.5t6.5 37.5q6 29 8 38t12 25q14 23 34 51.5t30 42.5q2 2 8 7.5t12.5 11.5t11.5 11t5 7q2 2 4 12.5t5 23.5t5 24.5t4 13.5q6 8 20.5 31.5t32 50.5t34 50.5t24.5 33.5q14 18 46 58t70.5 89t82.5 103.5 t84 103.5t73 87t49 57q-4 14 -18 18l-6 1t-11 1q-4 0 -11 -1t-9 -1l-184 -37q-6 0 -27.5 -2t-47.5 -5t-47.5 -6t-25.5 -5q-2 0 -10 -5.5t-17.5 -11.5t-17.5 -12t-10 -8q-8 -4 -21.5 -11.5t-15.5 -7.5t-20.5 -1t-28.5 -1t-25.5 1t-17.5 1q-6 2 -19.5 15.5t-17.5 21.5v13v24 v23v14q0 2 -6 13.5t-12.5 23.5t-12.5 22.5t-6 14.5l-1 7q-1 7 -1 11t1 10.5t1 8.5q2 4 8 18t11 18q2 4 12 15.5t22.5 23t23.5 21.5t15 14t17.5 10.5t19.5 8.5q10 4 37 10t37 8l258 37q4 0 17.5 3t28.5 6t28.5 6t17.5 3q6 0 20.5 1t31 2t30.5 2t21 1q0 -6 1 -17t2 -23.5 t3 -23.5t2 -15t7 -10.5t11 -8.5l3 -1q3 -1 7 -1q2 0 6 1l3 1l36 92l26 2q26 2 48 2h27h39q39 0 75.5 -2t42.5 -2q10 0 38 -7t36 -11q6 -8 28.5 -27.5t27.5 -27.5q2 -4 5 -15.5t6 -26t5 -28.5t2 -23q0 -2 1 -19t1 -28q0 -10 -1 -26.5t-1 -18.5q0 -4 -7 -17t-11 -20 q-6 -8 -19.5 -21t-17.5 -15h-11h-18h-18h-9q-2 0 -7 -5.5t-11 -11.5t-11 -12t-8 -8l-36 -19q-14 -4 -19 -18l-55 -111q-8 -8 -27.5 -36.5t-27.5 -37.5q-6 -6 -31 -30.5t-53.5 -52t-53 -52t-28.5 -30.5q-4 -4 -31 -40t-61.5 -83t-70.5 -95.5t-58 -76.5l-37 -56 q-4 -6 -12.5 -18t-17.5 -27.5t-16.5 -28t-9.5 -18.5l-18 -37v-10v-8q4 2 17.5 5t28.5 6t28.5 5t17.5 2q2 0 18.5 2t36 5.5t36 6.5t20.5 5q2 0 16 5t29.5 11t29 12.5t17.5 8.5q12 2 35.5 8l47 12t42 11.5t22.5 5.5h19q16 0 37.5 1t44.5 1h37h26q23 0 43.5 -1t40.5 -1h29 q16 -6 30.5 -13.5t24.5 -23.5q4 -6 11.5 -19.5t7.5 -17.5v-12q0 -10 1 -22.5t1 -29.5v-20v-17q0 -10 -1 -24t-1 -25v-16l-37 -37q-4 -4 -18.5 -10t-18.5 -8q-16 0 -58.5 -5.5t-89.5 -11.5t-89 -12t-58 -8q-10 -2 -51 -13.5t-87 -23.5t-87 -23.5t-52 -13.5h-28q-23 0 -46.5 1 t-45.5 1q-23 0 -27 -2t-15.5 -12.5t-23.5 -23.5t-22.5 -24.5t-12.5 -13.5q-8 -8 -35.5 -20t-38.5 -17q-4 0 -17 -2t-31.5 -5t-36 -6t-25.5 -5h-21h-16q-4 2 -18.5 8t-18.5 10q-6 4 -19.5 18.5t-17.5 18.5t-10 15.5t-12 23.5t-10.5 21.5t-4.5 13.5t-2 29t-2 37zM535 1622v-18 h18z" />
<glyph unicode="{" horiz-adv-x="792" d="M164 137q0 4 1 15.5t1 13.5q0 8 2 22.5t5 28.5t6 25.5t5 15.5q2 6 15.5 26.5t21.5 28.5q2 4 12.5 14.5t22.5 21.5t23.5 22.5l15.5 15.5q8 6 25.5 21.5l35 31t31.5 26.5t19 13q6 6 22 15.5t34.5 18.5t34 15.5t19.5 6.5q2 0 27.5 1t38.5 1h20q12 0 25.5 -1t23.5 -1h13 q6 0 26.5 -7.5t28.5 -11.5q4 -2 11 -8t7 -10q0 -2 1 -14.5t1 -22.5q0 -8 -1 -21.5t-1 -15.5q0 -4 -7 -18.5t-11 -18.5l-37 -37l-129 -110l-55 -56q-4 -4 -14.5 -23.5t-22.5 -41t-23.5 -41t-13.5 -23.5q-4 -6 -12.5 -14t-17.5 -16.5t-16 -15.5l-9 -9h-33h-41q-8 0 -26.5 4 t-35.5 8q-10 4 -18 9.5t-12 15.5q-4 4 -10.5 15t-12.5 23.5t-10 21.5t-4 14l-1 10t-1 16zM16 774q0 10 1 31.5t1 23.5q0 4 7.5 17.5t11.5 19.5l37 37q10 10 27.5 15.5t25.5 9.5q16 4 34.5 8t22.5 4h17h28h29h18q10 2 56.5 10t100.5 17.5t100.5 17.5t56.5 10h8h10l37 -18 q2 0 16.5 -2t30 -5t28.5 -6t17 -6q2 0 8.5 -7t10.5 -11q4 -6 11 -19.5t7 -17.5q0 -2 1 -19.5t1 -27.5t-1 -26.5t-1 -18.5q0 -4 -7 -17.5t-11 -19.5l-37 -37q-12 -2 -44 -7t-67 -11t-66.5 -11.5t-43.5 -7.5q-4 0 -22.5 -5t-42 -11t-47.5 -12t-36 -8q-4 -2 -23.5 -8.5 t-41 -12.5t-41 -11t-23.5 -5q-2 0 -26.5 -1t-36.5 -1t-37 1t-29 1t-17.5 7t-19.5 11q-4 4 -10 9t-8 10q-4 6 -11.5 27.5t-7.5 27.5q0 2 -1 23.5t-1 31.5zM109 1427q0 10 1 28t1 20q0 4 7 17t11 19q6 10 19.5 23.5t17.5 13.5q2 0 22.5 2t30.5 2t32.5 -2t24.5 -2t13.5 -5 t24 -11t22.5 -12.5t14 -8.5q10 0 12.5 2.5t18.5 -14.5q14 -14 35.5 -36.5t25.5 -24.5l37 -19l92 -92l19 -37q2 -10 8 -27.5l12 -35t11.5 -31.5t5.5 -16t1 -16.5t1 -20.5q0 -8 -1 -21.5t-1 -15.5q-2 -4 -8.5 -11.5t-10.5 -7.5q-2 0 -21.5 -1t-29.5 -1t-24.5 1t-16.5 1 q-4 4 -24.5 25t-36.5 37q-10 12 -20.5 16t-39.5 15q-14 6 -22 10t-14.5 6t-12.5 4t-16 8l-57.5 35t-51.5 29l-55 37q-6 4 -19.5 18t-17.5 19q-4 6 -11 19t-7 17q0 2 -1 18.5t-1 26.5z" />
<glyph unicode="|" horiz-adv-x="407" d="M63 420v-88q0 -33 1.5 -63.5t1.5 -53.5v-27q0 -10 2 -37.5t5 -60.5t6 -62.5t5 -41.5q0 -6 4 -24.5t8 -35.5q4 -8 10.5 -24.5t14.5 -26.5q4 -6 18.5 -19.5t18.5 -17.5q6 -4 16 -10t21.5 -12t21.5 -10.5t14 -4.5h74q4 2 18.5 8.5t18.5 10.5q2 6 5 24.5t6 39t5 40t2 25.5 q0 4 1 25.5t1 31.5t-1 30.5t-1 22.5q-2 6 -8 28t-10 28q-2 2 -10 12t-18.5 22.5t-18.5 23.5t-8 15q0 2 -1 23.5t-1 34.5q0 12 1 39.5t1 31.5q0 2 3 13.5t6 24t6 22.5t3 14t-9 27.5t-9 27.5q0 2 -1 16.5t-1 22.5q0 6 1 19.5t1 15.5q2 4 8 11.5t10 7.5q2 14 4 72.5t5 138 t6.5 170t6.5 169t5 137t4 72.5v13q0 12 1 27.5t1 27.5v43q0 12 -1 24.5t-1 20.5v10q0 2 -5 10.5t-11.5 17.5t-12.5 17.5t-8 10.5l-2 8q0 2 1 6l1 4l55 92l1 6t1 11q0 4 -1 11t-1 9q-6 12 -13 27.5t-19 21.5q-10 14 -23.5 28.5t-17.5 14.5q-2 2 -22.5 3t-31.5 1 q-10 0 -32.5 -1t-24.5 -3q-4 0 -17.5 -13t-19.5 -24l-18 -36l-19 -56q-2 -6 -5 -23.5t-6 -39t-5 -40t-2 -26.5q-2 -10 -5 -44t-6.5 -71.5t-5.5 -73.5t-2 -50v-74q0 -2 5.5 -10.5t11.5 -17.5t12 -17t8 -10q2 -4 6 -46.5t9.5 -91.5t8.5 -90t3 -43t1 -9t1 -11t-1 -10l-1 -7 q-4 -6 -11.5 -44t-16.5 -82t-17 -81.5t-12 -42.5v-38q0 -29 -1.5 -58.5t-1.5 -58.5z" />
<glyph unicode="}" horiz-adv-x="774" d="M53 303q0 4 1 15.5t1 13.5q0 4 7.5 17t11.5 20q4 4 10 11t8 7h277q2 0 23.5 -7t31.5 -11q27 -10 48.5 -24.5t43.5 -31.5q10 -6 29.5 -20t41 -29.5t38 -28t20.5 -14.5l19 -18q4 -8 10 -28.5t8 -27.5q0 -2 1 -16t1 -20q0 -8 -1 -21.5t-1 -15.5q-2 -6 -8 -27.5t-10 -28.5 q-2 -4 -8.5 -11t-10.5 -7h-27h-28q-4 0 -14.5 2t-22.5 5t-23.5 6t-13.5 5q-2 0 -10 6.5t-17.5 12.5t-17.5 12t-10 6q-4 2 -20.5 7.5t-35 11.5t-35 11t-20.5 7q-2 0 -10 5t-17.5 11.5t-17.5 12.5t-10 8q-6 2 -37 18.5t-65.5 35t-64.5 36t-36 21.5q-8 4 -21.5 18t-15.5 18 l-1 10q-1 11 -1 17zM16 664q0 10 1 31.5t1 23.5q2 6 8.5 19.5t10.5 17.5q2 2 23.5 8t31.5 10l166 37q10 2 37 8t37 10l203 56q8 2 25.5 5t34.5 6t31.5 5t18.5 2q10 0 37 -7t37 -11t23.5 -18.5t13.5 -18.5v-184q0 -4 -21.5 -23.5t-34.5 -32.5q-4 -4 -18 -11t-18 -7 q-10 0 -40 -4t-42 -4q0 8 -3.5 31.5t-7.5 31.5q-2 4 -16 18.5t-20 18.5l-5 1q-4 1 -6 1l-8 -2q-14 -4 -18 -18l-19 -56q-4 -14 -18 -18q-10 -4 -30.5 -11.5t-24.5 -7.5h-332q-4 0 -17.5 7.5t-19.5 11.5q-4 4 -11.5 10t-7.5 8t-1 24t-1 32zM92 958q0 10 -2 37t-2 37 q0 16 2 43t2 31t13.5 24.5t23.5 30.5q6 6 19.5 20.5t17.5 16.5h8h19h18h10q4 0 17.5 7t19.5 12q4 4 11 10t7 8v8v19v18v10q2 4 15.5 17.5t21.5 19.5l37 19q4 0 27.5 7t28.5 11l55 55q6 4 26.5 10.5t28.5 8.5q2 0 26.5 1t37.5 1q8 0 32.5 -1t32.5 -1q6 -2 20.5 -16.5 t16.5 -20.5q0 -2 1 -20.5t1 -28.5q0 -12 -1 -35t-1 -27q0 -8 -7 -35.5t-11 -37.5q-4 -8 -9.5 -19.5t-10.5 -23t-10 -20.5t-7 -11q-4 -4 -32 -17.5t-42 -19.5l-111 -37q-6 -2 -18 -7t-27.5 -11.5t-28 -11.5t-18.5 -7q-4 -2 -18.5 -8t-18.5 -10l-92 -56q-8 -4 -21.5 -11 t-15.5 -7t-16 -1t-21 -1q-10 0 -22 1t-14 1q-4 0 -10.5 7t-8.5 11z" />
<glyph unicode="~" horiz-adv-x="1099" d="M1051 1448v6q0 39 -13.5 74t-37 60.5t-55.5 39.5t-68 14l-39 -38q-109 -186 -117 -213q-43 2 -66.5 9t-41 23.5t-37 42t-58.5 66.5q-37 18 -57.5 34.5t-33.5 29t-24.5 20.5t-31.5 8h-6q-80 0 -187 -88l-127 -160q-8 -16 -12 -37.5t-8 -44.5q6 -25 19 -50t33.5 -46.5 t46.5 -35t54 -13.5h15q20 0 32.5 4t20.5 13.5t17.5 25.5t25.5 41q4 8 14 30.5t21.5 46t18.5 43t5 19.5l92 -18q35 -4 42.5 -15.5t6.5 -28t-2 -36t17 -41.5q57 -35 90 -52.5t54.5 -26.5t40 -11t48.5 -4l199 86q105 90 109 223zM231 1497q0 2 1 6l1 4q2 14 19 19q14 -4 18 -19 q2 -4 4 -20.5t2 -20.5q-2 0 -12 1t-12 3q-16 2 -19 19zM907 1380q0 2 1 6l1 5q2 14 19 18q14 -4 18 -18q2 -4 4 -20.5t2 -20.5q-2 0 -12 1t-12 3q-16 2 -19 18z" />
<glyph unicode="&#xa1;" horiz-adv-x="718" d="M608 1059q0 39 -8 71.5t-31 65.5q-4 4 -10 11t-8 7t-21.5 1.5t-29.5 1.5t-24.5 -1.5t-16.5 -1.5q-2 -2 -11.5 -11t-21.5 -20.5t-23.5 -22.5t-17.5 -19q-2 -2 -7 -11.5t-11.5 -21.5t-11.5 -23.5t-7 -17.5v-18q-2 -12 -5 -33t-6 -41.5t-5 -36.5t-2 -18l-37 -129l-19 -93 q-20 -70 -55 -129q-6 -10 -30.5 -51t-52 -87t-52.5 -87t-31 -51q-2 -4 -8 -20.5t-12 -35t-11.5 -35t-5.5 -20.5t-1 -27.5t-1 -35.5q0 -8 1 -33t1 -33q2 -16 19 -18q10 -10 31.5 -23.5t23.5 -13.5h203q2 0 11 8t20.5 20.5t22.5 24.5t20 21q10 10 15 27.5t9 25.5q4 16 8 34.5 t4 22.5v129q0 2 6.5 10.5t12.5 17.5t12 17.5t6 10.5q4 6 9.5 22.5t11.5 33.5t10 32.5t6 21.5q0 2 1 16.5t1 24.5q0 6 -1 20l-1 13q-2 4 -17.5 10t-19.5 8q-4 4 -11 10.5t-7 8.5t-1 9t-1 11t1 10l1 7q2 4 16.5 10t20.5 8h55q14 2 18 19q2 10 5.5 28.5t6.5 38t5 36.5t2 26 q0 4 -9.5 27.5t-9.5 27.5q0 2 7.5 16.5t11.5 20.5q2 2 8 10t12.5 17.5t11.5 17.5t5 10q4 8 11 37t7 37q0 2 1 19.5t1 27.5zM698 1638l-36 37q-10 8 -31 22.5t-25 14.5h-74q-10 -2 -30.5 -8t-24.5 -10q-6 -4 -17 -14.5t-23.5 -22.5t-21.5 -22.5t-12 -14.5q0 -2 -1 -11.5 t-1 -15.5q0 -4 1 -15t1 -13q0 -4 6.5 -14.5t12.5 -22.5t12 -23.5t6 -13.5q4 -6 7.5 -37t7.5 -53q0 -20 8 -26.5t14 -12.5q2 0 19.5 -1t27.5 -1t26.5 1t18.5 1q14 0 28.5 11t25.5 22q14 14 33.5 32.5t23.5 26.5q4 4 11 18.5t7 18.5v10q0 10 1 21.5t1 23.5v19q0 10 -1 36.5 t-1 36.5z" />
<glyph unicode="&#xa2;" horiz-adv-x="1077" d="M100 881v-15l15 -43q2 -4 5 -18t5 -29.5t4 -30t2 -20.5q4 -2 15.5 -3t15.5 -1q8 2 12 2h10q10 0 15 8q10 8 22 20.5t17 16.5h14q4 -2 15.5 -8t15.5 -6q12 0 16 14l31 84q2 8 9 23.5t14 32t14.5 28.5t7.5 16q2 2 9 9.5t13 17.5q16 23 20.5 25t12.5 18q6 16 14.5 29.5 t12.5 25.5q6 12 10 16.5t22.5 14.5t22.5 14l92 86q4 4 20.5 13.5t26.5 13.5l31 14h14q4 0 9.5 -5t5.5 -9v-84q0 -4 6 -14.5t10 -14.5q2 -12 14 -14q6 -4 16.5 -9t14.5 -5q2 0 22.5 -1t30.5 -1q12 0 33 1t23 1q4 0 14 5t16 9q12 2 15 14q4 4 9 14.5t5 14.5v8q0 10 1 19.5 t1 19.5v31q0 8 -1 18t-1 19v12q-8 -4 -24.5 2t-20.5 12q-2 0 -3 8.5t-1 12.5q0 18 3 21t24 22q23 18 22 22q2 4 -4 13.5t-10 15.5l-19.5 19.5t-29.5 25.5q-6 10 -19.5 15.5t-23.5 9.5q-2 0 -13.5 1t-17.5 1t-15.5 -1t-13.5 -1q2 8 3 22t-1 19q0 12 -2 33.5t-4 25.5 q-2 0 -8 16.5t-10 26.5t-11.5 24.5t-7.5 16.5q-4 4 -25.5 17.5t-31.5 17.5q-12 2 -42 3t-42 -1q-4 2 -24.5 -6.5t-30.5 -12.5q-10 -6 -25.5 -14t-17.5 -10q-4 -4 -11.5 -19.5t-15.5 -36t-13 -39t-8 -28.5q-4 -23 -7 -67t-5 -87q-25 -23 -53.5 -49t-36.5 -37q-4 -4 -16.5 -18 t-26.5 -32.5t-28.5 -36t-20.5 -25.5q-4 -4 -10 -13.5t-12.5 -21.5t-13.5 -22.5t-9 -14.5l-62 -113q-2 -6 -14 -32.5t-16 -38.5zM68 475q0 -4 1 -11t1 -9q2 -4 6 -14.5t8 -14.5q2 -4 16.5 -13.5t14.5 -13.5v-12q0 -8 -1 -17.5t-1 -19.5q0 -6 2 -8q2 -4 8 -11l12 -14 q16 -10 20.5 -15t26.5 -5q14 0 32.5 1t33.5 1h20q4 0 21.5 -5t23.5 -9q2 -2 8.5 -6.5t8.5 -8.5q4 -4 8 -14t6 -14h51l-4 -33q-2 -8 -3 -22.5t1 -18.5q0 -12 2 -33.5t4 -25.5q2 0 9.5 -16.5t11.5 -27t11 -24.5t7 -16q4 -4 25.5 -16.5t32.5 -16.5q12 -2 41.5 -3t41.5 1 q4 -2 25 6t31 12q10 6 25.5 14.5t17.5 10.5q4 4 11 20.5t14.5 37t12.5 38.5t7 29q4 18 5 55t3 78l61 22q4 2 17.5 7.5t29 12.5t29 13t17.5 10t22.5 14.5t22.5 14.5q12 8 24 21q16 14 19.5 18t5.5 8q4 20 6 28.5t12 18.5q10 12 22.5 27.5t16.5 19.5t10.5 14.5t6.5 14.5 q0 2 1 20.5t1 28.5q0 4 -1 23.5t-1 25.5q-4 4 -15.5 14.5t-15.5 14.5q-6 4 -28.5 8t-33.5 6q-2 0 -11 1t-13 1t-12 -1l-9 -1q-4 -2 -15 -6t-15 -8l-93 -72q-6 -4 -23 -13t-24 -13l-151 -72q-6 -4 -23.5 -8t-23.5 -6l-90 -15l-62 -14q-2 0 -12 -1t-14 -1t-13 1l-8 1 q-4 4 -15.5 14.5t-15.5 14.5q-2 4 -6 18t-8 30.5t-9 31t-7 20.5l-15 12q-4 4 -15 9.5t-15 5.5q-2 0 -15.5 1t-23.5 1t-23 -1l-14 -1q-6 0 -23.5 -5.5t-23.5 -9.5q-10 -6 -21 -24q-4 -10 -7 -25.5t-3 -19.5l-14 -43q0 -2 -1 -10.5t-1 -12.5zM252 696v-28h16v28h-16z" />
<glyph unicode="&#xa3;" horiz-adv-x="1327" d="M606 1106h-59q0 2 1 14.5t1 16.5q0 6 -1 15l-1 9q-4 6 -23.5 14.5t-29.5 4.5l71 73q6 6 17.5 15.5t23.5 18.5t22 15l11 7q2 2 16.5 3t20.5 1q8 0 21.5 -1t15.5 -3q4 -2 15 -10.5t23.5 -17.5t22.5 -17.5t12 -10.5q4 -2 24.5 -8t31.5 -10q4 -2 15 -5t23.5 -6t22.5 -5t12 -2 h19q12 2 33.5 5t42 6t36.5 5l17 2q8 4 21.5 17.5t15.5 19.5q0 10 1 36.5t1 37.5v18q0 12 -1 23.5t-1 21.5v10q0 4 -7.5 17.5t-11.5 19.5q-4 14 -18 19q-6 4 -19.5 11t-17.5 7h-55q-2 0 -9.5 8t-9.5 10q-6 4 -26.5 10.5t-28.5 8.5q-4 2 -10 2t-15 2q-27 6 -53 10t-33 4h-26 q-29 0 -65 1t-70 1h-105q-31 0 -65.5 -1t-65.5 -1h-45q-4 -2 -18.5 -8t-18.5 -10l-37 -37q-4 -6 -11 -19.5t-7 -17.5q0 -2 -1 -23.5t-1 -31.5t1 -31.5t1 -23.5t8 -9.5t10 -9.5q4 -8 10.5 -28.5t8.5 -26.5q0 -2 1 -15.5t1 -19.5q0 -8 -1 -22.5t-1 -16.5l-19 -92l-6 -37 q-49 -6 -98 -11t-60 -9q-4 0 -18 -7.5t-18 -11.5q-10 -8 -23.5 -20.5t-13.5 -16.5v-202q0 -2 7 -8.5t11 -10.5q6 -4 19.5 -11t17.5 -7h10q10 0 22.5 -1t24.5 -1h21q16 0 41.5 1t28.5 1l4 1t10 3l14 -24.5t6 -14.5q0 -2 1 -15.5t1 -23.5l-129 -18q-10 -2 -30.5 -8.5 t-24.5 -10.5q-10 -8 -31.5 -28.5t-23.5 -26.5q-2 -2 -3 -24.5t-1 -33.5q0 -10 1 -30.5t3 -22.5q2 -4 11 -15t21.5 -22.5t23.5 -21.5t17 -15q2 0 12.5 -1t14.5 -1t15.5 1t13.5 1q4 0 18.5 16.5t18.5 20.5h18l19 -2q4 -23 8 -50.5t8 -37.5q4 -16 12 -42.5t17.5 -53.5 t16.5 -47.5t9 -22.5q4 -4 18.5 -19t31 -32.5t34 -34t27.5 -24.5q2 -2 11 -7.5t20.5 -10.5t23.5 -11t19 -8q10 -4 29.5 -12.5t23.5 -6.5q49 18 47 19q-2 0 -19.5 -7t-30 -14.5t16.5 -3.5l37 -18h221q4 0 15.5 2t25.5 5t28.5 6t22.5 5l56 19l73 18l56 19q16 4 42.5 18t30.5 18 q4 2 19.5 16.5t34 33t35 36t22.5 25.5q4 4 11 18.5t7 18.5v8q0 10 1 22.5t1 22.5v39q0 12 -1 23.5t-1 21.5v10q-4 12 -12 26.5t-24.5 31t-19.5 17.5t-15 3q-20 4 -45 7t-31 8q-2 0 -9 8t-10 10q-6 4 -20 11t-16 7q-6 0 -19.5 -7t-17.5 -11l-56 -92q-4 -4 -17 -18.5 t-19 -18.5l-37 -19l-56 -36q-6 -6 -20 -19.5t-16 -17.5q-4 -4 -9.5 -27.5t-9.5 -28.5q-4 -8 -18.5 -21t-18.5 -15q-2 0 -12 -1t-14 -1q-6 0 -16.5 1t-12.5 1l-10 10t-17.5 17t-17.5 17.5t-10 10.5t-13 2h-24q-12 0 -22.5 -1t-14.5 -1q-8 0 -22.5 2t-30 5t-26.5 6t-13 5 t-3 13.5t-2 26t-5.5 27.5t-14.5 21q-4 2 2 11.5t13.5 20.5t12.5 20.5t3 13.5q-6 6 -8 12l28 4q6 0 31 2t52.5 5.5t52 6.5t30.5 5q4 0 17.5 7t19.5 11q4 4 11.5 10.5t7.5 8.5v110q0 4 9 27.5t9 28.5q0 2 1 13t1 15q0 6 -1 16l-1 11q0 2 -7 8t-11 10q-6 4 -19.5 11.5 t-17.5 7.5t-28.5 1t-37.5 1q-14 0 -37.5 -1t-25.5 -1q-4 0 -17.5 -3t-31 -8.5t-35 -10.5t-29.5 -9v51q2 8 3 20.5t5 26.5l31 6q10 2 39 7.5t61.5 11.5t61 11t41.5 7q10 4 30.5 24.5t24.5 31.5q2 2 3 24.5t1 32.5t-1 30.5t-3 22.5q-2 6 -11 17.5t-21.5 23.5t-24 21.5 t-17.5 11.5h-22q-16 0 -34 1t-34 1z" />
<glyph unicode="&#xa5;" horiz-adv-x="1216" d="M840 723h-70h-39q16 27 35.5 61.5t26.5 44.5q2 2 10 19.5t17 36t16.5 35t11.5 20.5q2 2 13 13.5t24.5 23.5t24 22.5t12.5 14.5q2 2 9 18.5t16 35.5t17.5 35.5t12.5 20.5q2 4 15.5 17.5t21.5 19.5l92 74q6 6 28.5 26.5t26.5 28.5l19 37q4 10 11 30.5t7 24.5q0 2 1 18.5 t1 26.5t-1 28t-1 20q0 4 -7 18t-11 18l-56 56q-10 0 -36.5 2t-36.5 2q-16 0 -43 -2t-31 -2q-2 0 -23.5 -13.5t-31.5 -23.5q-4 -4 -11.5 -10.5t-7.5 -8.5t-1 -8t-1 -10t1 -11l1 -7q2 -4 17.5 -19.5t19.5 -17.5l1 -4t1 -7l-2 -8q-4 -6 -18.5 -19.5t-18.5 -17.5q-4 -2 -14 -5 t-22.5 -6t-24 -5t-13.5 -2q-4 -2 -18 -8t-18 -10l-19 -19q-29 -35 -49 -63.5t-43 -65.5l-129 -203q-4 -4 -10 -11t-8 -7l-11 -1q-10 -1 -16 -1q-4 0 -15.5 1t-13.5 1q-4 0 -24.5 7t-30.5 11q-14 6 -36.5 15.5t-43.5 13.5q-20 8 -31 27q-4 6 -11 19t-7 17v388 q-4 20 -18.5 35.5t-36.5 19.5q-2 0 -13.5 1t-15.5 1t-14.5 -1t-12.5 -1q-4 -2 -16 -7t-27.5 -11.5t-29 -11.5t-19.5 -7q-16 -4 -18 -18q-2 -2 -7.5 -13.5t-11.5 -27t-11 -29.5t-7 -23q-4 -10 -11.5 -31.5t-7.5 -23.5v-16q0 -16 -1 -37t-1 -43v-66q0 -23 1 -43t1 -37v-16 q0 -8 7.5 -34.5t11.5 -39.5q2 -4 8 -18t10 -19q2 -4 13.5 -17t23.5 -28.5t23.5 -29t13.5 -17.5q4 -4 9 -27.5t9.5 -27.5t17.5 -18.5t19 -18.5q2 -2 12.5 -7t22.5 -11t23.5 -11.5t15.5 -7.5l111 -37v-2h2q-37 -2 -78 -4t-76 -4t-60.5 -4t-33.5 -4q-6 0 -25.5 -4t-27.5 -8 q-14 -4 -33 -13.5t-19 -13.5v-141q0 -2 10.5 -6t16.5 -9q8 -4 26.5 -8t26.5 -4h15q16 0 32.5 -1t34.5 -1h29h29q16 0 31.5 1t25.5 1h14h8q-4 -12 -4 -14l-10 -41l-127 -10q-16 0 -44 -4.5t-34 -8.5q-8 -2 -21.5 -8t-25.5 -12t-22.5 -11.5t-10.5 -7.5q-2 -2 -4 -17t-2 -24 q0 -8 2 -21t4 -15q2 -4 16.5 -11.5t31 -15.5t33 -15.5t24.5 -9.5q4 0 18.5 -1t20.5 -1t22.5 1t18.5 1q8 0 27.5 10.5t25.5 14.5h6q-8 -10 -15 -20.5t-7 -12.5t-1 -26.5t-1 -40.5v-21q0 -12 1 -25.5t1 -23.5v-10q0 -4 7 -17.5t11 -19.5l37 -37q10 0 36.5 -2t37.5 -2 q16 0 42.5 2t30.5 2q2 2 5.5 4t7.5 6q16 14 34.5 33.5t26.5 30.5q8 12 22.5 36.5t29 50t25.5 48t15 31.5v6l125 8q8 0 43 2t75 4t75 4t43 4q8 0 26.5 4t26.5 8.5t18 8.5l11 4v78q0 4 12 19.5t12 19.5q0 2 2 9t2 11t-2 12l-2 7q0 2 -10 6t-14 8q-10 4 -30 8t-24 4 q-8 0 -42.5 1t-53.5 1q-20 0 -53 -1t-37 -1q-6 0 -33.5 -3t-59.5 -8t-58.5 -9t-32.5 -6l-19 -3q4 16 10.5 35t12.5 37l74 8q14 2 55 6.5t88 8.5t89 7t60 5q14 4 43 17.5t35 21.5q4 2 5 17.5t1 23.5t-1 21.5t-5 15.5q-4 4 -17.5 12t-29.5 16.5t-33.5 14.5t-25.5 8h-33 q-23 0 -47 1t-49 1z" />
<glyph unicode="&#xa7;" horiz-adv-x="2392" d="M1208 289q0 -10 1 -27.5t1 -19.5q0 -8 4.5 -32t8.5 -42q4 -10 9 -27.5t15 -27.5q2 -4 12.5 -15.5t22.5 -24t23.5 -22.5t15.5 -12q10 -10 27.5 -15.5t27.5 -9.5q20 -4 44 -8t30 -4h184q6 0 20.5 2t32 5t34 6t24.5 5.5t28.5 7.5t41 11t38 11t21.5 7q6 2 25.5 11.5t42 21.5 t45 23.5t34.5 17.5q6 4 26.5 17.5t29.5 19.5q2 2 15 12t28.5 22.5t29 23t19.5 16.5q4 2 10 9t8 9q6 6 14.5 17.5t17.5 23.5t15.5 21.5t8.5 11.5q2 6 9 21.5t16 34t17.5 33.5t12.5 21q2 2 5 12.5t6 24t5 24.5t2 13l19 55q2 4 5 17.5t6 29t5 29t2 17.5v36l-18 37q0 2 -2 16.5 t-5.5 30t-6.5 28.5t-5 17q-4 8 -13 13.5t-11 17.5q-4 16 -6 37t-7 25l-18 18q-8 4 -22.5 13.5t-29 18.5t-26.5 16t-14 7t-15.5 1t-17.5 1q-10 0 -24.5 -1t-16.5 -1q-4 0 -18.5 -9t-18.5 -9q-2 0 -13 -1t-15 -1q-6 0 -16 1l-11 1q-4 2 -11 10t-16.5 17.5l-17.5 17.5l-10 10 q-8 6 -30 16.5t-26 10.5h-424v29q0 2 14.5 19t35 37.5t43 41t36.5 31.5q4 4 23.5 14t41 22.5t41 22.5t23.5 14l56 37q6 4 20.5 11.5t16.5 7.5q4 0 27.5 -9.5t27.5 -9.5q6 -2 22.5 -5t34 -6t32.5 -5t22 -2q4 0 20 -1t27 -1q10 0 26.5 1t18.5 1q6 2 19 8t18 10q2 2 7 11.5 t10 20.5t10 22.5t9 19.5q4 10 11.5 30.5t7.5 24.5q0 2 -7.5 8.5t-11.5 10.5l-73 36h-92q-2 0 -9.5 8.5t-9.5 10.5q-4 0 -27.5 7t-27.5 11q-6 6 -13.5 26.5t-5.5 29.5q-8 0 -32.5 1t-32.5 1q-12 0 -36 -1t-28 -1q-10 -2 -33.5 -10.5t-50 -17.5t-50 -17.5t-32.5 -10.5 q-4 -2 -11 -10t-16 -17.5t-17.5 -17.5t-10.5 -10h-55q-4 0 -17.5 -7t-19.5 -11q-10 -6 -27.5 -17.5t-36 -24t-32 -21.5t-15.5 -11q-4 -4 -16 -16.5t-27.5 -26.5t-29 -27.5t-19.5 -21.5q-4 -4 -12 -15.5t-17.5 -23.5t-16.5 -22.5t-9 -12.5q-2 -4 -4 -17.5t-5 -28.5t-5 -28.5 t-4.5 -17.5t-17.5 -9.5t-19 -9.5t-11.5 -18t-7.5 -18v-15q0 -10 -1 -24.5t-1 -28.5v-49v-6q-16 10 -29.5 19t-17.5 9q-2 0 -15.5 1t-17.5 1q-10 0 -24.5 -1t-16.5 -1q-4 0 -18 -9t-19 -9q-2 0 -13 -1t-15 -1q-6 0 -16 1l-11 1q-4 2 -11 10t-16.5 17.5l-17.5 17.5l-10 10 q-8 6 -29.5 16.5t-25.5 10.5h-424v28q0 2 14 19.5t34.5 38t43 41t37.5 31.5q4 4 23.5 14t41 22.5t41 22.5t23.5 14l55 37q6 4 20.5 11.5t16.5 7.5q4 0 27.5 -9.5t27.5 -9.5q6 -2 22.5 -5t34 -6t33 -5t21.5 -2q4 0 20.5 -1t26.5 -1t26.5 1t18.5 1q6 2 19.5 8t17.5 10 q2 2 7 11.5t10 20.5t10.5 22.5t9.5 19.5q4 10 11 30.5t7 24.5q0 2 -7 8t-11 11l-74 36h-92q-2 0 -9.5 8.5t-9.5 10.5q-4 0 -27.5 7t-27.5 11q-6 6 -13 26.5t-5 29.5q-8 0 -33 1t-33 1q-12 0 -35.5 -1t-27.5 -1q-10 -2 -34 -10.5t-50.5 -17.5t-50 -17.5t-31.5 -10.5 q-4 -2 -11.5 -10t-16.5 -17.5t-17.5 -17.5t-10.5 -10h-55q-4 0 -17.5 -7t-19.5 -11q-10 -6 -27.5 -17.5t-36 -24t-31.5 -21.5t-15 -11l-16.5 -16.5t-28 -27t-28.5 -27.5t-20 -21q-4 -4 -12 -15.5t-17 -24t-16.5 -22.5t-9.5 -12q-2 -4 -4 -17.5t-5 -28.5t-5 -28.5t-4 -17.5 t-17.5 -9.5t-19.5 -9.5t-11.5 -18t-7.5 -19v-14q0 -10 -1 -24.5t-1 -28.5v-49q0 -16 1 -30.5t1 -25.5v-12q0 -6 7.5 -27.5t11.5 -27.5q0 -2 4 -10.5t10 -17.5t12.5 -17t10.5 -10q2 -16 18 -19q10 -8 30.5 -22.5t24.5 -14.5q2 -2 13.5 -5t24 -6t22.5 -5t14 -2q2 0 23.5 -1 t31.5 -1t32 1t24 1q6 0 34.5 7t39.5 11l36 19h19l203 -19h73q4 0 27.5 9.5t28.5 9.5q2 0 10 1t12 1t9 -1l5 -1l111 -111l1 -5t1 -9t-1 -12.5t-1 -10.5q-2 -10 -8 -30.5t-10 -24.5q-2 -4 -10.5 -15.5t-20.5 -25.5t-23.5 -28.5t-19.5 -22.5q-4 -6 -18.5 -19.5t-18.5 -17.5 q-6 -4 -27.5 -18.5t-27.5 -18.5q-4 -4 -20.5 -12t-35 -17.5t-35 -16.5t-20.5 -9q-10 -4 -30.5 -11.5t-24.5 -7.5h-15q-12 0 -30.5 -1t-36.5 -1h-51q-16 0 -33.5 1t-34.5 1h-20q-4 2 -18.5 8.5t-18.5 10.5q-4 2 -17.5 13t-29 23.5t-28.5 23.5t-17 14q-2 2 -15.5 3t-19.5 1 q-10 0 -23.5 -1t-15.5 -3q-4 -2 -17.5 -16.5t-19.5 -20.5q-4 -6 -11 -19.5t-7 -17.5q0 -2 -1 -18.5t-1 -26.5t1 -27.5t1 -19.5q0 -8 4 -32t8 -42q4 -10 9 -27.5t15 -27.5q2 -4 12.5 -15.5t23 -24t23.5 -22.5t15 -12q10 -10 27.5 -15.5t27.5 -9.5q20 -4 44 -8t30 -4h185 q6 0 20 2t31.5 5t34 6t24.5 5t28.5 7.5t41 11.5t38 11t21.5 7q6 2 25.5 11.5t42 21.5t45 23.5t35.5 17.5q6 4 26.5 17.5t28.5 19.5q2 2 15.5 12t28.5 22.5t28.5 22.5t19.5 17q4 2 10 9t8 9q6 6 14.5 17.5t17.5 23.5t15.5 21.5t8.5 11.5q2 6 9 21.5t16.5 34t17.5 33.5t12 21 q2 2 5 12.5t6 24t5.5 24.5t2.5 13l18 55q2 4 5 17.5t6 29t5 28.5t2 18v36l-18 37v2q0 2 -2 6q8 -6 14 -6q2 -2 13.5 -5t23.5 -6t22.5 -5t14.5 -2q2 0 23.5 -1t31.5 -1t32 1t24 1q6 0 34.5 7t38.5 11l37 19h19l202 -19h74q4 0 27.5 9.5t27.5 9.5q2 0 10.5 1t12.5 1t9 -1l5 -1 l111 -111l1 -5t1 -9t-1 -12.5t-1 -10.5q-2 -10 -8.5 -30.5t-10.5 -24.5q-2 -4 -10 -15.5t-20.5 -25.5t-23.5 -28.5t-19 -22.5q-4 -6 -18.5 -19.5t-18.5 -17.5q-6 -4 -27.5 -18.5t-28.5 -18.5q-4 -4 -20 -12t-34.5 -17.5t-35 -16.5t-20.5 -9q-10 -4 -30.5 -11.5t-24.5 -7.5 h-15q-12 0 -30.5 -1t-36.5 -1h-52q-16 0 -33.5 1t-33.5 1h-21q-4 2 -18 8.5t-18 10.5q-4 2 -17.5 13t-29 23.5t-29 24t-17.5 13.5q-2 2 -15 3t-19 1q-10 0 -23.5 -1t-15.5 -3q-4 -2 -17.5 -16.5t-19.5 -20.5q-4 -6 -11.5 -19.5t-7.5 -17.5q0 -2 -1 -18.5t-1 -26.5zM571 74 q14 -8 18.5 -19.5t4.5 -17.5h-23v37zM1671 76q14 -8 18.5 -19.5t4.5 -17.5h-23v37z" />
<glyph unicode="&#xa8;" horiz-adv-x="1021" d="M129 1968v-39q0 -10 1 -22.5t1 -22.5v-8q0 -4 7 -17.5t12 -19.5q2 -16 18 -18q6 -4 19.5 -11.5t17.5 -7.5h92q10 2 30.5 8.5t24.5 10.5q6 4 24.5 23.5t33.5 33.5q14 10 22 24.5t12 28.5q0 2 1 26.5t1 37.5q0 14 -1 38.5t-1 26.5q0 12 -12 27.5t-18 21.5 q-10 14 -25.5 28.5t-17.5 14.5t-15.5 2.5t-19.5 2.5q-8 0 -22.5 -2.5t-16.5 -2.5q-4 -2 -19.5 -9t-33 -15t-33.5 -16.5t-25 -14.5q-16 -16 -35.5 -36.5t-19.5 -37.5v-10q0 -10 -1 -21.5t-1 -23.5zM610 1978v-39q0 -10 1 -22t1 -23v-8q0 -4 7.5 -17.5t11.5 -19.5 q2 -16 18 -18q6 -4 19.5 -11.5t17.5 -7.5h92q10 2 30.5 8.5t25.5 10.5q6 4 24.5 23.5t32.5 33.5q14 10 22.5 24.5t12.5 29.5q0 2 1 26.5t1 36.5q0 14 -1 38.5t-1 27.5q0 12 -12.5 27.5t-18.5 21.5q-10 14 -25.5 28.5t-17.5 14.5t-15.5 2t-19.5 2q-8 0 -22.5 -2t-16.5 -2 q-4 -2 -19.5 -9.5t-32.5 -15.5t-33.5 -16t-24.5 -15q-16 -16 -36 -36.5t-20 -36.5v-11q0 -10 -1 -21.5t-1 -23.5z" />
</font>
</defs>
</svg>
